<?xml version="1.0" encoding="utf-8"?>
<!-- Generator: Adobe Illustrator 27.5.0, SVG Export Plug-In . SVG Version: 6.00 Build 0)  -->
<svg version="1.1" id="Слой_1" xmlns="http://www.w3.org/2000/svg" xmlns:xlink="http://www.w3.org/1999/xlink" x="0px" y="0px"
	 viewBox="0 0 3005.8 2000" style="enable-background:new 0 0 3005.8 2000;" xml:space="preserve">
<g>
	<linearGradient id="SVGID_1_" gradientUnits="userSpaceOnUse" x1="0" y1="1000" x2="3005.7998" y2="1000">
		<stop  offset="0" style="stop-color:#253380"/>
		<stop  offset="1" style="stop-color:#2D899E"/>
	</linearGradient>
	<rect style="fill:url(#SVGID_1_);" width="3005.8" height="2000"/>
	<g>
		<rect x="1025.793" y="1549.195" style="fill:#FFFFFF;" width="1603.582" height="165.92"/>
	</g>
	<polygon style="fill:#FFFFFF;" points="2899.347,1631.332 2658.846,1445.938 2658.846,1816.725 	"/>
	<g>
		<path style="fill:#FFFFFF;" d="M1016.097,1715.115c-105.381,0-207.655-20.658-303.979-61.4
			c-92.997-39.334-176.499-95.627-248.187-167.314c-71.688-71.688-127.981-155.189-167.315-248.188
			c-40.742-96.324-61.399-198.598-61.399-303.979s20.658-207.656,61.399-303.978c39.334-92.997,95.628-176.5,167.315-248.188
			c71.688-71.688,155.19-127.98,248.187-167.314c96.324-40.742,198.598-61.399,303.979-61.399
			c105.381,0,207.655,20.657,303.979,61.399c92.997,39.334,176.498,95.627,248.186,167.314
			c71.688,71.688,127.981,155.19,167.315,248.188c40.742,96.322,61.399,198.598,61.399,303.978s-20.657,207.654-61.399,303.979
			c-39.334,92.998-95.627,176.5-167.315,248.188c-71.688,71.688-155.189,127.98-248.186,167.314
			C1223.752,1694.457,1121.479,1715.115,1016.097,1715.115z M1016.097,319.273c-339.091,0-614.962,275.869-614.962,614.961
			s275.871,614.961,614.962,614.961s614.961-275.869,614.961-614.961S1355.188,319.273,1016.097,319.273z"/>
	</g>
	<g>
		<rect y="1549.188" style="fill:#FFFFFF;" width="1016.088" height="165.926"/>
	</g>
	<g>
		<g style="opacity:0.68;">
			
				<linearGradient id="SVGID_00000181787296738546344730000017511017204472842150_" gradientUnits="userSpaceOnUse" x1="484.2354" y1="1085.6934" x2="1538.9824" y2="1085.6934">
				<stop  offset="0" style="stop-color:#343D4F"/>
				<stop  offset="0.4581" style="stop-color:#30394C"/>
				<stop  offset="0.9513" style="stop-color:#232D41"/>
				<stop  offset="1" style="stop-color:#212B40"/>
			</linearGradient>
			<polygon style="fill:url(#SVGID_00000181787296738546344730000017511017204472842150_);" points="484.235,1585.275 
				1538.982,1585.275 1538.982,586.111 484.235,586.111 			"/>
		</g>
		<g>
			<rect x="582.391" y="662.612" style="fill:#E0E0E0;" width="191.268" height="19.584"/>
		</g>
		<g>
			<rect x="827.188" y="810.079" style="fill:#E0E0E0;" width="138.096" height="19.584"/>
		</g>
		<g>
			<rect x="986.796" y="810.079" style="fill:#1487E3;" width="91.641" height="19.584"/>
		</g>
		<g>
			<rect x="1174.023" y="1402.123" style="fill:#1487E3;" width="91.641" height="19.584"/>
		</g>
		<g>
			<rect x="584.56" y="1180.922" style="fill:#1487E3;" width="91.641" height="19.584"/>
		</g>
		<g>
			<rect x="1096.542" y="810.079" style="fill:#E0E0E0;" width="221.258" height="19.584"/>
		</g>
		<g>
			<rect x="584.56" y="1106.645" style="fill:#E0E0E0;" width="142.175" height="19.584"/>
		</g>
		<g>
			<rect x="966.583" y="1254.656" style="fill:#E0E0E0;" width="142.175" height="19.584"/>
		</g>
		<g>
			<rect x="782.745" y="1254.656" style="fill:#E0E0E0;" width="86.793" height="19.584"/>
		</g>
		<g>
			<rect x="584.56" y="1254.656" style="fill:#1487E3;" width="171.96" height="19.584"/>
		</g>
		<g>
			<rect x="584.56" y="1328.391" style="fill:#E0E0E0;" width="94.846" height="19.582"/>
		</g>
		<g>
			<rect x="810.868" y="662.612" style="fill:#78C2FF;" width="135.781" height="19.584"/>
		</g>
		<g>
			<rect x="810.868" y="883.813" style="fill:#1487E3;" width="135.781" height="19.584"/>
		</g>
		<g>
			<rect x="742.977" y="957.547" style="fill:#E0E0E0;" width="58.015" height="19.584"/>
		</g>
		<g>
			<rect x="684.962" y="1032.367" style="fill:#78C2FF;" width="130.31" height="19.584"/>
		</g>
		<g>
			<rect x="834.973" y="1032.367" style="fill:#1487E3;" width="179.893" height="19.584"/>
		</g>
		<g>
			<rect x="584.56" y="958.09" style="fill:#1487E3;" width="135.781" height="19.584"/>
		</g>
		<g>
			<rect x="584.56" y="1032.367" style="fill:#1487E3;" width="80.566" height="19.584"/>
		</g>
		<g>
			<rect x="828.345" y="958.09" style="fill:#FF8761;" width="76.009" height="19.584"/>
		</g>
		<g>
			<rect x="586.839" y="1402.123" style="fill:#FF8761;" width="76.01" height="19.584"/>
		</g>
		<g>
			<rect x="584.017" y="810.079" style="fill:#78C2FF;" width="135.781" height="19.584"/>
		</g>
		<g>
			<rect x="704.095" y="1180.922" style="fill:#78C2FF;" width="135.781" height="19.584"/>
		</g>
		<g>
			<rect x="705.769" y="1328.391" style="fill:#78C2FF;" width="135.781" height="19.582"/>
		</g>
		<g>
			<rect x="946.976" y="1328.391" style="fill:#78C2FF;" width="135.781" height="19.582"/>
		</g>
		<g>
			<rect x="584.017" y="883.813" style="fill:#78C2FF;" width="193.559" height="19.584"/>
		</g>
		<g>
			<rect x="1007.325" y="1402.123" style="fill:#78C2FF;" width="135.781" height="19.584"/>
		</g>
		<g>
			<rect x="983.206" y="662.612" style="fill:#1487E3;" width="172.99" height="19.584"/>
		</g>
		<g>
			<rect x="691.544" y="1402.123" style="fill:#1487E3;" width="172.99" height="19.584"/>
		</g>
		<g>
			<rect x="1294.751" y="1402.123" style="fill:#1487E3;" width="172.991" height="19.584"/>
		</g>
		<g>
			<rect x="1268.125" y="1254.656" style="fill:#1487E3;" width="172.99" height="19.584"/>
		</g>
		<g>
			<rect x="1219.843" y="883.813" style="fill:#1487E3;" width="172.99" height="19.584"/>
		</g>
		<g>
			<rect x="896.71" y="1254.656" style="fill:#FF8761;" width="37.292" height="19.584"/>
		</g>
		<g>
			<rect x="1284.144" y="662.612" style="fill:#FF8761;" width="172.99" height="19.584"/>
		</g>
		<g>
			<rect x="1086.75" y="883.813" style="fill:#FF8761;" width="101.433" height="19.584"/>
		</g>
		<g>
			<rect x="1007.325" y="1182.012" style="fill:#FF8761;" width="101.433" height="19.582"/>
		</g>
		<g>
			<rect x="1188.183" y="662.612" style="fill:#E0E0E0;" width="63.321" height="19.584"/>
		</g>
		<g>
			<rect x="983.206" y="883.813" style="fill:#E0E0E0;" width="63.321" height="19.584"/>
		</g>
		<g>
			<rect x="582.391" y="736.346" style="fill:#1487E3;" width="99.061" height="19.584"/>
		</g>
		<g>
			<rect x="846.705" y="1107.189" style="fill:#1487E3;" width="78.215" height="19.584"/>
		</g>
		<g>
			<rect x="705.769" y="736.346" style="fill:#1487E3;" width="31.987" height="19.584"/>
		</g>
		<g>
			<rect x="1108.758" y="1328.391" style="fill:#E0E0E0;" width="264.381" height="19.582"/>
		</g>
		<g>
			<rect x="761.256" y="736.346" style="fill:#FF8761;" width="32.64" height="19.584"/>
		</g>
		<g>
			<rect x="1251.504" y="736.346" style="fill:#1487E3;" width="86.495" height="19.584"/>
		</g>
		<g>
			<rect x="1337.999" y="810.079" style="fill:#FF8761;" width="86.495" height="19.584"/>
		</g>
		<g>
			<rect x="1144.935" y="1254.656" style="fill:#FF8761;" width="86.495" height="19.584"/>
		</g>
		<g>
			<rect x="893.231" y="1402.123" style="fill:#FF8761;" width="86.495" height="19.584"/>
		</g>
		<g>
			<rect x="1044.568" y="736.346" style="fill:#1487E3;" width="184.037" height="19.584"/>
		</g>
		<g>
			<rect x="873.264" y="1182.012" style="fill:#1487E3;" width="107.523" height="19.582"/>
		</g>
		<g>
			<rect x="866.35" y="1328.391" style="fill:#1487E3;" width="53.761" height="19.582"/>
		</g>
		<g>
			<rect x="955.135" y="736.346" style="fill:#78C2FF;" width="63.321" height="19.584"/>
		</g>
		<g>
			<rect x="741.998" y="810.079" style="fill:#FF8761;" width="63.321" height="19.584"/>
		</g>
		<g>
			<rect x="754.619" y="1107.189" style="fill:#FF8761;" width="63.321" height="19.584"/>
		</g>
		<g>
			<rect x="820.66" y="736.346" style="fill:#1487E3;" width="110.322" height="19.584"/>
		</g>
		<g>
			<g>
				<g>
					<path style="fill:#323657;" d="M558.152,1478.523c-0.023-0.01-0.05-0.014-0.083-0.006
						C558.421,1478.672,558.471,1478.686,558.152,1478.523z"/>
				</g>
			</g>
		</g>
		<polygon style="fill:#FFFFFF;" points="1342.8,503.191 1374.233,503.191 1364.612,483.236 1333.179,483.236 		"/>
		<polygon style="fill:#FFFFFF;" points="1328.092,503.191 1335.582,503.191 1325.961,483.236 1318.471,483.236 		"/>
		<polygon style="fill:#FFFFFF;" points="1219.493,479.426 1346.771,479.426 1342.547,469.449 1215.27,469.449 		"/>
		
			<rect x="1865.045" y="996.348" transform="matrix(-1 -1.224647e-16 1.224647e-16 -1 3830.1953 1999.7129)" style="fill:#FFFFFF;" width="100.105" height="7.017"/>
		
			<rect x="1865.045" y="1009.572" transform="matrix(-1 -1.224647e-16 1.224647e-16 -1 3830.1953 2048.6465)" style="fill:#FFFFFF;" width="100.105" height="29.502"/>
		
			<rect x="1818.021" y="1048.994" transform="matrix(-1 -1.224647e-16 1.224647e-16 -1 3695.0977 2102.3965)" style="fill:#FFFFFF;" width="59.057" height="4.408"/>
		
			<rect x="1818.021" y="1055.332" transform="matrix(-1 -1.224647e-16 1.224647e-16 -1 3695.0977 2122.6035)" style="fill:#FFFFFF;" width="59.057" height="11.939"/>
		
			<rect x="1847.96" y="951.291" transform="matrix(-1 -1.224647e-16 1.224647e-16 -1 3700.3291 1985.2422)" style="fill:#FFFFFF;" width="4.409" height="82.66"/>
		
			<rect x="567.958" y="388.065" transform="matrix(-1 -1.224647e-16 1.224647e-16 -1 1214.7681 790.4122)" style="fill:#939FC2;" width="78.851" height="14.283"/>
		
			<rect x="567.958" y="381.398" transform="matrix(-1 -1.224647e-16 1.224647e-16 -1 1214.7681 765.4843)" style="fill:#939FC2;" width="78.851" height="2.688"/>
		<g>
			<polygon style="fill:#1487E3;" points="1422.644,1268.381 1527.547,1163.479 1687.259,1163.479 1687.259,1158.256 
				1525.383,1158.256 1418.951,1264.688 			"/>
		</g>
		<g>
			<polygon style="fill:#FF8761;" points="1349.843,669.51 1452.248,567.106 1872.963,567.106 1872.963,561.883 1450.084,561.883 
				1346.15,665.816 			"/>
		</g>
		
			<linearGradient id="SVGID_00000049183704206690913200000006952009626474494599_" gradientUnits="userSpaceOnUse" x1="1019.929" y1="1364.5209" x2="1019.929" y2="2009.0537">
			<stop  offset="0" style="stop-color:#FFC05C"/>
			<stop  offset="1" style="stop-color:#FF3857"/>
		</linearGradient>
		
			<rect x="431.288" y="1497.723" style="fill:url(#SVGID_00000049183704206690913200000006952009626474494599_);" width="1177.283" height="232.918"/>
		<g>
			<polygon style="fill:#78C2FF;" points="699.021,903.559 702.714,899.865 507.021,704.172 136.654,704.172 136.654,709.394 
				504.857,709.394 			"/>
		</g>
		<g>
			<polygon style="fill:#1487E3;" points="1088.956,668.154 1092.649,664.462 927.485,499.299 695.195,499.299 695.195,504.522 
				925.322,504.522 			"/>
		</g>
		
			<linearGradient id="SVGID_00000039849249269594832060000004700257455296527543_" gradientUnits="userSpaceOnUse" x1="1279.2075" y1="1477.9668" x2="1279.2075" y2="1835.2419">
			<stop  offset="0" style="stop-color:#FFC05C"/>
			<stop  offset="1" style="stop-color:#FF3857"/>
		</linearGradient>
		<polygon style="fill:url(#SVGID_00000039849249269594832060000004700257455296527543_);" points="1608.57,1730.641 
			1608.57,1497.723 1180.129,1497.723 949.845,1728.006 		"/>
		<g>
			<g>
				
					<rect x="1444.241" y="1531.131" transform="matrix(-1 -1.224647e-16 1.224647e-16 -1 3006.8975 3069.291)" style="fill:#E2D2CA;" width="118.415" height="7.029"/>
			</g>
			<g>
				<rect x="1536.41" y="1556.453" style="fill:#F2E2D9;" width="10.377" height="319.68"/>
			</g>
			<g>
				
					<rect x="1380.464" y="1529.139" transform="matrix(-1 -1.224647e-16 1.224647e-16 -1 2843.2378 3068.3145)" style="fill:#CCBDB7;" width="82.31" height="10.037"/>
			</g>
			<g>
				
					<rect x="1406.034" y="1443.488" transform="matrix(-1 -1.224647e-16 1.224647e-16 -1 2843.2373 2981.6484)" style="fill:#CCBDB7;" width="31.169" height="94.672"/>
			</g>
			<g>
				
					<rect x="1149.086" y="1538.277" transform="matrix(-1 -1.224647e-16 1.224647e-16 -1 2754.2207 3094.7305)" style="fill:#948A84;" width="456.049" height="18.176"/>
			</g>
			<g>
				<path style="fill:#4AAAF1;" d="M1692.661,1428.262c0,0,4.988,69.947-8.679,78.318c-8.563,5.244-42.699,22.934-41.687,26.25
					s19.274,29.514,19.274,29.514s65.572-43.182,67.686-56.789c2.065-13.295-3.228-102.418-12.239-106.523
					c-6.751-3.074-10.313-0.531-18.821,5.785C1686.256,1413.682,1692.661,1428.262,1692.661,1428.262z"/>
			</g>
			<g>
				<g>
					<g>
						<path style="fill:#EAD8CF;" d="M1573.156,1448.232l-5.779-2.139c0,0,7.207-16.918,10.354-16.506
							c3.624,0.475,8.146,1.67,8.146,1.67L1573.156,1448.232z"/>
					</g>
				</g>
			</g>
			<g>
				<g>
					<g>
						<path style="fill:#DA9B5B;" d="M1571.836,1451.15c0.739-0.549,12.285-22.701,12.285-22.701l24.669,3.354l-13.33,26.236
							L1571.836,1451.15z"/>
					</g>
				</g>
			</g>
			<g>
				<g>
					<g>
						<path style="fill:#424773;" d="M1611.986,1832.484c0,0,2.038,14.152,2.293,16.279c0.255,2.125,22.684-1.252,22.684-1.252
							l1.815-16.85C1638.778,1830.662,1614.789,1830.488,1611.986,1832.484z"/>
					</g>
				</g>
			</g>
			<g>
				<g>
					<g>
						<path style="fill:#292C47;" d="M1614.041,1846.965c0,0-7.105,8.527-13.979,12.244c-6.872,3.719-17.673,5.189-21.736,9.037
							c-2.934,2.779-10.685,14.736,17.859,14.494c28.544-0.24,42.307,1.689,45.365-2.895c3.059-4.586-4.425-33.84-4.425-33.84
							S1630.364,1848.438,1614.041,1846.965z"/>
					</g>
				</g>
			</g>
			<g>
				<g>
					<g>
						<path style="fill:#424773;" d="M1468.293,1832.619c0,0,2.039,14.152,2.294,16.279c0.255,2.125,22.683-1.254,22.683-1.254
							l1.816-16.848C1495.085,1830.797,1471.097,1830.623,1468.293,1832.619z"/>
					</g>
				</g>
			</g>
			<g>
				<g>
					<g>
						<path style="fill:#292C47;" d="M1470.348,1847.098c0,0-7.106,8.529-13.979,12.246s-32.165,6.77-36.229,10.617
							c-2.934,2.779-7.813,13.959,32.351,12.914c28.535-0.742,42.307,1.689,45.365-2.896c3.058-4.584-4.425-33.84-4.425-33.84
							S1487.063,1848.738,1470.348,1847.098z"/>
					</g>
				</g>
			</g>
			<g>
				<g>
					<g>
						<path style="fill:#292C47;" d="M1684.324,1588.006c0,0-81.539,13.797-99.955,16.689
							c-18.417,2.891-118.273,27.74-130.761,35.311c-9.941,6.027,5.213,150.775,8.753,206h39.332l2.852-165.658
							c47.197,1.18,80.877-11.041,115.246-5.82c34.369,5.219,63.023,12.639,84.863-16.656
							C1704.654,1657.871,1705.465,1594.404,1684.324,1588.006z"/>
					</g>
				</g>
			</g>
			<g>
				<g>
					<g>
						<path style="fill:#292C47;" d="M1603.955,1846.139l38.329-2.369l3.735-163.422c20.319,0.508,27.284-0.781,43.727-2.775
							l30.947-71.934c-27.121,5.422-114.019,27.34-125.605,34.367C1585.146,1646.035,1600.415,1790.912,1603.955,1846.139z"/>
					</g>
				</g>
			</g>
			<g>
				<g>
					<g>
						<path style="fill:#EEA886;" d="M1646.789,1282.365c0,0-29.891-8.26-41.295,14.943c-11.403,23.205-6.233,67.193,8.832,71.332
							c15.064,4.139,36.727-0.627,42.981-15.068c6.254-14.441,11.241-34.965,9.745-48.254S1654.727,1285.541,1646.789,1282.365z"/>
					</g>
				</g>
			</g>
			<g>
				<g>
					<g>
						<path style="fill:#EEA886;" d="M1622.137,1364.01c0,0,0.328,17.646-1.618,21.41c-1.944,3.762,41.622,2.816,41.622,2.816
							s-6.865-21.189-2.971-39.244C1663.025,1331.123,1622.137,1364.01,1622.137,1364.01z"/>
					</g>
				</g>
			</g>
			<g>
				<g>
					<g>
						<path style="fill:#3A3F47;" d="M1661.518,1342.311c0,0-2.329,4.734-13.606,3.971c-11.277-0.766-26.151-14.369-30.938-15.586
							c-4.787-1.215-5.072-3.939-5.072-3.939l-2.533,4.504l-4.906,0.746c0,0,3.334-13.635-3.93-18.436
							c-7.263-4.803,3.271-43.471,40.044-34.145c0,0,28.064,5.141,28.44,20.811
							C1669.392,1315.908,1666.965,1334.01,1661.518,1342.311z"/>
					</g>
				</g>
			</g>
			<g>
				<g>
					<g>
						<path style="fill:#4AAAF1;" d="M1618.229,1384.967c0,0,0.122-7.189,3.38-7.879c3.259-0.688,34.247-4.951,38.247-3.379
							l1.715,9.492C1661.57,1383.201,1653.865,1387.943,1618.229,1384.967z"/>
					</g>
				</g>
			</g>
			<g>
				<g>
					<g>
						<path style="fill:#EEA886;" d="M1609.262,1323.543c0.836-5.893,7.534-12.66,11.37-3.482
							c3.836,9.176-2.589,22.539-6.894,21.822C1609.436,1341.168,1608.127,1331.535,1609.262,1323.543z"/>
					</g>
				</g>
			</g>
			<g>
				<g>
					<g>
						<path style="fill:#323657;" d="M1488.431,1469.895c0.015-0.008,0.032-0.01,0.053-0.006
							C1488.26,1469.988,1488.229,1469.996,1488.431,1469.895z"/>
					</g>
				</g>
			</g>
			<g>
				<g>
					<g>
						<path style="fill:#3A3F47;" d="M1655.508,1286.574c0,0,36.445-1.717,6.361,55.178L1655.508,1286.574z"/>
					</g>
				</g>
			</g>
			<g>
				<g>
					<polygon style="fill:#918783;" points="1736.71,1865.525 1733.999,1873.15 1619.447,1837.658 1624.938,1822.215 					"/>
				</g>
			</g>
			<g>
				<g>
					
						<rect x="1615.518" y="1707.684" transform="matrix(-1 -1.224647e-16 1.224647e-16 -1 3244.0557 3539.9082)" style="fill:#918783;" width="13.021" height="124.541"/>
				</g>
			</g>
			<g>
				<g>
					
						<rect x="1583.631" y="1701.066" transform="matrix(-1 -1.224647e-16 1.224647e-16 -1 3244.0557 3409.4707)" style="fill:#5E5854;" width="76.794" height="7.338"/>
				</g>
			</g>
			<g>
				<g>
					<polygon style="fill:#918783;" points="1506.34,1865.525 1509.051,1873.15 1623.602,1837.658 1618.568,1821.244 					"/>
				</g>
			</g>
			<g>
				<g>
					<polygon style="fill:#918783;" points="1587.049,1872.336 1587.049,1881.207 1623.602,1837.658 1618.568,1821.244 					"/>
				</g>
			</g>
			<g>
				<g>
					<path style="fill:#BFB2AC;" d="M1495.634,1876.133c0,5.912,4.793,10.705,10.706,10.705c5.912,0,10.705-4.793,10.705-10.705
						s-4.793-10.705-10.705-10.705C1500.427,1865.428,1495.634,1870.221,1495.634,1876.133z"/>
				</g>
			</g>
			<g>
				<g>
					<path style="fill:#BFB2AC;" d="M1586.139,1876.133c0,5.912,4.793,10.705,10.706,10.705c5.912,0,10.705-4.793,10.705-10.705
						s-4.793-10.705-10.705-10.705C1590.932,1865.428,1586.139,1870.221,1586.139,1876.133z"/>
				</g>
			</g>
			<g>
				<g>
					<path style="fill:#BFB2AC;" d="M1726.005,1876.133c0,5.912,4.793,10.705,10.705,10.705c5.913,0,10.706-4.793,10.706-10.705
						s-4.793-10.705-10.706-10.705C1730.798,1865.428,1726.005,1870.221,1726.005,1876.133z"/>
				</g>
			</g>
			<g>
				<path style="fill:#E2D2CA;" d="M1544.283,1701.066h154.482c7.579,0,13.723-6.145,13.723-13.723v-0.354
					c0-7.578-6.144-13.723-13.723-13.723h-154.482c-7.578,0-13.723,6.145-13.723,13.723v0.354
					C1530.561,1694.922,1536.705,1701.066,1544.283,1701.066z"/>
			</g>
			<g>
				
					<rect x="1207.434" y="1556.453" transform="matrix(-1 -1.224647e-16 1.224647e-16 -1 2425.2441 3432.5859)" style="fill:#F2E2D9;" width="10.376" height="319.68"/>
			</g>
			<g>
				<path style="fill:#F2E2D9;" d="M1300.736,1489.092h241.766c7.56,0,13.689-6.129,13.689-13.688v-162.49
					c0-7.561-6.13-13.689-13.689-13.689h-241.766c-7.561,0-13.689,6.129-13.689,13.689v162.49
					C1287.047,1482.963,1293.175,1489.092,1300.736,1489.092z"/>
			</g>
			<g>
				
					<rect x="1297.587" y="1309.488" transform="matrix(-1 -1.224647e-16 1.224647e-16 -1 2843.2378 2768.8262)" style="fill:#F5F7FF;" width="248.063" height="149.85"/>
			</g>
			<g>
				<path style="fill:#918681;" d="M1412.937,1472.834c0,4.795,3.888,8.682,8.682,8.682c4.795,0,8.682-3.887,8.682-8.682
					s-3.887-8.682-8.682-8.682C1416.824,1464.152,1412.937,1468.039,1412.937,1472.834z"/>
			</g>
			<g>
				<path style="fill:#1D3B54;" d="M1365.901,1538.52v-3.379c0,0,4.75-21.016,38.349-21.016s32.919,24.395,32.919,24.395H1365.901z"
					/>
			</g>
			<g>
				<g>
					<path style="fill:#EEA886;" d="M1437.576,1517.248c0,0-7.299-0.566-9.974-2.18c-2.674-1.615-18.673-12.375-22.431-10.652
						c-3.759,1.723-28.768,9.385-27.899,13.041c0.868,3.658,3.182,3.305,4.947,2.658c1.765-0.648,19.925-4.459,21.527-3.816
						c0,0-17.838,6.508-17.91,11.254c-0.072,4.748,3.733,5.906,5.424,7.701c1.692,1.795,3.723,6.256,8.32,6.598
						c4.597,0.342,27.027-7.463,31.645-7.818c4.618-0.357,13.164,0.285,13.745-0.467
						C1445.551,1532.814,1437.576,1517.248,1437.576,1517.248z"/>
				</g>
			</g>
			<g>
				<g>
					<g>
						<path style="fill:#4AAAF1;" d="M1570.46,1394.928c23.272-4.09,47.769-9.963,47.769-9.963l43.344-1.766
							c0,0,39.778,8.758,55.444,15.832c1.486,0.672,1.493,35.488,5.571,44.619l-12.988,27.4c0,0-7.504,54.279-9.061,78.42
							c-0.715,11.082,2.021,107.104,2.021,107.104s-3.894,1.92-33.475,5.182c-29.582,3.26-103.492-1.18-103.958-4.672
							c-0.468-3.496,14.313-130.098,14.968-136.654c1.004-10.063-2.906-56.559-2.906-56.559
							c-5.573,7.486-19.781,41.295-34.592,57.381c-8.713,9.463-51.85,15.264-59.98,15.535c-17.699,0.59-49.989,4.113-50.932,2.393
							c-0.753-1.033-2.813-28.66-0.789-29.334c1.772-0.592,61.729-4.043,77.09-12.193c5.619-2.98,22.418-39.613,22.418-39.613
							S1557.621,1400.697,1570.46,1394.928z"/>
					</g>
				</g>
			</g>
			<g>
				<path style="fill:#E2D2CA;" d="M1655.876,1653.799h72.763c14.553,0,26.35-11.797,26.35-26.348v-121.066
					c0-14.553-11.797-26.35-26.35-26.35h-72.763c-14.552,0-26.349,11.797-26.349,26.35v121.066
					C1629.527,1642.002,1641.324,1653.799,1655.876,1653.799z"/>
			</g>
			<g>
				<path style="fill:#E2D2CA;" d="M1651.76,1694.146c18.493,0,33.496-6.211,44.594-18.465
					c25.08-27.688,20.573-76.363,20.369-78.422c-0.381-3.836-3.805-6.641-7.635-6.258c-3.834,0.381-6.636,3.797-6.258,7.631
					c0.054,0.555,4.05,44.676-16.851,67.707c-8.454,9.318-19.647,13.846-34.22,13.846c-3.855,0-6.98,3.127-6.98,6.98
					C1644.779,1691.021,1647.904,1694.146,1651.76,1694.146z"/>
			</g>
			<g>
				<g>
					<g>
						<path style="fill:#DFE1E8;" d="M1457.361,1329.34h68.739c1.084,0,1.963-0.877,1.963-1.961v-3.992
							c0-1.084-0.879-1.963-1.963-1.963h-68.739c-1.083,0-1.962,0.879-1.962,1.963v3.992
							C1455.399,1328.463,1456.278,1329.34,1457.361,1329.34z"/>
					</g>
				</g>
			</g>
			<g>
				<g>
					<g>
						<path style="fill:#DFE1E8;" d="M1457.361,1346.322h68.739c1.084,0,1.963-0.879,1.963-1.963v-3.992
							c0-1.084-0.879-1.963-1.963-1.963h-68.739c-1.083,0-1.962,0.879-1.962,1.963v3.992
							C1455.399,1345.443,1456.278,1346.322,1457.361,1346.322z"/>
					</g>
				</g>
			</g>
			<g>
				<g>
					<g>
						<path style="fill:#DFE1E8;" d="M1461.998,1447.402h59.467c3.645,0,6.599-2.953,6.599-6.598v-76.326
							c0-3.645-2.954-6.598-6.599-6.598h-59.467c-3.645,0-6.599,2.953-6.599,6.598v76.326
							C1455.399,1444.449,1458.354,1447.402,1461.998,1447.402z"/>
					</g>
				</g>
			</g>
			<g>
				<g>
					<g>
						<path style="fill:#DFE1E8;" d="M1321.774,1447.402h108.509c5.769,0,10.445-4.676,10.445-10.445v-105.088
							c0-5.77-4.676-10.445-10.445-10.445h-108.509c-5.769,0-10.446,4.676-10.446,10.445v105.088
							C1311.328,1442.727,1316.005,1447.402,1321.774,1447.402z"/>
					</g>
				</g>
			</g>
		</g>
		<g>
			<g>
				<rect x="1644.723" y="426.852" style="fill:#609AE8;" width="37.142" height="112.811"/>
			</g>
			<g>
				<path style="fill:#9CC7FF;" d="M1807.338,481.193h-288.09c-9.008,0-16.312-7.303-16.312-16.313V271.259
					c0-9.009,7.304-16.311,16.312-16.311h288.09c9.01,0,16.313,7.303,16.313,16.311v193.622
					C1823.65,473.891,1816.348,481.193,1807.338,481.193z"/>
			</g>
			<g>
				<rect x="1515.497" y="267.855" style="fill:#FFFFFF;" width="295.593" height="177.883"/>
			</g>
			
				<rect x="1579.747" y="535.404" transform="matrix(-1 -1.224647e-16 1.224647e-16 -1 3326.5869 1079.3242)" style="fill:#9CC7FF;" width="167.093" height="8.516"/>
			
				<rect x="1700.4" y="321.841" transform="matrix(-1 -1.224647e-16 1.224647e-16 -1 3495.8047 753.5088)" style="fill:#D7D7E6;" width="95.004" height="109.827"/>
			
				<rect x="1587.834" y="321.841" transform="matrix(-1 -1.224647e-16 1.224647e-16 -1 3273.5527 657.3721)" style="fill:#D7D7E6;" width="97.885" height="13.691"/>
			
				<rect x="1587.834" y="349.952" transform="matrix(-1 -1.224647e-16 1.224647e-16 -1 3273.5527 713.5947)" style="fill:#D7D7E6;" width="97.885" height="13.691"/>
			
				<rect x="1587.834" y="375.192" transform="matrix(-1 -1.224647e-16 1.224647e-16 -1 3273.5527 806.8604)" style="fill:#D7D7E6;" width="97.885" height="56.476"/>
			
				<rect x="1532.469" y="318.717" transform="matrix(-1 -1.224647e-16 1.224647e-16 -1 3106.4697 750.3848)" style="fill:#D7D7E6;" width="41.532" height="112.951"/>
			
				<rect x="1533.436" y="281.555" transform="matrix(-1 -1.224647e-16 1.224647e-16 -1 3329.8057 591.3145)" style="fill:#D7D7E6;" width="262.935" height="28.205"/>
		</g>
		<g>
			<path style="fill:#9CC7FF;" d="M744.051,474.767h131.614c8.62,0,15.608-6.987,15.608-15.608V260.182
				c0-8.619-6.988-15.607-15.608-15.607H744.051c-8.62,0-15.608,6.988-15.608,15.607v198.977
				C728.443,467.779,735.431,474.767,744.051,474.767z"/>
			
				<rect x="737.442" y="255.215" transform="matrix(-1 -1.224647e-16 1.224647e-16 -1 1619.7163 699.3418)" style="fill:#FFFFFF;" width="144.831" height="188.912"/>
			
				<rect x="747.176" y="268.801" transform="matrix(-1 -1.224647e-16 1.224647e-16 -1 1620.4023 562.749)" style="fill:#D7D7E6;" width="126.051" height="25.147"/>
			
				<rect x="821.344" y="303.697" transform="matrix(-1 -1.224647e-16 1.224647e-16 -1 1694.5703 730.6602)" style="fill:#D7D7E6;" width="51.883" height="123.266"/>
			
				<rect x="747.176" y="303.697" transform="matrix(-1 -1.224647e-16 1.224647e-16 -1 1558.8823 621.6719)" style="fill:#D7D7E6;" width="64.531" height="14.277"/>
			
				<rect x="747.176" y="328.377" transform="matrix(-1 -1.224647e-16 1.224647e-16 -1 1558.8823 671.0293)" style="fill:#D7D7E6;" width="64.531" height="14.275"/>
			
				<rect x="747.176" y="353.055" transform="matrix(-1 -1.224647e-16 1.224647e-16 -1 1558.8823 720.3867)" style="fill:#D7D7E6;" width="64.531" height="14.277"/>
			
				<rect x="747.176" y="377.733" transform="matrix(-1 -1.224647e-16 1.224647e-16 -1 1558.8823 804.6963)" style="fill:#D7D7E6;" width="64.531" height="49.229"/>
		</g>
		<g>
			<path style="fill:#609AE8;" d="M195.312,672.68h253.83V511.762c0-6.316-5.121-11.435-11.436-11.435H206.748
				c-6.316,0-11.436,5.119-11.436,11.435V672.68z"/>
			
				<rect x="202.395" y="509.498" transform="matrix(-1 -1.224647e-16 1.224647e-16 -1 644.4541 1173.0039)" style="fill:#FFFFFF;" width="239.663" height="154.008"/>
			<path style="fill:#9CC7FF;" d="M183.07,672.68h278.315v2.674c0,5.518-4.473,9.99-9.99,9.99H193.06c-5.517,0-9.99-4.473-9.99-9.99
				V672.68z"/>
			
				<rect x="212.418" y="520.691" transform="matrix(-1 -1.224647e-16 1.224647e-16 -1 644.2066 1062.7969)" style="fill:#D7D7E6;" width="219.371" height="21.414"/>
			
				<rect x="356.576" y="554.203" transform="matrix(-1 -1.224647e-16 1.224647e-16 -1 788.3648 1206.5166)" style="fill:#D7D7E6;" width="75.212" height="98.11"/>
			
				<rect x="271.726" y="554.203" transform="matrix(-1 -1.224647e-16 1.224647e-16 -1 618.6646 1206.5166)" style="fill:#D7D7E6;" width="75.212" height="98.11"/>
			
				<rect x="212.418" y="554.203" transform="matrix(-1 -1.224647e-16 1.224647e-16 -1 470.7007 1122.4248)" style="fill:#D7D7E6;" width="45.865" height="14.019"/>
			
				<rect x="212.418" y="575.875" transform="matrix(-1 -1.224647e-16 1.224647e-16 -1 470.7007 1165.7686)" style="fill:#D7D7E6;" width="45.865" height="14.019"/>
			
				<rect x="212.418" y="597.547" transform="matrix(-1 -1.224647e-16 1.224647e-16 -1 470.7007 1249.8604)" style="fill:#D7D7E6;" width="45.865" height="54.767"/>
		</g>
		<g>
			<path style="fill:#9CC7FF;" d="M1575.557,1127.496l80.197,0.338c6.721,0.029,12.19-5.396,12.219-12.115l0.705-167.379
				c0.027-6.721-5.396-12.191-12.117-12.219l-80.197-0.338c-6.72-0.027-12.19,5.396-12.219,12.117l-0.704,167.379
				C1563.412,1121.998,1568.837,1127.469,1575.557,1127.496z"/>
			<path style="fill:#FFFFFF;" d="M1583.768,1099.049l64.016,0.27c6.279,0.027,11.393-5.043,11.419-11.322l0.532-126.523
				c0.026-6.281-5.043-11.393-11.323-11.42l-64.016-0.269c-6.28-0.025-11.393,5.043-11.419,11.324l-0.532,126.523
				C1572.418,1093.91,1577.487,1099.023,1583.768,1099.049z"/>
			<path style="fill:#787878;" d="M1605.366,942.148l22.14,0.092c0.905,0.004,1.637,0.742,1.633,1.648l0,0
				c-0.004,0.904-0.741,1.637-1.646,1.633l-22.14-0.094c-0.905-0.004-1.637-0.74-1.633-1.646l0,0
				C1603.724,942.875,1604.461,942.144,1605.366,942.148z"/>
			<path style="fill:#787878;" d="M1608.632,1112.189c-0.017,3.914,3.144,7.102,7.059,7.117c3.915,0.018,7.103-3.143,7.118-7.059
				c0.018-3.914-3.144-7.102-7.059-7.119C1611.836,1105.113,1608.648,1108.273,1608.632,1112.189z"/>
			
				<rect x="1583.133" y="959.184" transform="matrix(-1 -1.224647e-16 1.224647e-16 -1 3232.7734 1945.1797)" style="fill:#D7D7E6;" width="66.508" height="26.813"/>
			
				<rect x="1583.133" y="992.959" transform="matrix(-1 -1.224647e-16 1.224647e-16 -1 3232.7734 1997.0605)" style="fill:#D7D7E6;" width="66.508" height="11.143"/>
			
				<rect x="1583.133" y="1011.066" transform="matrix(-1 -1.224647e-16 1.224647e-16 -1 3232.7734 2033.2754)" style="fill:#D7D7E6;" width="66.508" height="11.143"/>
			
				<rect x="1583.133" y="1029.174" transform="matrix(-1 -1.224647e-16 1.224647e-16 -1 3232.7734 2117.8906)" style="fill:#D7D7E6;" width="66.508" height="59.543"/>
		</g>
		<g>
			<path style="fill:#EEA886;" d="M1948.627,1281.902c0,0-2.469-9.363,0.161-13.428c2.63-4.063,4.183-10.598,4.564-12.668
				c0.511-2.77,5.267-11.129,1.755-11.322c-3.512-0.195-8.474,13.496-10.078,16.24c-1.604,2.744-5.98-9.271-8.65-10.611
				s-23.784,9.65-19.748,17.424c4.035,7.773,14.004,12.752,14.415,14.295s2.69,5.801,2.69,5.801L1948.627,1281.902z"/>
			<path style="fill:#EEA886;" d="M1937.793,1251.65c0,0-14.098-22.773-16.455-23.342c-2.357-0.57-3.689,0.426-2.471,2.621
				c1.22,2.195,12.91,22.479,12.91,22.479s-21.74-23.57-23.51-24.467c-1.035-0.525-3.712,1.266-3.18,2.516
				s20.534,26.01,20.534,26.01s-20.345-21.967-22.116-22.25c-1.549-0.248-3.664,1.947-2.284,3.693
				c1.379,1.746,18.928,23.344,18.928,23.344s-15.972-14.932-17.736-14.281c-1.079,0.398-3.452,1.848,0.812,5.559
				c4.264,3.709,13.229,13.629,13.229,13.629L1937.793,1251.65z"/>
			
				<linearGradient id="SVGID_00000117656310921002630890000015907280732642813093_" gradientUnits="userSpaceOnUse" x1="574.8675" y1="1201.5635" x2="1215.2668" y2="1201.5635" gradientTransform="matrix(1 0 0 1 1104.2604 0)">
				<stop  offset="0" style="stop-color:#343D4F"/>
				<stop  offset="0.4581" style="stop-color:#30394C"/>
				<stop  offset="0.9513" style="stop-color:#232D41"/>
				<stop  offset="1" style="stop-color:#212B40"/>
			</linearGradient>
			<path style="opacity:0.68;fill:url(#SVGID_00000117656310921002630890000015907280732642813093_);" d="M2297.025,1270.941
				h-595.396c-12.427,0-22.501-10.074-22.501-22.502v-93.754c0-12.426,10.074-22.5,22.501-22.5h595.396
				c12.428,0,22.502,10.074,22.502,22.5v93.754C2319.527,1260.867,2309.453,1270.941,2297.025,1270.941z"/>
			<g>
				<g>
					<rect x="1713.375" y="1174.758" style="fill:#E0E0E0;" width="103.699" height="10.617"/>
				</g>
				<g>
					<rect x="1837.247" y="1174.758" style="fill:#E0E0E0;" width="73.616" height="10.617"/>
				</g>
				<g>
					<rect x="1837.247" y="1214.732" style="fill:#E0E0E0;" width="68.739" height="10.617"/>
				</g>
				<g>
					<rect x="2206.004" y="1174.758" style="fill:#78C2FF;" width="73.615" height="10.617"/>
				</g>
				<g>
					<rect x="1930.682" y="1174.758" style="fill:#1487E3;" width="93.789" height="10.617"/>
				</g>
				<g>
					<rect x="2093.84" y="1174.758" style="fill:#FFC055;" width="93.789" height="10.617"/>
				</g>
				<g>
					<rect x="2041.813" y="1174.758" style="fill:#E0E0E0;" width="34.33" height="10.617"/>
				</g>
				<g>
					<rect x="1713.375" y="1214.732" style="fill:#78C2FF;" width="53.707" height="10.617"/>
				</g>
				<g>
					<rect x="1780.266" y="1214.732" style="fill:#1487E3;" width="17.343" height="10.617"/>
				</g>
				<g>
					<rect x="2136.281" y="1214.732" style="fill:#E0E0E0;" width="143.338" height="10.617"/>
				</g>
				<g>
					<rect x="1810.35" y="1214.732" style="fill:#FFC455;" width="17.695" height="10.617"/>
				</g>
				<g>
					<rect x="2076.144" y="1214.732" style="fill:#1487E3;" width="46.895" height="10.617"/>
				</g>
				<g>
					<rect x="1963.951" y="1214.732" style="fill:#78C2FF;" width="99.778" height="10.617"/>
				</g>
				<g>
					<rect x="1915.464" y="1214.732" style="fill:#E0E0E0;" width="34.33" height="10.617"/>
				</g>
			</g>
			<path style="fill:#202338;" d="M1932.066,1753.383c0,0-13.541,13.594-25.182,15.059c-11.641,1.463-25.148,5.84-26.731,14.613
				s34.483,18.092,48.69,11.23c21.202-10.24,27.358-6.17,30.588-12.449c3.229-6.277,2.626-27.949,3.121-30.029
				C1963.166,1749.236,1932.066,1753.383,1932.066,1753.383z"/>
			<path style="fill:#202338;" d="M2171.221,1714.924c0,0-3.924,18.6-12.551,25.734c-8.628,7.133-17.262,17.73-14.029,26.131
				c3.233,8.398,33.998,7.406,45.004-14.807c6.953-14.033,15.029-16.469,14.404-23.535s-11.375-22.195-12.045-24.248
				C2191.176,1701.664,2171.221,1714.924,2171.221,1714.924z"/>
			<path style="fill:#1C4054;" d="M2023.547,1448.65c0,0-46.653,96.633-57.188,121.141c-9.761,22.705-19.8,63.486-21.144,79.436
				c-1.69,20.059-20.9,101.639-22.084,107.504s40.666,2.342,40.666,2.342s36.463-138.98,46.119-158.691
				c6.443-13.152,54.865-100.697,59.144-95.266s30.307,70.844,33.476,86.533c3.168,15.688,62.789,132.373,62.789,132.373
				s27.838-2.037,33.318-12.641c0,0-44.473-118.254-49.413-139.777c-2.515-10.951-11.728-79.951-23.341-132.85
				C2119.917,1411.549,2023.547,1448.65,2023.547,1448.65z"/>
			<path style="fill:#DCE6FA;" d="M2141.743,1301.484c0,0-16.042,48.27-15.683,59.76
				C2126.42,1372.732,2117.164,1305.068,2141.743,1301.484z"/>
			<g>
				<g>
					<g>
						<g>
							<path style="fill:#DCE6FA;" d="M2027.836,1319.322c0,0-1.989,6.67-5.761,14.689v0.004c-1.38,2.932-2.997,6.041-4.843,9.07
								c-0.323,0.529-0.653,1.061-0.99,1.584c-1.309,2.037-2.721,4.016-4.238,5.855c-4.768,5.797-10.543,10.213-17.232,10.707
								c-13.71,1.012-62.963-74.275-62.963-74.275l23.525-10.689c0,0,31.174,44.994,36.014,42.525
								c4.843-2.475,9.848-20.748,9.848-20.748c5.726-3.158,14.463,5.586,20.356,12.807c0.384,0.469,0.753,0.932,1.111,1.387
								C2025.764,1316.16,2027.836,1319.322,2027.836,1319.322z"/>
						</g>
					</g>
				</g>
			</g>
			<g>
				<g>
					<g>
						<g>
							<path style="fill:#DCE6FA;" d="M2128.747,1446.488c-26.662,23.873-111.847,15.967-111.847,15.967
								c1.232-2.947,9.864-91.758,6.846-111.826c-3.022-20.066-1.313-37.113-3.986-37.889c-2.675-0.773-20.991-7.17-20.991-7.17
								s9.744-30.973,13.824-37.688c4.076-6.715,33.252-16.533,33.252-16.533s22.654-8.121,46.688-5.281
								c40.146,4.746,44.969,16.564,44.969,16.564l-9.324,59.637c0,0-0.008,0.223-0.025,0.643c-0.047,1.338-0.166,4.682-0.33,9.297
								c-0.678,19.166-2.111,60.215-2.313,69.998C2125.19,1417.926,2128.747,1446.488,2128.747,1446.488z"/>
						</g>
					</g>
				</g>
			</g>
			<g>
				<g>
					<g>
						<g>
							<path style="fill:#EEA987;" d="M2099.16,1247.15c-1.648,3.027-3.398,5.66-5.174,7.959
								c-12.533,16.16-27.07,15.586-27.07,15.586c-8.892-0.779-13.618-6.529-16.097-11.703c-2.146-4.471-2.593-8.508-2.593-8.508
								l5.289-1.902c0.421-1.355,0.664-3.246,0.779-5.365c0.076-1.139,0.102-2.338,0.114-3.564c0-1.061-0.013-2.135-0.038-3.182
								c-0.014-0.422-0.025-0.844-0.039-1.252c-0.166-4.496-0.511-8.24-0.511-8.24s38.03-20.555,34.927-6.055
								c-1.418,6.631-1.188,11.83-0.242,15.662c1.123,4.574,3.283,7.205,4.918,7.996
								C2097.039,1246.32,2099.16,1247.15,2099.16,1247.15z"/>
						</g>
					</g>
				</g>
			</g>
			<path style="fill:#EEA886;" d="M1989.91,1276.451c0,0-2.091-1.873-2.33-4.117c-0.413-3.875,3.46-8.859-0.987-12.381
				c-4.448-3.523-20.392,7.223-22.021,10.551c-1.63,3.33,2.74,9.834,12.995,16.059
				C1987.822,1292.789,1989.91,1276.451,1989.91,1276.451z"/>
			<path style="fill:#EEA886;" d="M1987.904,1261.352c0,0-3.705-7.461-8.91-15.246c-4.565-6.832-10.984-14.074-12.842-12.828
				c-2.54,1.701,3.248,6.809,7.289,13.887c3.721,6.516,1.824,5.865,1.824,5.865s0.551,0.156-4.976-6.145
				c-5.942-6.773-13.209-13.961-14.886-12.459c-1.053,0.941-1.275,0.957,0.45,3.768c-1.362-1.4-1.968-1.229-2.651-0.719
				c-3.535,2.635,3.529,13.947,6.336,18.438c-2.18-3.436-4.171-5.723-5.287-2.789c-1.278,3.354,9.48,18.891,12.762,24.828
				C1970.593,1284.428,1987.904,1261.352,1987.904,1261.352z"/>
			<g>
				<path style="fill:#DCE6FA;" d="M2140.85,1308.445c17.23-20.979-4.093-46.977-4.093-46.977
					c-12.61-10.744-40.202,34.338-43.679,38.748c-3.479,4.412-29.871,27.998-37.238,35.961
					c-3.759,4.063-19.557-13.268-26.799-20.174c-4.35-4.148-38.271-43.938-38.271-43.938s-23.353,16.869-21.391,15.443
					c1.961-1.426,69.14,86.543,81.607,87.205C2050.986,1374.715,2099.236,1359.111,2140.85,1308.445z"/>
			</g>
			<path style="fill:#89909C;" d="M2017.232,1343.086c-0.323,0.529-0.653,1.061-0.99,1.584c-1.309,2.037-2.721,4.016-4.238,5.855
				c-3.24-3.869-15.49-31.539-15.681-31.973L2017.232,1343.086z"/>
			<path style="fill:#89909C;" d="M2121.918,1328.889c0,0-21.602,19.373-33.33,26.533c-11.729,7.162-31.301,16.92-33.485,17.764
				C2055.103,1373.186,2106.938,1363.072,2121.918,1328.889z"/>
			<g>
				<path style="fill:#EEA886;" d="M2033.651,1173.891c0,0-8.258,15.311-4.165,17.691c3.382,1.967-3.962,16.99-4.923,19.445
					s6.126,4.238,7.631,5.818s5.968,21.02,11.804,21.605s32.135-8.559,39.295-16.004c7.161-7.445,13.037-41.076,8.257-55.262
					S2048.226,1147.146,2033.651,1173.891z"/>
			</g>
			<g>
				<path style="fill:#252E3B;" d="M2032.004,1177.209c0,0-8.43-16.533,6.881-28.799c15.312-12.266,43.545,9.26,46.727,10.082
					c3.182,0.82,21.236,2.061,12.12,33.76c-7.827,27.221-8.921,28.367-8.921,28.367s-5.842-15.77-9.152-18.174
					c-5.171-3.754-16.506-2.852-16.506-2.852s5.4-14.34-3.041-16.371C2051.671,1181.193,2040.543,1174.039,2032.004,1177.209z"/>
			</g>
			<g>
				<path style="fill:#EEA886;" d="M2072.144,1191.383c0.745-1.967,3.151-10.422,10.406-5.457
					c7.254,4.965-4.521,20.898-5.784,21.104C2075.501,1207.234,2065.879,1207.934,2072.144,1191.383z"/>
			</g>
			<path style="fill:#A77860;" d="M2082.527,1223.186c0,0-6.184,12.199-28.232,20.031c0.076-1.139,0.102-2.338,0.114-3.564
				c0-1.061-0.013-2.135-0.038-3.182C2054.371,1236.471,2071.374,1231.82,2082.527,1223.186z"/>
		</g>
		<g>
			<path style="fill:#EEA886;" d="M549.197,1423.824c0,0,8.802,3.914,12.975,2.139c4.174-1.777,10.628-2.119,12.664-2.125
				c2.723-0.006,11.244-3.045,11.096,0.283c-0.147,3.33-13.835,5.652-16.636,6.691c-2.802,1.037,8.38,7.193,9.419,9.928
				c1.039,2.734-11.581,20.68-18.7,15.566c-7.119-5.113-10.974-15.32-12.424-15.969s-5.344-3.514-5.344-3.514L549.197,1423.824z"/>
			<path style="fill:#EEA886;" d="M577.365,1439.15c0,0,20.64,17.117,20.964,19.426c0.325,2.311-0.763,3.391-2.766,1.873
				c-2.003-1.52-20.469-15.951-20.469-15.951s20.682,24.426,21.378,26.238c0.408,1.063-1.575,3.27-2.731,2.557
				c-1.155-0.713-23.15-23.709-23.15-23.709s19.265,22.842,19.371,24.553c0.092,1.496-2.228,3.107-3.782,1.514
				c-1.555-1.592-20.731-21.746-20.731-21.746s12.892,17.537,12.096,19.082c-0.486,0.945-2.113,2.926-5.288-1.709
				c-3.175-4.635-11.895-14.74-11.895-14.74L577.365,1439.15z"/>
			<path style="fill:#EBEBEB;" d="M406.952,1795.041c0,0-0.803,28.043,3.201,29.73c4.005,1.688,19.161-8.064,25.846-17.709
				c6.685-9.643-8.376-32.088-10.848-44.471c-1.035-5.186-12.812-14.512-18.555-11.838c-5.743,2.672-9.935,9.52-9.935,9.52
				S411.273,1770.285,406.952,1795.041z"/>
			<g>
				<path style="fill:#DE9673;" d="M396.661,1760.273c0,0,4.973,9.568,7.53,16.994c2.556,7.428,3.035,27.988,4.646,29.416
					c1.611,1.428,14.311-4.98,16.006-12.668c1.695-7.689-3.455-23.059-8.358-31.139c-4.903-8.08-9.89-12.123-9.89-12.123
					S397.938,1752.436,396.661,1760.273z"/>
			</g>
			<polygon style="fill:#EBEBEB;" points="425.151,1762.592 438.798,1782.51 436.213,1784.281 425.665,1768.885 			"/>
			<path style="fill:#DE9673;" d="M347.644,1580.07c0,0,7.778,41.283,7.778,51.156c0,9.871,2.692,26.025,8.975,37.992
				c6.282,11.967,33.85,93.719,36.243,103.242c2.394,9.521,4.442,18.516,4.442,18.516s13.761-6.283,13.761-15.258
				s-11.966-83.166-14.061-97.824c-2.094-14.658-19.445-89.748-19.445-89.748L347.644,1580.07z"/>
			<path style="fill:#EEA886;" d="M391.62,1577.377c0,0-2.693,34.404-2.393,43.379c0.299,8.975,4.487,29.316,4.487,34.701
				s0.004,116.957-4.46,130.42c-4.464,13.461,12.537,4.201,12.537,4.201s29.617-73.387,29.617-104.004s-3.59-45.873-1.496-65.318
				c2.094-19.445,15.257-45.174,15.257-45.174L391.62,1577.377z"/>
			<path style="fill:#EEA886;" d="M386.756,1126.773c0,0-27.524,27.723-18.15,63.424c9.374,35.701,24.437,35.9,41.038,20.543
				c16.603-15.357,26.376-31.512,28.57-49.463C440.408,1143.328,411.887,1102.041,386.756,1126.773z"/>
			<path style="fill:#EEA886;" d="M381.371,1245.844c0,0,4.081-9.338,6.941-19.854c0.505-1.852,0.971-3.742,1.371-5.625
				c1.404-6.615,1.978-13.131,0.464-17.602c-4.388-12.965,27.524-3.99,27.524-3.99s-6.183,34.307,0,45.873
				C423.853,1256.215,381.371,1245.844,381.371,1245.844z"/>
			<path style="fill:#20477A;" d="M436.419,1411.785c0,0,19.819,29.176,24.007,55.203c4.188,26.025-3.687,64.764-6.942,78.965
				c-2.854,12.457-7.118,51.168-7.418,55.357c0,0-62.225,16.154-102.911,3.289c0,0-6.303-63.912-8.697-87.547
				c-2.393-23.633,14.202-103.473,14.202-103.473L436.419,1411.785z"/>
			<path style="fill:#DCE6FA;" d="M554.758,1425.348l-11.165,12.621c0,0-66.714-54.148-69.706-61.328
				c-2.992-7.178-25.594-47.598-26.491-51.787c0,0-4.328,11.191-7.924,22.088c-1.496,4.531-3.437,12.775-4.316,16.379
				c-2.992,12.264-3.324,31.912,1.263,48.465c0,0-54.05,20.145-87.757,1.795c0,0,3.59-29.318-1.795-48.266
				c-5.385-18.947-33.507-84.965-33.507-84.965s14.958-27.725,30.516-33.109c15.557-5.385,33.308-9.408,33.308-9.408h36.874
				c0,0,24.273,6.32,29.704,8.035c9.711,3.068,18.758,15.391,20.553,26.459c1.796,11.068,27.226,86.666,30.217,88.76
				S554.758,1425.348,554.758,1425.348z"/>
			<path style="fill:#EEA886;" d="M336.229,1389.381c0,0,23.934,0.932,27.657,0c3.723-0.93,28.559-11.701,30.05-22.338
				c1.492-10.639-57.707,9.535-57.707,9.535V1389.381z"/>
			<path style="fill:#FFFFFF;" d="M375.211,1819.816c0,0-18.497,21.574-16.417,25.453c2.079,3.881,20.228,5.855,31.637,2.518
				c11.408-3.338,13.844-30.609,19.786-41.936c2.487-4.742-0.847-19.592-7.073-21.145c-6.226-1.553-13.889,1.17-13.889,1.17
				S394.385,1803.07,375.211,1819.816z"/>
			<g>
				<path style="fill:#EEA886;" d="M389.254,1785.877c0,0-2.178,10.703-4.896,18.182c-2.717,7.479-15.438,23.977-15.079,26.127
					c0.359,2.15,14.444,5.193,20.677,0.219c6.232-4.977,11.967-20.361,13.253-29.848c1.285-9.488,0.604-15.613,0.604-15.613
					S395.252,1780.518,389.254,1785.877z"/>
			</g>
			<polygon style="fill:#FFFFFF;" points="410.216,1805.852 408.276,1830.232 405.113,1829.98 406.612,1811.135 			"/>
			<polygon style="fill:#4C5285;" points="410.491,1356.139 313.359,1344.771 357.238,1380.473 			"/>
			<path style="fill:#EDDAD3;" d="M339.154,1375.686c0,0-0.997,12.365,0,14.959c0,0-59.901-5.984-65.485-14.361
				c-5.585-8.377-5.385-18.549-5.385-18.549L339.154,1375.686z"/>
			<path style="fill:#FCCCA2;" d="M395.731,1146.719c0,0,13.164,23.934,21.341,32.51c8.177,8.576,7.217,15.385,7.217,15.385
				s31.875-39.318,9.138-63.053c-22.737-23.734-52.057-14.162-60.633,6.58c-8.576,20.744-5.435,46.082-5.435,46.082
				S367.609,1159.881,395.731,1146.719z"/>
			<path style="fill:#FCCCA2;" d="M404.418,1121.658c0,0-3.183-17.521,24.293-24.49c27.476-6.969,39.82,24.689,36.436,44.002
				c-3.385,19.313-26.879,68.291-14.137,74.662c12.743,6.371,17.72-7.367,17.72-7.367s-3.982,24.092-21.702,18.518
				c-17.72-5.574-15.332-44.725-12.659-60.328C437.043,1151.051,404.418,1121.658,404.418,1121.658z"/>
			<path style="fill:#EDDAD3;" d="M377.183,1237.832c0,0,2.526-7.346,2.261-9.074c0,0,34.699-2.152,43.607-0.824
				c0,0,0.705,9.822,0.621,12.039C423.588,1242.188,383.432,1248.9,377.183,1237.832z"/>
			<polygon style="fill:#323657;" points="357.238,1380.473 410.491,1362.322 410.491,1356.139 355.443,1373.797 			"/>
			<polygon style="fill:#323657;" points="357.238,1380.473 328.916,1275.162 221.214,1263.795 250.732,1360.727 			"/>
			<path style="fill:#A77860;" d="M413.267,1207.27c-0.105,0.25-7.052,16.24-24.955,18.721c0.505-1.852,0.971-3.742,1.371-5.625
				C389.683,1220.365,399.493,1222.344,413.267,1207.27z"/>
			<path style="fill:#CFBEB8;" d="M447.397,1324.854c0,0-4.328,11.191-7.924,22.088c-3.662-30.604,1.268-54.959,1.268-54.959
				C441.14,1308.338,447.397,1324.854,447.397,1324.854z"/>
			<path style="fill:#EDDAD3;" d="M408.698,1117.984c0,0,19.501,3.746,29.229,19.631c0,0-1.973-14.385-11.68-18.531
				C416.541,1114.939,408.698,1117.984,408.698,1117.984z"/>
		</g>
		<g>
			<polygon style="fill:#48B0F0;" points="291.448,919.582 234.959,886.968 234.959,908.473 150.98,908.473 150.98,930.691 
				234.959,930.691 234.959,952.195 			"/>
			<polygon style="fill:#48B0F0;" points="150.98,848.044 207.468,880.658 207.468,859.153 291.448,859.153 291.448,836.935 
				207.468,836.935 207.468,815.43 			"/>
		</g>
		<g>
			<polygon style="fill:#48B0F0;" points="1116.884,454.811 1074.548,430.369 1074.548,446.485 1011.609,446.485 1011.609,463.137 
				1074.548,463.137 1074.548,479.254 			"/>
			<polygon style="fill:#48B0F0;" points="1011.609,401.197 1053.945,425.64 1053.945,409.523 1116.884,409.523 1116.884,392.871 
				1053.945,392.871 1053.945,376.754 			"/>
		</g>
		<g>
			<g>
				<path style="fill:#4AAAF1;" d="M1688.783,842.782c-5.619-0.426-10.84-2.515-14.871-5.982c-4.573-3.933-7.082-9.161-7.07-14.729
					c-0.775-10.961-4.189-22.289-7.006-30.053c-13.421-10.705-20.646-27.237-19.348-44.352c2.155-28.43,27.037-49.804,55.465-47.648
					c28.43,2.156,49.805,27.037,47.648,55.467c-1.174,15.477-9.105,29.419-21.797,38.359c-3.857,10.49-6.173,20.092-6.885,28.551
					c-0.129,11.383-10.955,20.557-24.178,20.469C1690.084,842.859,1689.432,842.832,1688.783,842.782z M1695.634,704.236
					c-26.103-1.98-48.948,17.646-50.928,43.749c-1.206,15.901,5.602,31.257,18.21,41.073l0.478,0.373l0.208,0.567
					c2.955,8.048,6.648,20.107,7.467,31.855l0.004,0.161c-0.029,4.336,1.959,8.448,5.598,11.577
					c3.738,3.214,8.748,5.007,14.101,5.04c10.923,0.074,19.858-7.262,19.919-16.352l0.002-0.08l0.006-0.08
					c0.751-9.028,3.23-19.246,7.373-30.373l0.233-0.628l0.553-0.378c11.952-8.193,19.435-21.161,20.527-35.578
					C1741.363,729.062,1721.736,706.215,1695.634,704.236z"/>
			</g>
			<g>
				<polygon style="fill:#4AAAF1;" points="1679.197,825.15 1672.426,768.803 1684.174,778.521 1691.459,770.438 1697.756,778.021 
					1708.734,768.719 1702.059,825.155 1697.857,824.658 1703.271,778.893 1697.23,784.011 1691.328,776.902 1684.602,784.365 
					1677.889,778.813 1683.398,824.644 				"/>
			</g>
			<g>
				
					<rect x="1672.356" y="837.705" transform="matrix(1 0.0067 -0.0067 1 5.7301 -11.3678)" style="fill:#4AAAF1;" width="36.674" height="14.778"/>
			</g>
			<g>
				
					<rect x="1666.529" y="822.608" transform="matrix(1 0.0067 -0.0067 1 5.6529 -11.3568)" style="fill:#4AAAF1;" width="48.468" height="23.79"/>
			</g>
		</g>
	</g>
	<path style="fill:#FFFFFF;" d="M2396.731,1549.195c0,0,116.679,133.822,146.66,165.92h168.979v-165.92H2396.731z"/>
	<g>
		<g>
			<g>
				<g>
					<path style="fill:#0E2D3D;" d="M677.316,1114.699c0,0-25.05,12.252-18.856,45.586c6.193,33.336,8.934,37.826,2.006,50.852
						c-6.928,13.025-15.103,68.588-8.868,79.117c6.235,10.531,77.178-46.277,87.016-93.943c9.838-47.664-6.235-68.865-11.917-76.762
						C721.017,1111.65,699.431,1103.475,677.316,1114.699z"/>
				</g>
			</g>
		</g>
		<g>
			<path style="fill:#285173;" d="M670.376,1235.033c0,0-12.747,2.592-19.909,13.135c-4.98,7.33-5.384,23.621-6.102,26.688
				c-0.719,3.066-10.23,37.779-10.23,37.779l26.563,17.801L670.376,1235.033z"/>
		</g>
		<g>
			<path style="fill:#1D3B54;" d="M572.248,1828.639c0,0-17.333,23.334-14.955,27.033c2.377,3.697,20.605,4.227,31.7,0
				c11.095-4.227,11.359-31.574,16.378-43.324c2.101-4.918-2.395-19.438-8.717-20.49c-6.322-1.055-13.199,2.039-13.199,2.039
				S590.012,1810.447,572.248,1828.639z"/>
		</g>
		<g>
			<g>
				<path style="fill:#EEA886;" d="M583.337,1793.709c0,0-3.646,9.936-4.979,19.424c-1.105,7.869-12.348,24.576-11.82,26.689
					c0.528,2.113,14.793,4.027,20.605-1.422c5.811-5.447,9.551-21.291,10.831-30.77c1.192-8.826,2.696-13.186,2.696-13.186
					S588.885,1787.896,583.337,1793.709z"/>
			</g>
		</g>
		<g>
			<path style="fill:#1D3B54;" d="M723.114,1829.027c0,0-16.708,22.945-14.33,26.645c2.377,3.697,20.605,4.227,31.7,0
				s11.359-31.574,16.378-43.324c2.101-4.918-2.395-19.438-8.717-20.49c-6.322-1.055-13.737,2.264-13.737,2.264
				S740.878,1810.834,723.114,1829.027z"/>
		</g>
		<g>
			<g>
				<path style="fill:#EEA886;" d="M734.408,1794.121c0,0-1.321,10.83-3.434,18.492c-2.113,7.66-13.473,25.096-12.944,27.209
					s14.794,4.027,20.605-1.422c5.812-5.447,10.302-21.221,10.831-30.77c0.528-9.547-1.32-15.773-1.32-15.773
					S739.955,1788.309,734.408,1794.121z"/>
			</g>
		</g>
		<g>
			<g>
				<path style="fill:#EEA886;" d="M650.916,1414.236c0,0-14.872,69.193-18.289,86.613c-3.415,17.422-12.98,101.793-14.005,116.139
					c-1.025,14.348-15.52,68.404-14.837,73.527s-21.491,108.051-21.491,108.051s7.573,6.096,15.556,0.551
					c4.106-2.852,48.651-96.359,48.651-121.979c0-35.412,26.186-81.639,29.565-89.561c31.388-73.602,25.209-96.104,29.308-100.885
					c4.099-4.783,4.455,2.953,6.846,13.543c2.392,10.588,7.511,102.133,10.586,113.748c3.074,11.613,0.687,50.896,2.395,70.707
					c1.708,19.813,9.207,109.43,9.207,109.43s5.808,9.1,13.955,0.236c1.753-1.906,14.067-99.828,14.409-123.398
					c0.342-23.568,0.706-56.074,1.367-66.268c6.329-97.67,21.882-111.619-2.615-180.742
					C715.655,1294.523,650.916,1414.236,650.916,1414.236z"/>
			</g>
		</g>
		<g>
			<path style="fill:#1D3B54;" d="M750.8,1394.9c0,0,42.373,59.303,24.13,185.455c0,0-100.503,13.67-154.347-15.813
				c0,0,22.266-130.066,30.333-150.307C658.984,1393.998,750.8,1394.9,750.8,1394.9z"/>
		</g>
		<g>
			<polygon style="fill:#1D3B54;" points="605.835,1810.295 605.835,1834.725 602.665,1834.725 602.665,1815.844 			"/>
		</g>
		<g>
			<polygon style="fill:#1D3B54;" points="757.326,1810.295 757.326,1834.725 754.156,1834.725 754.156,1815.844 			"/>
		</g>
		<g>
			<path style="fill:#EDDAD3;" d="M693.934,1226.385c0,0-15.611,7.371-21.031,8.455c-5.42,1.084-26.452,28.404-30.138,38.377
				c-3.685,9.973,0,24.934,7.589,42.496c7.588,17.563,0.434,23.416,3.902,40.979c3.469,17.561,6.505,54.744,5.854,64.502
				c-0.65,9.756,87.695,11.598,107.859-6.182c0,0-20.266-30.352-22.868-34.688c-2.602-4.338-0.434-27.971,1.951-34.041
				c2.385-6.07,18.259-57.697,18.259-57.697s12.986-39.648,1.255-48.76c-10.19-7.912-37.963-10.734-42.95-12.469
				S704.123,1224.867,693.934,1226.385z"/>
		</g>
		<g>
			<path style="fill:#D6C5BE;" d="M688.947,1261.184l-9.486-11.107l8.237-29.244
				C687.698,1220.832,690.464,1237.117,688.947,1261.184z"/>
		</g>
		<g>
			<path style="fill:#EEA886;" d="M686.48,1208.369c0,0,0.428,3.914,0.933,9.326c0.219,2.396,0.459,5.092,0.683,7.871
				c0.636,7.881,1.152,16.42,0.85,20.764c0,0,16.223,16.258,34.671-18.971c0,0-7.762-14.523-1.919-34.311
				C727.542,1173.266,686.48,1208.369,686.48,1208.369z"/>
		</g>
		<g>
			<polygon style="fill:#EEA886;" points="688.947,1246.332 688.947,1261.184 707.615,1247.234 			"/>
		</g>
		<g>
			<polygon style="fill:#D6C5BE;" points="688.947,1261.184 696.698,1251.59 722.807,1225.568 731.253,1233.701 			"/>
		</g>
		<g>
			<path style="fill:#24669E;" d="M726.431,1228.057c0,0-21.91,33.252-22.957,47.887c-1.047,14.635,8.144,124.109,15.502,159.301
				s60.533-3.969,60.533-3.969s-35.732-57.836-22.016-104.145c13.716-46.309,18.701-64.824,18.701-64.824
				s-4.72-25.789-21.443-29.418C740.087,1229.707,726.431,1228.057,726.431,1228.057z"/>
		</g>
		<g>
			<path style="fill:#24669E;" d="M641.323,1277.658c0,0-3.954,13.984,11.443,44.895c0,0-0.245,39.559-0.679,51.916
				c-0.434,12.359-9.172,56.797-9.172,56.797l21.037,11.203c3.067,1.797,6.865-0.693,6.437-4.223
				c-4.312-35.564-18.339-170.467,11.961-206.729l-12.159,3.586C670.192,1235.104,648.59,1252.779,641.323,1277.658z"/>
		</g>
		<g>
			<polygon style="fill:#FAE6DE;" points="679.461,1250.076 667.509,1253.379 687.698,1220.832 			"/>
		</g>
		<g>
			<polygon style="fill:#FAE6DE;" points="696.698,1251.59 707.615,1265.898 730.033,1228.535 722.807,1225.568 			"/>
		</g>
		
			<rect x="641.465" y="1324.582" transform="matrix(0.6208 -0.7839 0.7839 0.6208 -787.8613 1024.1772)" style="fill:#EB4747;" width="46.745" height="3.954"/>
		<path style="fill:#EEA886;" d="M682.687,1341.965c0,0-2.771,0.053-4.593-1.32c-3.146-2.371-4.279-8.213-9.83-7.787
			c-5.551,0.426-8.126,17.836-6.736,21.131c1.391,3.295,9.101,4.945,20.494,2.674
			C693.417,1354.393,682.687,1341.965,682.687,1341.965z"/>
		<path style="fill:#EEA886;" d="M670.168,1332.977c0,0-7.981-2.721-17.192-4.713c-8.082-1.748-17.738-2.318-18.678-0.918
			c-1.047,1.561,7.872,2.91,15.792,5.158c7.291,2.07,5.553,2.83,5.553,2.83s0.481-0.244-7.843-1.021
			c-8.95-0.838-18.168-0.818-19.078,0.969c-0.443,0.871-0.133,1.459,3.091,2.275c-1.938-0.088-2.212,0.414-2.286,1.193
			c-0.383,4.031,12.671,7.24,17.856,8.514c-3.988-0.955-6.999-1.246-5.564,1.455c1.642,3.09,20.271,6.828,26.841,8.783
			C675.829,1359.633,670.168,1332.977,670.168,1332.977z"/>
		<path style="fill:#24669E;" d="M751.658,1233.482c5.491-1.775,21.606,3.938,24.33,20.461c2.724,16.525,3.814,34.865,6.355,43.764
			c2.543,8.896,9.02,48.322,3.572,51.59c-5.448,3.27-15.762,6.256-30.235,6.256c-14.943,0-72.884,2.6-72.884,2.6l-3.632-20.582
			c0,0,22.006-1.137,33.408-2.865c10.148-1.537,24.217-5.859,40.778-7.674c0,0-3.512-24.422-6.054-31.322
			C744.755,1288.809,726.962,1241.473,751.658,1233.482z"/>
		<polygon style="fill:#EEA886;" points="645.684,1339.154 642.967,1345.773 648.784,1341.607 		"/>
		<g>
			
				<linearGradient id="SVGID_00000114769821022463865750000000045067136666871966_" gradientUnits="userSpaceOnUse" x1="2203.3518" y1="1345.8506" x2="2028.5032" y2="1312.7712" gradientTransform="matrix(1 0 0 1 -1434.4342 0)">
				<stop  offset="0" style="stop-color:#FF9F55"/>
				<stop  offset="1" style="stop-color:#FFD255"/>
			</linearGradient>
			<polygon style="fill:url(#SVGID_00000114769821022463865750000000045067136666871966_);" points="677.604,1373.678 
				619.241,1362.1 575.956,1269.48 638.251,1276.027 			"/>
		</g>
		<g>
			<g>
				<path style="fill:#EEA886;" d="M611.964,1346.385c0,0-3.198-2.971-6.049-7.131c-2.851-4.16-12.175-20.037-11.322-21.033
					c0.853-0.998,14.698-1.334,17.208,0.924c2.509,2.26-2.47,3.145-2.47,3.145s7.57,0.781,7.029,2.918
					c-0.54,2.135-5.099,1.545-5.099,1.545s6.093,1.168,5.17,3.045c-0.923,1.877-3.854,1.857-3.854,1.857s5.401,0.676,4.733,2.725
					c-0.668,2.051-9.21,3.984-8.068,5.686C610.382,1341.768,611.964,1346.385,611.964,1346.385z"/>
			</g>
		</g>
		<g>
			<g>
				<g>
					<path style="fill:#EEA987;" d="M680.949,1118.395c0,0-36.372,11.432-16.627,74.199c19.745,62.768,69.419-7.273,64.223-45.518
						C723.348,1108.834,680.949,1118.395,680.949,1118.395z"/>
				</g>
			</g>
		</g>
		<g>
			<g>
				<g>
					<path style="fill:#0E2D3D;" d="M660.604,1155.02c0,0,18.073,17.736,48.318,19.953c0,0,11.623,13.629,12.517,18.979
						c0,0,26.985-45.998-6.187-73.572C682.081,1092.807,648.411,1143.658,660.604,1155.02z"/>
				</g>
			</g>
		</g>
		<g>
			<g>
				<g>
					<path style="fill:#EEA987;" d="M708.559,1176.221c0.234-4.568,3.048-14.965,9.837-12.055c6.79,2.91-0.415,24.08-4.919,22.779
						C713.477,1186.945,708.005,1187.029,708.559,1176.221z"/>
				</g>
			</g>
		</g>
		<path style="fill:#A77860;" d="M687.413,1217.695c0.219,2.396,0.459,5.092,0.683,7.871h0.005
			c21.029-10.385,24.251-25.355,24.344-25.82C697.464,1219.107,687.413,1217.695,687.413,1217.695z"/>
	</g>
</g>
</svg>
