<svg xmlns="http://www.w3.org/2000/svg" xmlns:xlink="http://www.w3.org/1999/xlink" width="80.631" height="67.867" viewBox="0 0 80.631 67.867"><defs><clipPath id="a"><rect width="80.631" height="67.867" fill="#5c6cff4a"/></clipPath></defs><g clip-path="url(#a)"><path d="M34.84,52.374A17.932,17.932,0,0,1,28.8,64.137,16.81,16.81,0,0,1,9.678,65.375c-9.416-5.729-10.8-18.663-9-28.526A61.2,61.2,0,0,1,4.207,25.013,99.057,99.057,0,0,1,10.3,12.736a55.845,55.845,0,0,1,3.713-5.771A38.928,38.928,0,0,1,17.385,2.99a25.039,25.039,0,0,1,2.042-1.9c2.46-1.995,6.429-.947,8.894.622a3.149,3.149,0,0,1,1.362,1.442c.387,1.042-.224,2.166-.827,3.1C25.326,11.731,21.254,17,19.268,23.2a11.668,11.668,0,0,0-.651,5.35c.445,2.777,2.479,4.23,4.956,5.155a17.816,17.816,0,0,1,7.293,4.81A17.842,17.842,0,0,1,34.84,52.374" transform="translate(0 0.001)" fill="#5c6cff4a"/><path d="M453.88,4.329a9.937,9.937,0,0,1-1.522,3.033c-1.7,2.826-3.7,5.463-5.38,8.306-1.865,3.162-3.854,6.979-4.244,10.683a6.882,6.882,0,0,0,1.709,5.637c1.476,1.447,3.576,1.817,5.382,2.678a16.951,16.951,0,0,1,5.406,4.183,15.26,15.26,0,0,1,3.32,7.089c1.118,5.554.458,11.565-3.26,16.063a16.766,16.766,0,0,1-13.364,5.975c-13.047-.512-18.214-14.8-17.553-25.96a53.851,53.851,0,0,1,.908-6.822,55.8,55.8,0,0,1,3.346-10.652c.581-1.429,1.247-2.824,1.887-4.229a85.3,85.3,0,0,1,4.623-8.7,53.583,53.583,0,0,1,4.1-5.853,37.709,37.709,0,0,1,3.577-3.875A5.384,5.384,0,0,1,446.967.14a11,11,0,0,1,5.6,1.784,2.311,2.311,0,0,1,1.317,2.4" transform="translate(-378.414 -0.121)" fill="#5c6cff4a"/></g></svg>