<svg width="215" height="58" viewBox="0 0 215 58" fill="none" xmlns="http://www.w3.org/2000/svg">
<path d="M60.6046 17.6237L63.7076 11.0452L66.8106 17.6237H60.6065H60.6046ZM69.1093 22.5141H71.2664L64.7329 9.08936H62.6997L56.1875 22.5141H58.304L59.8855 19.1579H67.5277L69.1093 22.5141Z" fill="white"/>
<path d="M83.8813 20.9603H79.156V16.4914H83.8813C86.1625 16.4914 87.3952 17.1825 87.3952 18.7349C87.3952 20.2872 86.1625 20.9603 83.8813 20.9603ZM83.3677 10.6421C85.4628 10.6421 86.6548 11.3712 86.6548 12.7896C86.6548 14.2081 85.4628 14.9372 83.3677 14.9372H79.156V10.6421H83.3677ZM86.7788 15.5524C87.9088 15.0349 88.7092 14.0181 88.7092 12.5599C88.7092 10.3924 86.8602 9.08789 83.5518 9.08789H77.1016V22.5126H83.9627C87.5987 22.5126 89.469 21.1901 89.469 18.8887C89.469 17.1047 88.4011 15.974 86.7769 15.5524H86.7788Z" fill="white"/>
<path d="M100.543 22.6676C104.344 22.6676 106.112 20.9036 106.112 18.8519C106.112 13.9234 97.4017 15.9752 97.4017 12.695C97.4017 11.5244 98.4502 10.5655 100.894 10.5655C102.168 10.5655 103.586 10.911 104.838 11.6582L105.517 10.124C104.325 9.35686 102.579 8.9353 100.894 8.9353C97.1148 8.9353 95.3879 10.6993 95.3879 12.7709C95.3879 17.7573 104.098 15.6857 104.098 18.9659C104.098 20.1365 103.03 21.0375 100.543 21.0375C98.6944 21.0375 96.8667 20.3861 95.7969 19.4833L95.0371 20.9796C96.1884 21.9765 98.3456 22.6676 100.543 22.6676Z" fill="white"/>
<path d="M119.304 20.9615C116.079 20.9615 113.695 18.7759 113.695 15.8033C113.695 12.8307 116.079 10.6451 119.304 10.6451C122.529 10.6451 124.872 12.8307 124.872 15.8033C124.872 18.7759 122.489 20.9615 119.304 20.9615ZM119.304 22.6676C123.681 22.6676 126.927 19.7529 126.927 15.8015C126.927 11.85 123.681 8.9353 119.304 8.9353C114.928 8.9353 111.641 11.8699 111.641 15.8015C111.641 19.733 114.887 22.6676 119.304 22.6676Z" fill="white"/>
<path d="M133.764 22.5141H143.604V20.8442H135.818V9.08936H133.764V22.5141Z" fill="white"/>
<path d="M155.375 22.6664C159.176 22.6664 161.457 20.6147 161.457 16.7212V9.08789H159.464V16.6434C159.464 19.616 157.986 20.9585 155.396 20.9585C152.807 20.9585 151.349 19.616 151.349 16.6434V9.08789H149.295V16.7212C149.295 20.6147 151.596 22.6664 155.377 22.6664H155.375Z" fill="white"/>
<path d="M171.956 22.5141H173.991V10.7575H178.922V9.08936H167.025V10.7575H171.956V22.5141Z" fill="white"/>
<path d="M186.912 20.8442V16.511H194.124V14.8808H186.912V10.7575H195.008V9.08936H184.857V22.5141H195.294V20.8442H186.912Z" fill="white"/>
<path d="M209.643 -6.10352e-05C206.69 -6.10352e-05 204.287 2.24294 204.287 4.99977C204.287 7.75659 206.69 9.99959 209.643 9.99959C212.596 9.99959 214.999 7.75659 214.999 4.99977C214.999 2.24294 212.596 -6.10352e-05 209.643 -6.10352e-05ZM209.643 0.769143C212.151 0.769143 214.175 2.65908 214.175 4.99977C214.175 7.34045 212.151 9.23039 209.643 9.23039C207.136 9.23039 205.111 7.34045 205.111 4.99977C205.111 2.65908 207.136 0.769143 209.643 0.769143ZM207.995 2.69215V7.30738H208.819V5.76897H210.222L210.879 7.30738H211.703L211.008 5.67282C211.652 5.46398 212.115 4.90361 212.115 4.23056C212.115 3.38059 211.378 2.69215 210.467 2.69215H207.995ZM208.819 3.46136H210.467C210.958 3.46136 211.291 3.7725 211.291 4.23056C211.291 4.68862 210.958 4.99977 210.467 4.99977H208.819V3.46136Z" fill="white"/>
<path d="M69.5233 30.1121L63.3386 40.0666L57.0938 30.1121H55.8398V43.5368H57.2993V32.8549L62.949 41.8307H63.6681L69.3179 32.797V43.5368H70.7773V30.1121H69.5233Z" fill="white"/>
<path d="M78.2514 38.8002L81.7033 31.5884L85.1552 38.8002H78.2514ZM87.4345 43.5368H89.0373L82.4631 30.1121H80.9629L74.3887 43.5368H75.9702L77.6952 39.9508H85.7076L87.4325 43.5368H87.4345Z" fill="white"/>
<path d="M94.7247 43.5368H96.2461V31.3406H101.299V30.1121H89.6719V31.3406H94.7247V43.5368Z" fill="white"/>
<path d="M110.301 38.071H106.478V31.3387H110.301C113.177 31.3387 114.696 32.5654 114.696 34.7148C114.696 36.8642 113.177 38.071 110.301 38.071ZM116.443 43.5368L112.929 38.934C115.024 38.3008 116.216 36.8244 116.216 34.7148C116.216 31.8381 113.997 30.1121 110.339 30.1121H104.957V43.5368H106.477V39.2796H110.339C110.75 39.2796 111.12 39.2597 111.491 39.2217L114.778 43.5368H116.443Z" fill="white"/>
<path d="M122.566 30.1121H121.047V43.5368H122.566V30.1121Z" fill="white"/>
<path d="M142.168 30.1121L135.983 40.0666L129.738 30.1121H128.484V43.5368H129.944V32.8549L135.594 41.8307H136.313L141.962 32.797V43.5368H143.42V30.1121H142.168Z" fill="white"/>
<path d="M155.623 42.3864C152.152 42.3864 149.563 40.0272 149.563 36.8248C149.563 33.6223 152.152 31.2631 155.623 31.2631C159.095 31.2631 161.643 33.6223 161.643 36.8248C161.643 40.0272 159.075 42.3864 155.623 42.3864ZM155.623 43.6529C159.938 43.6529 163.163 40.7563 163.163 36.8248C163.163 32.8932 159.938 29.9966 155.623 29.9966C151.309 29.9966 148.062 32.9113 148.062 36.8248C148.062 40.7382 151.268 43.6529 155.623 43.6529Z" fill="white"/>
<path d="M178.323 30.1121V41.0056L169.057 30.1121H167.803V43.5368H169.324V32.645L178.569 43.5368H179.821V30.1121H178.323Z" fill="white"/>
<path d="M196.427 30.1121H194.907L189.977 37.6495L185.046 30.1121H183.422L189.174 38.896V43.5368H190.674V38.896L196.427 30.1121Z" fill="white"/>
<g style="mix-blend-mode:multiply" opacity="0.5">
<path d="M26.8087 34.1826C27.2468 34.1826 27.6867 34.1862 28.1247 34.1917C28.5628 34.1971 29.0008 34.2061 29.4369 34.217C29.873 34.2278 30.3091 34.2423 30.7432 34.2586C31.1774 34.2749 31.6096 34.2948 32.0398 34.3165C32.4701 34.3382 32.8984 34.3635 33.3229 34.3907C33.7474 34.4178 34.1718 34.4468 34.5905 34.4793C35.0111 34.5119 35.4258 34.5463 35.8406 34.5843C36.2534 34.6223 36.6624 34.6621 37.0674 34.7055C37.4725 34.7489 37.8737 34.7941 38.271 34.8412C38.6684 34.8882 39.0599 34.9389 39.4456 34.9914C39.8332 35.0438 40.215 35.0981 40.591 35.156C40.967 35.2139 41.3372 35.2736 41.7035 35.3351C42.0679 35.3966 42.4265 35.4618 42.7792 35.5269C43.132 35.5938 43.477 35.6626 43.8161 35.7332C44.1553 35.8037 44.4867 35.8761 44.8124 35.9521C45.138 36.0263 45.4558 36.1041 45.7659 36.1837C46.076 36.2633 46.3784 36.3429 46.673 36.4261C46.9676 36.5093 47.2544 36.5926 47.5316 36.6794C47.8088 36.7663 48.0801 36.8531 48.3418 36.9436C48.6034 37.034 48.8554 37.1245 49.0996 37.2168C49.3438 37.309 49.5783 37.4031 49.8031 37.499C50.028 37.5949 50.245 37.6926 50.4524 37.7903C50.6598 37.888 50.8556 37.9875 51.0436 38.0888C51.2316 38.1901 51.4079 38.2915 51.5766 38.3946C51.7452 38.4977 51.9022 38.6008 52.0495 38.7076C52.1968 38.8125 52.3344 38.9193 52.4623 39.026C52.5902 39.1328 52.7065 39.2395 52.8131 39.3481C52.9197 39.4566 53.0166 39.5652 53.1019 39.6737C53.1872 39.7823 53.2628 39.8927 53.3267 40.003C53.3907 40.1134 53.445 40.2238 53.4876 40.3359C53.5302 40.4481 53.5632 40.5585 53.5845 40.6688C53.6058 40.781 53.6175 40.8914 53.6175 41.0036C53.6175 41.1157 53.6058 41.2261 53.5845 41.3383C53.5632 41.4504 53.5302 41.5608 53.4876 41.6712C53.445 41.7815 53.3907 41.8937 53.3267 42.0041C53.2628 42.1144 53.1872 42.2248 53.1019 42.3334C53.0166 42.4419 52.9197 42.5523 52.8131 42.659C52.7065 42.7676 52.5902 42.8743 52.4623 42.9811C52.3344 43.0878 52.1968 43.1946 52.0495 43.2995C51.9022 43.4044 51.7432 43.5094 51.5766 43.6125C51.4079 43.7156 51.2316 43.817 51.0436 43.9183C50.8556 44.0196 50.6579 44.1191 50.4524 44.2168C50.245 44.3145 50.0299 44.4122 49.8031 44.5081C49.5783 44.604 49.3438 44.6981 49.0996 44.7903C48.8554 44.8826 48.6034 44.9749 48.3418 45.0635C48.0801 45.154 47.8107 45.2409 47.5316 45.3277C47.2525 45.4145 46.9676 45.4978 46.673 45.581C46.3784 45.6642 46.076 45.7438 45.7659 45.8234C45.4558 45.903 45.138 45.979 44.8124 46.055C44.4867 46.1292 44.1553 46.2034 43.8161 46.2739C43.477 46.3445 43.132 46.4133 42.7792 46.4802C42.4265 46.5471 42.0679 46.6105 41.7035 46.672C41.3392 46.7335 40.969 46.7932 40.591 46.8511C40.215 46.909 39.8332 46.9633 39.4456 47.0157C39.0579 47.0682 38.6664 47.1189 38.271 47.1659C37.8737 47.213 37.4745 47.2582 37.0674 47.3016C36.6624 47.345 36.2534 47.3848 35.8406 47.4228C35.4278 47.4608 35.0111 47.4952 34.5905 47.5278C34.1699 47.5603 33.7474 47.5893 33.3229 47.6164C32.8965 47.6436 32.4701 47.6671 32.0398 47.6906C31.6096 47.7123 31.1774 47.7322 30.7432 47.7485C30.3091 47.7648 29.8749 47.7793 29.4369 47.7901C29.0008 47.801 28.5628 47.81 28.1247 47.8154C27.6867 47.8209 27.2487 47.8245 26.8087 47.8245C26.3688 47.8245 25.9307 47.8209 25.4927 47.8154C25.0547 47.81 24.6167 47.801 24.1806 47.7901C23.7445 47.7793 23.3084 47.7648 22.8742 47.7485C22.4401 47.7322 22.0079 47.7123 21.5776 47.6906C21.1473 47.6689 20.719 47.6436 20.2945 47.6164C19.8682 47.5893 19.4456 47.5603 19.027 47.5278C18.6064 47.4952 18.1916 47.4608 17.7769 47.4228C17.364 47.3848 16.9551 47.345 16.55 47.3016C16.1449 47.2582 15.7437 47.213 15.3464 47.1659C14.9491 47.1189 14.5576 47.0682 14.1719 47.0157C13.7842 46.9633 13.4024 46.909 13.0264 46.8511C12.6504 46.7932 12.2802 46.7335 11.9139 46.672C11.5495 46.6105 11.191 46.5453 10.8382 46.4802C10.4855 46.4133 10.1405 46.3445 9.80131 46.2739C9.46213 46.2034 9.1307 46.131 8.80509 46.055C8.47948 45.9808 8.16162 45.903 7.85151 45.8234C7.54141 45.7438 7.23905 45.6642 6.94445 45.581C6.64985 45.4978 6.363 45.4145 6.08584 45.3277C5.80675 45.2409 5.53734 45.154 5.27569 45.0635C5.01404 44.9731 4.76208 44.8826 4.51787 44.7903C4.27366 44.6981 4.03914 44.604 3.81431 44.5081C3.58949 44.4122 3.37241 44.3145 3.16503 44.2168C2.95764 44.1191 2.76189 44.0196 2.57389 43.9183C2.38588 43.817 2.20951 43.7156 2.04089 43.6125C1.87227 43.5094 1.71528 43.4063 1.56798 43.2995C1.42068 43.1946 1.28307 43.0878 1.15515 42.9811C1.02723 42.8743 0.910939 42.7676 0.804339 42.659C0.69774 42.5505 0.600832 42.4419 0.515552 42.3334C0.430273 42.2248 0.354685 42.1144 0.290725 42.0041C0.226766 41.8937 0.172497 41.7833 0.129857 41.6712C0.0872175 41.5608 0.0542687 41.4486 0.0329488 41.3383C0.011629 41.2261 0 41.1157 0 41.0036C0 40.8914 0.011629 40.781 0.0329488 40.6688C0.0542687 40.5567 0.0872175 40.4463 0.129857 40.3359C0.172497 40.2256 0.226766 40.1134 0.290725 40.003C0.354685 39.8927 0.430273 39.7823 0.515552 39.6737C0.600832 39.5652 0.69774 39.4548 0.804339 39.3481C0.910939 39.2395 1.02723 39.1328 1.15515 39.026C1.28307 38.9193 1.42068 38.8125 1.56798 38.7076C1.71528 38.6027 1.87421 38.4977 2.04089 38.3946C2.20951 38.2915 2.38588 38.1901 2.57389 38.0888C2.76189 37.9875 2.95958 37.888 3.16503 37.7903C3.37047 37.6926 3.58755 37.5949 3.81431 37.499C4.04108 37.4031 4.27366 37.309 4.51787 37.2168C4.76208 37.1245 5.01404 37.0322 5.27569 36.9436C5.53734 36.8531 5.80675 36.7663 6.08584 36.6794C6.36494 36.5926 6.64985 36.5093 6.94445 36.4261C7.23905 36.3429 7.54141 36.2633 7.85151 36.1837C8.16162 36.1041 8.47948 36.0281 8.80509 35.9521C9.1307 35.8779 9.46213 35.8037 9.80131 35.7332C10.1405 35.6626 10.4855 35.5938 10.8382 35.5269C11.191 35.46 11.5495 35.3966 11.9139 35.3351C12.2783 35.2736 12.6485 35.2139 13.0264 35.156C13.4024 35.0981 13.7842 35.0438 14.1719 34.9914C14.5595 34.9389 14.951 34.8882 15.3464 34.8412C15.7437 34.7941 16.143 34.7489 16.55 34.7055C16.9551 34.6621 17.364 34.6223 17.7769 34.5843C18.1897 34.5463 18.6064 34.5119 19.027 34.4793C19.4476 34.4468 19.8701 34.4178 20.2945 34.3907C20.7209 34.3635 21.1473 34.34 21.5776 34.3165C22.0079 34.2948 22.4401 34.2749 22.8742 34.2586C23.3084 34.2423 23.7425 34.2278 24.1806 34.217C24.6167 34.2061 25.0547 34.1971 25.4927 34.1917C25.9307 34.1862 26.3688 34.1826 26.8087 34.1826Z" fill="#FFE1D3"/>
</g>
<path d="M33.6169 16.1022C26.6375 17.2746 21.9995 23.5039 23.2535 30.019C23.7613 32.6551 25.1568 34.9348 27.1027 36.6355C28.1822 36.2809 29.1436 35.7237 29.9305 35.009C28.1202 33.6882 26.8023 31.7686 26.3642 29.4962C25.4204 24.5931 28.9246 19.8872 34.177 19.006C39.4294 18.1249 44.4706 21.3961 45.4145 26.2992C46.3584 31.2023 42.8542 35.9082 37.6017 36.7893C37.468 36.8128 37.3323 36.8291 37.1986 36.8472C36.4989 37.9436 35.6403 38.946 34.6441 39.8253C35.7915 39.9284 36.9699 39.8922 38.1599 39.6932C45.1393 38.5208 49.7773 32.2915 48.5233 25.7763C47.2693 19.2611 40.5943 14.9298 33.6149 16.1022H33.6169Z" fill="#EF7E4C"/>
<path d="M5.36732 24.2014C3.17913 32.6 8.70096 41.0655 17.6979 43.1064C26.6949 45.149 35.7636 39.9944 37.9498 31.5958C38.8356 28.1962 38.4576 24.7876 37.097 21.795C35.6066 21.6865 34.1452 21.8765 32.8001 22.3432C34.215 24.8129 34.7015 27.7566 33.9398 30.6858C32.2923 37.0073 25.4448 40.8991 18.6728 39.363C11.9009 37.8251 7.73188 31.433 9.37932 25.1114C11.0268 18.7898 17.8743 14.8981 24.6463 16.4342C24.8827 16.4885 25.1153 16.5482 25.344 16.6133C26.7976 15.6634 28.3869 14.9035 30.0712 14.359C28.7125 13.6244 27.224 13.0545 25.6212 12.6908C16.6242 10.6481 7.55744 15.8009 5.36925 24.2014H5.36732Z" fill="#EF7E4C"/>
<path d="M35.8639 2.74663C37.8041 1.13819 40.7733 1.30283 42.4964 3.11572C44.2194 4.92679 44.043 7.69859 42.101 9.30703C40.1609 10.9155 32.9412 14.3549 32.9412 14.3549C32.9412 14.3549 28.119 8.27213 27.1499 6.02502C26.1809 3.77791 27.3457 1.22323 29.751 0.318592C32.1582 -0.586041 34.8949 0.501328 35.8639 2.74663Z" fill="#C33C42"/>
<path d="M114.617 54.0194L116.049 51.0269L117.481 54.0194H114.617ZM118.429 55.9861H119.094L116.365 50.4136H115.743L113.014 55.9861H113.671L114.388 54.4971H117.714L118.431 55.9861H118.429Z" fill="white"/>
<path d="M122.221 55.5232C121.265 55.5232 120.55 54.87 120.55 53.8912C120.55 52.9124 121.267 52.2593 122.221 52.2593C123.174 52.2593 123.891 52.9124 123.891 53.8912C123.891 54.87 123.167 55.5232 122.221 55.5232ZM122.263 51.7653C121.546 51.7653 120.934 52.0512 120.558 52.594V50.0791H119.953V55.9864H120.533V55.1577C120.899 55.7222 121.521 56.0262 122.263 56.0262C123.543 56.0262 124.498 55.1577 124.498 53.893C124.498 52.6284 123.543 51.7672 122.263 51.7672V51.7653Z" fill="white"/>
<path d="M126.939 56.0255C128.108 56.0255 128.79 55.5551 128.79 54.8314C128.79 53.2229 125.883 54.0751 125.883 52.9443C125.883 52.5463 126.241 52.2513 127.051 52.2513C127.513 52.2513 127.982 52.3545 128.373 52.6096L128.637 52.1555C128.261 51.9166 127.631 51.7646 127.051 51.7646C125.908 51.7646 125.278 52.2749 125.278 52.9588C125.278 54.6142 128.185 53.7548 128.185 54.8458C128.185 55.2602 127.836 55.5297 126.984 55.5297C126.352 55.5297 125.747 55.3235 125.389 55.0593L125.115 55.5044C125.482 55.7993 126.199 56.0219 126.941 56.0219L126.939 56.0255Z" fill="white"/>
<path d="M131.742 55.5225C130.787 55.5225 130.071 54.8693 130.071 53.8905C130.071 52.9117 130.789 52.2586 131.742 52.2586C132.696 52.2586 133.405 52.9117 133.405 53.8905C133.405 54.8693 132.698 55.5225 131.742 55.5225ZM131.742 56.0237C133.056 56.0237 134.019 55.1317 134.019 53.8905C134.019 52.6494 133.056 51.7646 131.742 51.7646C130.428 51.7646 129.457 52.6476 129.457 53.8905C129.457 55.1335 130.43 56.0237 131.742 56.0237Z" fill="white"/>
<path d="M135.859 50.0791H135.254V55.9864H135.859V50.0791Z" fill="white"/>
<path d="M140.983 51.797V53.9934C140.983 54.9487 140.394 55.5132 139.456 55.5132C138.603 55.5132 138.109 55.0591 138.109 54.1671V51.7952H137.504V54.2232C137.504 55.4246 138.254 56.0216 139.397 56.0216C140.115 56.0216 140.694 55.7267 141.01 55.2183V55.9818H141.59V51.7952H140.985L140.983 51.797Z" fill="white"/>
<path d="M145.435 55.3241C145.264 55.467 145.016 55.5394 144.77 55.5394C144.266 55.5394 143.995 55.268 143.995 54.7759V52.2755H145.359V51.7978H143.995V50.8823H143.39V51.7978H142.588V52.2755H143.39V54.8066C143.39 55.5792 143.859 56.0243 144.704 56.0243C145.053 56.0243 145.412 55.9284 145.65 55.7293L145.437 55.3241H145.435Z" fill="white"/>
<path d="M148.327 52.2513C149.205 52.2513 149.844 52.8249 149.922 53.6445H146.741C146.819 52.8249 147.459 52.2513 148.327 52.2513ZM150.501 53.8905C150.501 52.6331 149.589 51.7646 148.327 51.7646C147.065 51.7646 146.135 52.6476 146.135 53.8905C146.135 55.1335 147.09 56.0237 148.488 56.0237C149.195 56.0237 149.817 55.7848 150.218 55.3398L149.877 54.9743C149.536 55.3398 149.05 55.5243 148.505 55.5243C147.524 55.5243 146.807 54.9435 146.739 54.0678H150.492C150.492 54.0045 150.5 53.9412 150.5 53.8923L150.501 53.8905Z" fill="white"/>
<path d="M152.343 50.0791H151.738V55.9864H152.343V50.0791Z" fill="white"/>
<path d="M157.204 51.797L155.516 55.3558L153.827 51.797H153.196L155.2 55.9764L155.004 56.3817C154.748 56.9063 154.475 57.0818 154.074 57.0818C153.75 57.0818 153.477 56.9697 153.256 56.7634L152.975 57.185C153.248 57.4401 153.649 57.5667 154.066 57.5667C154.705 57.5667 155.182 57.3044 155.558 56.4848L157.801 51.7952H157.204V51.797Z" fill="white"/>
<path d="M165.223 55.078C164.762 55.3892 164.235 55.5086 163.663 55.5086C162.196 55.5086 161.112 54.5208 161.112 53.2C161.112 51.8792 162.196 50.8914 163.671 50.8914C164.37 50.8914 164.967 51.0832 165.469 51.5445L165.861 51.17C165.332 50.6363 164.547 50.3667 163.644 50.3667C161.818 50.3667 160.488 51.568 160.488 53.2C160.488 54.832 161.818 56.0333 163.636 56.0333C164.463 56.0333 165.264 55.7945 165.828 55.3241V53.1982H165.223V55.0762V55.078Z" fill="white"/>
<path d="M169.219 52.2513C170.097 52.2513 170.737 52.8249 170.815 53.6445H167.634C167.712 52.8249 168.351 52.2513 169.219 52.2513ZM171.394 53.8905C171.394 52.6331 170.481 51.7646 169.219 51.7646C167.958 51.7646 167.027 52.6476 167.027 53.8905C167.027 55.1335 167.983 56.0237 169.38 56.0237C170.088 56.0237 170.71 55.7848 171.111 55.3398L170.77 54.9743C170.429 55.3398 169.942 55.5243 169.398 55.5243C168.417 55.5243 167.7 54.9435 167.632 54.0678H171.384C171.384 54.0045 171.392 53.9412 171.392 53.8923L171.394 53.8905Z" fill="white"/>
<path d="M174.92 51.7665C174.145 51.7665 173.538 52.0614 173.214 52.5698V51.7972H172.635V55.9839H173.239V53.7874C173.239 52.8321 173.844 52.2749 174.809 52.2749C175.662 52.2749 176.156 52.729 176.156 53.6119V55.9839H176.761V53.5558C176.761 52.3545 176.011 51.7646 174.92 51.7646V51.7665Z" fill="white"/>
<path d="M181.844 51.797V53.9934C181.844 54.9487 181.255 55.5132 180.317 55.5132C179.464 55.5132 178.97 55.0591 178.97 54.1671V51.7952H178.365V54.2232C178.365 55.4246 179.115 56.0216 180.259 56.0216C180.976 56.0216 181.555 55.7267 181.871 55.2183V55.9818H182.451V51.7952H181.846L181.844 51.797Z" fill="white"/>
<path d="M184.145 55.9864H184.75V51.7997H184.145V55.9864ZM184.452 50.8842C184.707 50.8842 184.895 50.7015 184.895 50.4699C184.895 50.2546 184.7 50.0791 184.452 50.0791C184.204 50.0791 184.008 50.2618 184.008 50.4771C184.008 50.6924 184.204 50.8824 184.452 50.8824V50.8842Z" fill="white"/>
<path d="M188.727 51.7665C187.951 51.7665 187.345 52.0614 187.021 52.5698V51.7972H186.441V55.9839H187.046V53.7874C187.046 52.8321 187.651 52.2749 188.616 52.2749C189.469 52.2749 189.963 52.729 189.963 53.6119V55.9839H190.568V53.5558C190.568 52.3545 189.818 51.7646 188.727 51.7646V51.7665Z" fill="white"/>
<path d="M193.971 52.2513C194.849 52.2513 195.489 52.8249 195.566 53.6445H192.386C192.463 52.8249 193.103 52.2513 193.971 52.2513ZM196.146 53.8905C196.146 52.6331 195.233 51.7646 193.971 51.7646C192.71 51.7646 191.779 52.6476 191.779 53.8905C191.779 55.1335 192.735 56.0237 194.132 56.0237C194.84 56.0237 195.462 55.7848 195.863 55.3398L195.522 54.9743C195.181 55.3398 194.694 55.5243 194.15 55.5243C193.169 55.5243 192.452 54.9435 192.384 54.0678H196.136C196.136 54.0045 196.144 53.9412 196.144 53.8923L196.146 53.8905Z" fill="white"/>
</svg>
