<svg xmlns="http://www.w3.org/2000/svg" width="163.204" height="28.905" viewBox="0 0 163.204 28.905">
  <g id="Boomitra_Logo_Primary_Partial_White" transform="translate(-0.161)">
    <path id="Path_21" data-name="Path 21" d="M75.611,12.9a7.708,7.708,0,0,0-4.079-1.094,7.533,7.533,0,0,0-3.538.826A7.31,7.31,0,0,0,65.418,14.8V6.231a1.281,1.281,0,0,0-.344-.946,1.237,1.237,0,0,0-.913-.344,1.192,1.192,0,0,0-1.29,1.291v14A8.394,8.394,0,0,0,64,24.44,8.089,8.089,0,0,0,71.149,28.5a8.414,8.414,0,0,0,4.271-1.094,8.126,8.126,0,0,0,2.969-2.98,8.418,8.418,0,0,0,1.094-4.287,8.658,8.658,0,0,0-1.033-4.254,7.814,7.814,0,0,0-2.833-2.98Zm.645,10.34a5.8,5.8,0,0,1-2.1,2.171,5.678,5.678,0,0,1-3.013.809,5.469,5.469,0,0,1-2.953-.809,5.713,5.713,0,0,1-2.083-2.171,6.345,6.345,0,0,1-.749-3.1,6.332,6.332,0,0,1,.749-3.09,5.525,5.525,0,0,1,2.083-2.171,5.664,5.664,0,0,1,2.953-.793,5.879,5.879,0,0,1,3.013.793,5.681,5.681,0,0,1,2.1,2.171,6.639,6.639,0,0,1,0,6.19Z" transform="translate(-28.418 -2.239)" fill="#fff"/>
    <path id="Path_22" data-name="Path 22" d="M109.293,18.577a8.3,8.3,0,0,0-4.26-1.077,8.552,8.552,0,0,0-4.3,1.077,7.894,7.894,0,0,0-2.953,2.969A8.508,8.508,0,0,0,96.7,25.861a8.461,8.461,0,0,0,1.077,4.287,7.933,7.933,0,0,0,2.953,2.969,9.069,9.069,0,0,0,8.574,0,7.933,7.933,0,0,0,2.953-2.969,8.463,8.463,0,0,0,1.077-4.287,8.753,8.753,0,0,0-1.11-4.314,7.97,7.97,0,0,0-2.936-2.969Zm.809,10.39a5.619,5.619,0,0,1-5.064,2.953,5.781,5.781,0,0,1-3.013-.793,5.69,5.69,0,0,1-2.1-2.16,6.235,6.235,0,0,1-.766-3.1,6.328,6.328,0,0,1,.766-3.117,5.643,5.643,0,0,1,2.1-2.171,5.767,5.767,0,0,1,3.013-.793,5.681,5.681,0,0,1,3,.793A5.6,5.6,0,0,1,110.1,22.75a6.439,6.439,0,0,1,.749,3.117A6.345,6.345,0,0,1,110.1,28.967Z" transform="translate(-43.749 -7.931)" fill="#fff"/>
    <path id="Path_23" data-name="Path 23" d="M143.063,18.577A8.3,8.3,0,0,0,138.8,17.5a8.552,8.552,0,0,0-4.3,1.077,7.894,7.894,0,0,0-2.953,2.969,8.508,8.508,0,0,0-1.077,4.314,8.461,8.461,0,0,0,1.077,4.287,7.933,7.933,0,0,0,2.953,2.969,9.069,9.069,0,0,0,8.574,0,7.933,7.933,0,0,0,2.953-2.969,8.463,8.463,0,0,0,1.077-4.287,8.752,8.752,0,0,0-1.11-4.314,7.97,7.97,0,0,0-2.936-2.969Zm.809,10.39a5.619,5.619,0,0,1-5.064,2.953,5.781,5.781,0,0,1-3.013-.793,5.69,5.69,0,0,1-2.1-2.16,6.236,6.236,0,0,1-.766-3.1,6.328,6.328,0,0,1,.766-3.117,5.643,5.643,0,0,1,2.1-2.171,5.767,5.767,0,0,1,3.013-.793,5.681,5.681,0,0,1,3,.793,5.6,5.6,0,0,1,2.067,2.171,6.439,6.439,0,0,1,.749,3.117A6.344,6.344,0,0,1,143.873,28.967Z" transform="translate(-59.053 -7.931)" fill="#fff"/>
    <path id="Path_24" data-name="Path 24" d="M186.184,18.249a5.867,5.867,0,0,0-3.09-.809,6.7,6.7,0,0,0-3.374.842,5.933,5.933,0,0,0-2.007,1.837,5.342,5.342,0,0,0-1.848-1.865,5.867,5.867,0,0,0-3.09-.809,5.788,5.788,0,0,0-4.407,1.876v-.4a1.294,1.294,0,0,0-.344-.93,1.207,1.207,0,0,0-.913-.361,1.248,1.248,0,0,0-.946.361,1.294,1.294,0,0,0-.345.93V32.767a1.237,1.237,0,0,0,.345.913,1.281,1.281,0,0,0,.946.344,1.184,1.184,0,0,0,1.258-1.258V24.046a4.187,4.187,0,0,1,1.137-3.057,3.877,3.877,0,0,1,2.909-1.17,3.547,3.547,0,0,1,2.712,1.137,4.514,4.514,0,0,1,1.066,3.21v8.6a1.207,1.207,0,0,0,.361.913,1.251,1.251,0,0,0,.9.344,1.184,1.184,0,0,0,1.258-1.258v-8.6a4.427,4.427,0,0,1,1.126-3.15,3.786,3.786,0,0,1,2.893-1.2,3.447,3.447,0,0,1,2.729,1.137,4.558,4.558,0,0,1,1.05,3.21v8.6a1.207,1.207,0,0,0,.361.913,1.285,1.285,0,0,0,.93.344,1.233,1.233,0,0,0,.9-.344,1.207,1.207,0,0,0,.361-.913v-8.6a7.863,7.863,0,0,0-.766-3.582,5.531,5.531,0,0,0-2.116-2.324Z" transform="translate(-75.073 -7.903)" fill="#fff"/>
    <path id="Path_25" data-name="Path 25" d="M217.683,6.461a1.759,1.759,0,0,0-1.214-.481,1.734,1.734,0,0,0-1.214.481,1.592,1.592,0,0,0-.525,1.23,1.7,1.7,0,0,0,.509,1.247,1.7,1.7,0,0,0,2.461,0,1.731,1.731,0,0,0,.509-1.247A1.625,1.625,0,0,0,217.683,6.461Z" transform="translate(-97.238 -2.71)" fill="#fff"/>
    <path id="Path_26" data-name="Path 26" d="M216.9,17.77a1.294,1.294,0,0,0-.93.345,1.248,1.248,0,0,0-.361.946V32.879a1.248,1.248,0,0,0,.361.946,1.285,1.285,0,0,0,.93.344,1.229,1.229,0,0,0,.913-.344,1.281,1.281,0,0,0,.345-.946V19.061a1.281,1.281,0,0,0-.345-.946A1.237,1.237,0,0,0,216.9,17.77Z" transform="translate(-97.636 -8.053)" fill="#fff"/>
    <path id="Path_27" data-name="Path 27" d="M233.6,27.325h-.9a2.67,2.67,0,0,1-2.083-.93,3.382,3.382,0,0,1-.826-2.34V16.23h3.117a1.169,1.169,0,0,0,.842-.317,1.018,1.018,0,0,0,.328-.766,1.052,1.052,0,0,0-.328-.793,1.174,1.174,0,0,0-.842-.317h-3.117V9.488a1.2,1.2,0,0,0-.361-.9,1.22,1.22,0,0,0-.9-.361,1.207,1.207,0,0,0-.913.361,1.251,1.251,0,0,0-.345.9v4.555H225.51a1.169,1.169,0,0,0-.842.317,1.052,1.052,0,0,0-.328.793,1.026,1.026,0,0,0,.328.766,1.174,1.174,0,0,0,.842.317h1.766v7.825a6.2,6.2,0,0,0,.705,2.969,5.213,5.213,0,0,0,4.725,2.816h.6a1.532,1.532,0,0,0,1.034-.344,1.148,1.148,0,0,0,.4-.913,1.268,1.268,0,0,0-.328-.9,1.056,1.056,0,0,0-.809-.361Z" transform="translate(-101.593 -3.73)" fill="#fff"/>
    <path id="Path_28" data-name="Path 28" d="M257.368,17.888a4.794,4.794,0,0,0-2.324-.448,6.237,6.237,0,0,0-3.193.842,6.389,6.389,0,0,0-1.9,1.662V18.884a1.278,1.278,0,0,0-.317-.93,1.2,1.2,0,0,0-.913-.328,1.142,1.142,0,0,0-1.258,1.258V32.762a1.142,1.142,0,0,0,1.258,1.258,1.2,1.2,0,0,0,.913-.328,1.3,1.3,0,0,0,.317-.93V23.854a3.616,3.616,0,0,1,.809-2.368,4.478,4.478,0,0,1,2.171-1.422,7.364,7.364,0,0,1,3.133-.224,7.241,7.241,0,0,0,.853.06,1.213,1.213,0,0,0,.662-.18.881.881,0,0,0,.377-.6A1.012,1.012,0,0,0,257.368,17.888Z" transform="translate(-112.07 -7.903)" fill="#fff"/>
    <path id="Path_29" data-name="Path 29" d="M283.7,21.574a8.046,8.046,0,0,0-2.969-2.98,8.747,8.747,0,0,0-8.47,0,8.035,8.035,0,0,0-2.98,2.98,8.418,8.418,0,0,0-1.094,4.287,8.55,8.55,0,0,0,1.05,4.254,7.938,7.938,0,0,0,2.849,2.98,7.708,7.708,0,0,0,4.079,1.094,7.3,7.3,0,0,0,3.91-1.033,7.5,7.5,0,0,0,2.171-1.952v1.58a1.18,1.18,0,0,0,.377.913,1.343,1.343,0,0,0,.946.344,1.233,1.233,0,0,0,.9-.344,1.207,1.207,0,0,0,.361-.913V25.861A8.6,8.6,0,0,0,283.7,21.574Zm-2.127,7.377a5.72,5.72,0,0,1-2.067,2.171,6,6,0,0,1-5.96,0,5.8,5.8,0,0,1-2.116-2.171,6.516,6.516,0,0,1,0-6.19,5.925,5.925,0,0,1,2.116-2.171,5.618,5.618,0,0,1,2.98-.809,5.55,5.55,0,0,1,2.98.809,5.968,5.968,0,0,1,2.067,2.171,6.639,6.639,0,0,1,0,6.19Z" transform="translate(-121.465 -7.931)" fill="#fff"/>
    <path id="Path_30" data-name="Path 30" d="M14.624,0A14.438,14.438,0,0,0,2.151,7.147c-.087.148-.175.3-.257.454A.63.63,0,1,0,3,8.2c.077-.137.153-.279.235-.416A13.2,13.2,0,1,1,20.606,26.209a8.718,8.718,0,0,1-2.8.705C10.512,26.5,5.722,22.294,2.944,15.486c4.26,5.8,8.864,10.029,16.142,10.089C16.434,11.669,5.694,15.677.833,10.034a12.939,12.939,0,0,0-.662,4.632A14.453,14.453,0,1,0,14.624,0Z" transform="translate(0)" fill="#87c45f"/>
  </g>
</svg>
