<svg width="203" height="203" viewBox="0 0 203 203" fill="none" xmlns="http://www.w3.org/2000/svg">
<path d="M74.4443 120.348C74.4443 121.401 75.1966 122.304 76.2498 122.304H166.825C167.427 122.304 167.728 122.755 167.728 123.357L167.427 147.731C167.277 155.103 162.161 161.121 155.842 161.121H35.4757L35.7766 55.3523C35.9271 47.9801 41.0426 41.9619 47.3619 41.9619H167.126C167.578 41.9619 167.879 41.5106 167.879 41.0592V1.64045C167.879 1.03864 167.427 0.58728 167.126 0.58728H72.6388C70.5324 0.58728 68.5764 1.64045 67.0719 3.29544L2.82633 79.7257C1.32175 81.3807 0.569458 83.788 0.569458 86.1952V161.271C0.569458 161.873 1.02083 162.325 1.32175 162.325H34.5729V201.442C34.5729 202.044 35.0243 202.496 35.3252 202.496H130.415C132.521 202.496 134.477 201.443 135.982 199.788L198.422 125.464C199.926 123.809 200.678 121.401 200.678 118.994V84.0889C200.829 82.5844 199.776 81.3807 198.422 81.3807H76.0993C75.0461 81.3807 74.2938 82.2834 74.2938 83.3366L74.4443 120.348Z" fill="white"/>
<path d="M193.607 18.0399C188.792 18.0399 184.88 14.1281 184.88 9.31357C184.88 4.49907 188.792 0.58728 193.607 0.58728C198.422 0.58728 202.333 4.49907 202.333 9.31357C202.333 14.1281 198.422 18.0399 193.607 18.0399ZM193.607 2.54317C189.845 2.54317 186.836 5.55224 186.836 9.31357C186.836 13.0749 189.845 16.084 193.607 16.084C197.368 16.084 200.378 13.0749 200.378 9.31357C200.378 5.55224 197.368 2.54317 193.607 2.54317Z" fill="white"/>
<path d="M190.748 5.25125H194.359C195.412 5.25125 196.165 5.55216 196.616 6.00352C197.067 6.45488 197.218 7.0567 197.218 7.80896C197.218 9.16304 196.466 9.91531 195.262 10.2162L197.368 13.2253H195.713L193.757 10.5171H191.952V13.2253H190.447L190.748 5.25125ZM194.209 9.16304C195.262 9.16304 195.864 8.56123 195.864 7.80896C195.864 6.90624 195.262 6.45488 194.209 6.45488H192.253V9.16304H194.209Z" fill="white"/>
</svg>
