<svg xmlns="http://www.w3.org/2000/svg" version="1.0" width="500.000000pt" height="271.000000pt" viewBox="0 0 500.000000 271.000000" preserveAspectRatio="xMidYMid meet">

<g transform="translate(0.000000,271.000000) scale(0.100000,-0.100000)" fill="#ffffff" stroke="none">
<path d="M2519 2390 c-46 -43 -89 -79 -96 -80 -7 0 -17 -9 -23 -20 -12 -23 -60 -28 -60 -6 0 7 -14 27 -30 45 -29 30 -31 31 -55 15 -14 -9 -22 -20 -19 -25 3 -5 0 -9 -7 -9 -16 0 -63 -42 -226 -201 -174 -170 -215 -220 -238 -284 -10 -27 -22 -54 -27 -59 -15 -18 -9 -200 7 -242 43 -107 99 -194 125 -194 12 0 30 59 30 96 0 18 5 36 10 39 6 3 10 14 10 24 0 23 35 94 75 154 18 26 146 165 286 308 313 321 324 333 348 384 15 32 18 50 12 77 -9 40 -19 58 -30 58 -4 0 -46 -36 -92 -80z" fill="#ffffff"/>
<path d="M2375 1380 c-5 -8 -102 -26 -117 -22 -5 1 -8 -4 -8 -12 0 -8 -13 -24 -30 -36 -17 -12 -30 -30 -30 -42 0 -17 -3 -18 -15 -8 -12 10 -16 9 -21 -3 -7 -20 14 -159 26 -171 6 -6 10 -18 10 -28 0 -33 94 -158 119 -158 5 0 11 -4 13 -8 6 -15 109 -72 130 -72 12 0 41 -7 64 -16 35 -13 54 -14 110 -5 106 16 134 23 134 31 0 5 10 12 23 15 33 11 87 54 99 81 6 13 16 24 22 24 6 0 16 11 22 25 9 19 9 28 -2 44 -8 11 -11 26 -8 34 7 19 -30 40 -68 39 -24 -1 -28 3 -28 28 0 45 -17 81 -35 74 -9 -4 -17 1 -21 10 -5 14 -13 10 -42 -20 -45 -47 -113 -78 -152 -69 -16 3 -47 23 -70 43 -33 31 -41 45 -47 86 -4 36 -2 52 8 60 22 18 39 54 33 70 -4 11 -21 15 -60 15 -30 -1 -56 -5 -59 -9z m72 -402 c-3 -8 -6 -5 -6 6 -1 11 2 17 5 13 3 -3 4 -12 1 -19z" fill="#ffffff"/>
<path d="M1458 564 c-14 -3 -32 -12 -38 -20 -7 -8 -18 -14 -24 -14 -13 0 -31 -20 -59 -63 -14 -21 -18 -48 -18 -111 -1 -74 2 -89 27 -127 31 -50 54 -69 104 -86 42 -15 136 -17 145 -3 3 5 14 10 24 10 22 0 105 86 96 100 -11 18 -91 11 -117 -10 -44 -34 -74 -41 -110 -25 -47 19 -70 48 -66 82 l3 28 155 5 c94 3 155 9 155 15 0 6 -4 34 -8 64 -15 99 -73 149 -179 155 -34 2 -75 2 -90 0z m116 -84 c33 -12 57 -50 49 -78 -5 -22 -9 -23 -102 -20 -92 3 -96 4 -99 26 -8 57 81 100 152 72z" fill="#ffffff"/>
<path d="M2408 561 c-81 -26 -128 -99 -128 -199 0 -88 8 -117 47 -162 63 -73 152 -90 232 -45 23 14 45 25 47 25 3 0 9 -11 14 -25 8 -21 16 -25 50 -25 33 0 41 4 45 23 3 12 4 108 3 212 l-3 190 -46 3 c-43 3 -47 1 -53 -23 l-7 -26 -34 26 c-37 29 -119 41 -167 26z m163 -98 c31 -27 49 -67 49 -113 0 -78 -52 -130 -130 -130 -34 0 -48 6 -76 34 -31 31 -34 39 -34 95 0 53 4 64 31 96 28 32 36 35 85 35 37 0 60 -6 75 -17z" fill="#ffffff"/>
<path d="M3384 561 c-106 -27 -162 -141 -134 -273 26 -125 167 -193 292 -139 46 19 102 75 95 95 -6 18 -96 20 -103 2 -8 -21 -69 -39 -108 -32 -45 9 -78 46 -74 82 l3 29 153 3 152 3 0 45 c0 71 -31 127 -93 167 -31 20 -135 31 -183 18z m154 -108 c12 -16 21 -37 20 -48 -3 -18 -11 -20 -103 -20 -100 0 -100 0 -103 25 -3 29 23 65 53 73 11 3 40 4 65 1 34 -3 51 -11 68 -31z" fill="#ffffff"/>
<path d="M1827 553 c-3 -5 21 -49 54 -98 32 -49 59 -97 59 -105 0 -9 -25 -53 -56 -99 -30 -46 -54 -91 -52 -100 6 -29 54 -25 87 7 17 16 31 34 31 39 0 14 39 63 50 63 5 0 23 -21 41 -47 18 -25 40 -54 51 -65 19 -19 82 -25 93 -8 6 10 -32 82 -47 88 -4 2 -8 8 -8 13 0 5 -13 28 -30 51 -16 22 -30 48 -30 57 0 9 27 57 59 106 33 49 57 93 55 97 -3 4 -25 8 -49 8 -43 0 -44 0 -80 -66 -42 -75 -41 -75 -98 12 -30 46 -35 49 -79 52 -25 2 -49 -1 -51 -5z" fill="#ffffff"/>
<path d="M2856 553 c-3 -4 -6 -19 -6 -35 l0 -28 78 0 c92 0 114 -10 89 -38 -9 -10 -17 -23 -17 -29 0 -6 -4 -13 -9 -15 -4 -1 -38 -44 -75 -95 -59 -81 -67 -97 -64 -130 l3 -38 143 -3 142 -3 0 36 0 35 -74 0 c-79 0 -106 6 -106 23 0 5 17 33 38 61 21 28 58 78 82 111 24 33 47 62 52 63 15 7 9 80 -8 86 -20 8 -260 7 -268 -1z" fill="#ffffff"/>
</g>
</svg>