<svg xmlns="http://www.w3.org/2000/svg" version="1.0" width="512.000000pt" height="119.000000pt" viewBox="0 0 512.000000 119.000000" preserveAspectRatio="xMidYMid meet">

<g transform="translate(0.000000,119.000000) scale(0.100000,-0.100000)" fill="#ffffff" stroke="none">
<path d="M110 997 c0 -8 -7 -23 -16 -31 -13 -14 -13 -16 -1 -16 15 0 33 47 22 58 -3 3 -5 -2 -5 -11z" fill="#ffffff"/>
<path d="M1903 983 l-23 -4 0 -270 c0 -232 -2 -269 -15 -269 -8 0 -15 -7 -15 -15 0 -12 -14 -15 -70 -15 l-69 0 -7 35 c-3 19 -10 35 -15 35 -5 0 -9 14 -9 30 0 17 5 30 10 30 19 0 10 28 -11 33 -26 7 -79 -2 -79 -13 0 -4 -22 -10 -50 -14 l-50 -7 0 -69 c0 -54 3 -70 14 -70 8 0 17 -14 21 -30 4 -17 13 -30 21 -30 8 0 14 -6 14 -14 0 -15 30 -26 73 -26 17 0 27 -5 27 -15 0 -12 18 -15 105 -15 87 0 105 3 105 15 0 10 10 15 28 15 42 0 72 11 72 26 0 8 7 14 15 14 8 0 15 7 15 15 0 8 7 15 15 15 8 0 17 14 21 35 3 20 12 35 20 35 12 0 14 46 14 269 l0 269 -31 6 c-34 6 -110 6 -146 -1z" fill="#ffffff"/>
<path d="M2968 968 c-3 -7 -32 -14 -71 -16 l-67 -4 0 -64 0 -64 -50 0 -50 0 0 -70 c0 -70 0 -70 28 -70 15 0 37 -3 50 -6 22 -6 22 -9 22 -170 0 -143 2 -164 16 -164 9 0 18 -9 21 -20 4 -14 14 -20 34 -20 19 0 29 -5 29 -15 0 -12 17 -15 90 -15 73 0 90 3 90 15 0 10 10 15 30 15 29 0 30 1 30 49 0 55 -8 61 -88 61 -74 0 -83 17 -80 151 l3 114 83 3 82 3 0 63 c0 74 -3 76 -107 76 l-63 0 0 80 c0 62 -3 80 -14 80 -8 0 -16 -5 -18 -12z" fill="#ffffff"/>
<path d="M2353 800 c-4 -17 -14 -20 -54 -20 -37 0 -49 -4 -49 -15 0 -8 -7 -15 -15 -15 -8 0 -15 -9 -15 -20 0 -11 -7 -20 -15 -20 -8 0 -17 -14 -21 -35 -3 -20 -12 -35 -20 -35 -11 0 -14 -21 -14 -100 0 -81 3 -100 15 -100 8 0 17 -14 21 -35 3 -20 12 -35 20 -35 8 0 14 -7 14 -15 0 -8 6 -15 14 -15 7 0 16 -9 19 -20 4 -16 14 -20 51 -20 34 0 46 -4 46 -15 0 -12 18 -15 105 -15 87 0 105 3 105 15 0 10 11 15 35 15 24 0 35 5 35 15 0 8 7 15 15 15 8 0 15 9 15 20 0 13 7 20 20 20 27 0 25 20 -4 48 -19 18 -35 22 -85 22 -48 0 -61 -3 -61 -15 0 -12 -14 -15 -70 -15 -56 0 -70 3 -70 15 0 8 -9 15 -20 15 -16 0 -20 7 -20 35 l0 35 175 0 175 0 0 78 c0 90 -7 122 -26 122 -8 0 -14 9 -14 20 0 11 -7 20 -15 20 -8 0 -15 7 -15 15 0 10 -11 15 -35 15 -23 0 -35 5 -35 14 0 17 -44 26 -132 26 -61 0 -71 -2 -75 -20z m161 -136 c9 -8 16 -24 16 -35 0 -17 -8 -19 -91 -19 -90 0 -91 0 -85 23 3 12 6 28 6 35 0 19 134 16 154 -4z" fill="#ffffff"/>
<path d="M3398 813 c-16 -2 -28 -11 -28 -19 0 -10 -12 -14 -44 -14 -35 0 -45 -4 -49 -20 -3 -11 -12 -20 -21 -20 -11 0 -16 -9 -16 -30 0 -20 -5 -30 -15 -30 -8 0 -15 -6 -15 -14 0 -15 30 -26 73 -26 17 0 27 -5 27 -15 0 -10 11 -15 35 -15 32 0 35 3 35 29 0 33 17 41 93 41 35 0 47 -4 47 -15 0 -8 7 -15 15 -15 8 0 15 -9 15 -20 0 -11 -7 -20 -15 -20 -8 0 -15 -6 -15 -14 0 -10 -18 -15 -66 -18 -39 -2 -69 -9 -73 -17 -5 -7 -29 -16 -55 -18 -30 -4 -46 -10 -46 -19 0 -8 -9 -14 -20 -14 -13 0 -20 -7 -20 -20 0 -11 -7 -20 -15 -20 -12 0 -15 -14 -15 -65 0 -51 3 -65 15 -65 8 0 15 -9 15 -20 0 -13 7 -20 20 -20 11 0 20 -7 20 -15 0 -12 18 -15 100 -15 82 0 100 3 100 15 0 10 11 15 35 15 28 0 35 4 35 20 0 26 30 26 37 0 4 -14 14 -20 34 -20 19 0 29 -5 29 -15 0 -12 14 -15 70 -15 l71 0 -3 68 -3 67 -32 3 -33 3 0 150 c0 126 -2 149 -15 149 -8 0 -15 9 -15 20 0 11 -7 20 -15 20 -8 0 -15 7 -15 15 0 10 -11 15 -35 15 -23 0 -35 5 -35 14 0 23 -101 33 -192 19z m152 -338 c0 -24 -5 -35 -15 -35 -8 0 -15 -7 -15 -15 0 -12 -14 -15 -70 -15 l-70 0 0 29 c0 25 5 30 35 35 19 4 35 11 35 16 0 10 24 17 68 19 30 1 32 -1 32 -34z" fill="#ffffff"/>
<path d="M3857 814 c-4 -4 -7 -182 -7 -396 l0 -388 90 0 90 0 0 155 c0 131 2 155 15 155 8 0 15 -9 15 -20 0 -13 7 -20 20 -20 11 0 20 -7 20 -15 0 -12 16 -15 85 -15 69 0 85 3 85 15 0 10 10 15 29 15 20 0 30 6 34 20 3 11 12 20 21 20 11 0 16 9 16 30 0 19 5 30 14 30 10 0 16 21 21 75 9 96 -2 205 -21 205 -9 0 -14 12 -14 35 0 24 -5 35 -15 35 -8 0 -15 7 -15 15 0 10 -11 15 -35 15 -23 0 -35 5 -35 14 0 22 -93 34 -147 20 -13 -4 -23 -13 -23 -20 0 -8 -9 -14 -20 -14 -11 0 -20 -7 -20 -15 0 -8 -7 -15 -15 -15 -9 0 -18 -7 -21 -15 -12 -29 -23 -15 -26 33 l-3 47 -65 3 c-36 2 -69 0 -73 -4z m341 -171 c2 -21 9 -33 18 -33 11 0 14 -16 14 -70 0 -56 -3 -70 -15 -70 -10 0 -15 -10 -15 -30 l0 -30 -70 0 c-56 0 -70 3 -70 15 0 8 -7 15 -15 15 -12 0 -15 18 -15 100 0 82 3 100 15 100 8 0 15 9 15 20 0 19 5 21 68 18 l67 -3 3 -32z" fill="#ffffff"/>
<path d="M4693 813 c-13 -2 -23 -11 -23 -19 0 -10 -13 -14 -45 -14 -33 0 -45 -4 -45 -15 0 -8 -9 -15 -20 -15 -13 0 -20 -7 -20 -20 0 -11 -6 -20 -14 -20 -8 0 -18 -14 -21 -32 -4 -18 -13 -36 -19 -40 -16 -10 -15 -190 1 -195 7 -3 15 -20 19 -39 3 -19 12 -34 20 -34 8 0 14 -6 14 -14 0 -7 9 -16 20 -19 11 -3 20 -12 20 -21 0 -12 10 -16 45 -16 33 0 45 -4 45 -15 0 -12 18 -15 105 -15 87 0 105 3 105 15 0 10 11 15 35 15 28 0 35 4 35 20 0 13 7 20 20 20 11 0 20 7 20 15 0 8 7 15 15 15 10 0 15 10 15 30 0 20 5 30 15 30 12 0 15 19 15 110 0 91 -3 110 -15 110 -10 0 -15 10 -15 30 0 19 -5 30 -14 30 -7 0 -16 9 -19 20 -3 11 -12 20 -21 20 -9 0 -16 7 -16 15 0 10 -11 15 -35 15 -23 0 -35 5 -35 14 0 22 -111 34 -187 19z m141 -149 c9 -8 16 -24 16 -35 0 -10 7 -19 15 -19 12 0 15 -14 15 -65 0 -49 -3 -65 -14 -65 -8 0 -17 -15 -20 -35 l-7 -35 -64 0 c-51 0 -65 3 -65 15 0 8 -6 15 -14 15 -15 0 -26 43 -26 105 0 62 11 105 26 105 8 0 14 7 14 15 0 22 103 21 124 -1z" fill="#ffffff"/>
<path d="M572 790 c0 -14 2 -19 5 -12 2 6 2 18 0 25 -3 6 -5 1 -5 -13z" fill="#ffffff"/>
</g>
</svg>