<svg xmlns="http://www.w3.org/2000/svg" version="1.0" width="512.000000pt" height="165.000000pt" viewBox="0 0 512.000000 165.000000" preserveAspectRatio="xMidYMid meet">

<g transform="translate(0.000000,165.000000) scale(0.100000,-0.100000)" fill="#ffffff" stroke="none">
<path d="M785 1636 c-60 -26 -73 -109 -26 -157 33 -33 75 -38 120 -14 33 16 41 33 41 81 0 46 -14 70 -50 89 -35 18 -46 18 -85 1z" fill="#ffffff"/>
<path d="M400 1522 c-42 -42 -42 -101 -1 -143 62 -61 161 -19 161 70 0 55 -32 90 -87 98 -37 5 -45 2 -73 -25z" fill="#ffffff"/>
<path d="M1138 1534 c-89 -48 -47 -184 56 -184 14 0 40 13 58 29 27 24 33 36 33 71 0 35 -6 47 -33 71 -36 32 -72 36 -114 13z" fill="#ffffff"/>
<path d="M128 1250 c-27 -28 -30 -36 -25 -73 8 -55 43 -87 98 -87 89 0 131 99 70 161 -42 41 -101 41 -143 -1z" fill="#ffffff"/>
<path d="M1393 1262 c-33 -26 -46 -68 -33 -108 14 -41 49 -64 99 -64 49 0 91 43 91 95 0 21 -9 45 -26 64 -21 26 -33 31 -67 31 -24 0 -51 -8 -64 -18z" fill="#ffffff"/>
<path d="M1970 1180 c-19 -19 -20 -33 -20 -330 0 -297 1 -311 20 -330 23 -23 58 -26 86 -6 16 12 20 29 22 113 4 107 7 113 84 175 l38 29 104 -159 c57 -87 111 -162 121 -165 29 -12 63 -8 79 9 33 33 19 66 -100 240 l-117 169 96 90 c106 99 122 130 88 164 -44 44 -62 32 -232 -141 l-158 -163 -1 136 c0 122 -2 139 -21 163 -25 31 -61 34 -89 6z" fill="#ffffff"/>
<path d="M2627 1172 c-35 -39 -10 -92 43 -92 35 0 60 23 60 55 0 50 -69 75 -103 37z" fill="#ffffff"/>
<path d="M3590 1175 c-7 -8 -12 -26 -12 -40 0 -36 20 -55 56 -55 40 0 56 16 56 55 0 17 -5 36 -12 43 -17 17 -73 15 -88 -3z" fill="#ffffff"/>
<path d="M2630 990 c-19 -19 -20 -33 -20 -233 0 -236 5 -257 60 -257 55 0 60 21 60 257 0 200 -1 214 -20 233 -11 11 -29 20 -40 20 -11 0 -29 -9 -40 -20z" fill="#ffffff"/>
<path d="M2807 992 c-10 -10 -17 -26 -17 -34 0 -30 138 -420 156 -439 10 -11 30 -19 51 -19 46 0 61 27 109 200 21 77 42 140 46 140 4 0 12 -19 18 -42 30 -115 82 -269 96 -282 22 -23 70 -20 93 5 23 25 151 397 151 440 0 33 -30 54 -66 45 -24 -6 -36 -38 -105 -279 -12 -43 -25 -74 -29 -70 -4 4 -26 78 -50 162 -24 86 -52 163 -62 173 -26 26 -73 23 -95 -5 -10 -13 -38 -94 -62 -180 -25 -87 -48 -154 -51 -150 -4 5 -26 76 -50 158 -23 83 -49 160 -57 173 -16 27 -54 29 -76 4z" fill="#ffffff"/>
<path d="M3603 1002 c-26 -16 -33 -69 -33 -247 0 -178 7 -231 33 -247 21 -13 53 -9 70 10 15 16 17 48 17 239 0 200 -2 221 -18 236 -20 18 -49 22 -69 9z" fill="#ffffff"/>
<path d="M43 905 c-34 -24 -47 -76 -29 -118 17 -42 42 -57 93 -57 41 1 63 13 81 47 35 65 -12 143 -85 143 -21 0 -48 -7 -60 -15z" fill="#ffffff"/>
<path d="M1483 896 c-23 -20 -28 -32 -28 -71 0 -60 35 -95 96 -95 49 0 99 43 99 85 0 34 -25 82 -49 95 -35 18 -88 12 -118 -14z" fill="#ffffff"/>
<path d="M147 549 c-22 -13 -47 -61 -47 -93 0 -14 13 -40 29 -58 24 -27 36 -33 71 -33 72 0 121 76 89 138 -26 51 -95 73 -142 46z" fill="#ffffff"/>
<path d="M1388 531 c-27 -24 -33 -36 -32 -70 2 -46 20 -73 65 -91 95 -40 174 87 100 161 -40 40 -89 40 -133 0z" fill="#ffffff"/>
<path d="M423 285 c-39 -17 -53 -42 -53 -93 0 -81 95 -120 159 -66 25 21 31 33 31 66 0 52 -14 77 -55 94 -41 17 -42 17 -82 -1z" fill="#ffffff"/>
<path d="M1154 290 c-34 -14 -64 -59 -64 -97 0 -80 104 -124 163 -69 62 57 34 154 -48 169 -16 3 -40 2 -51 -3z" fill="#ffffff"/>
<path d="M784 191 c-32 -14 -54 -51 -54 -89 0 -44 14 -68 50 -87 42 -22 74 -19 109 11 62 52 31 159 -49 169 -19 3 -45 1 -56 -4z" fill="#ffffff"/>
</g>
</svg>