<svg width="1060" height="332" viewBox="0 0 1060 332" fill="none" xmlns="http://www.w3.org/2000/svg">
<path d="M571.371 192.89L590.506 208.08L581.826 215.625L562.987 200.534L571.371 192.89ZM590.851 165.273V168.972C590.851 174.396 590.128 179.279 588.681 183.619C587.235 187.926 585.163 191.591 582.467 194.616C579.804 197.641 576.632 199.959 572.949 201.57C569.267 203.181 565.19 203.986 560.719 203.986C556.28 203.986 552.203 203.181 548.488 201.57C544.806 199.959 541.617 197.641 538.921 194.616C536.225 191.591 534.137 187.926 532.658 183.619C531.178 179.279 530.438 174.396 530.438 168.972V165.273C530.438 159.815 531.162 154.933 532.608 150.626C534.088 146.319 536.159 142.653 538.822 139.628C541.518 136.571 544.707 134.236 548.39 132.625C552.105 131.014 556.182 130.209 560.62 130.209C565.091 130.209 569.168 131.014 572.851 132.625C576.566 134.236 579.755 136.571 582.418 139.628C585.114 142.653 587.185 146.319 588.632 150.626C590.111 154.933 590.851 159.815 590.851 165.273ZM577.141 168.972V165.174C577.141 161.262 576.779 157.826 576.056 154.867C575.333 151.875 574.248 149.36 572.801 147.322C571.388 145.283 569.661 143.755 567.623 142.735C565.585 141.683 563.25 141.157 560.62 141.157C558.023 141.157 555.705 141.683 553.667 142.735C551.628 143.755 549.902 145.283 548.488 147.322C547.075 149.36 545.99 151.875 545.233 154.867C544.51 157.826 544.148 161.262 544.148 165.174V168.972C544.148 172.851 544.51 176.287 545.233 179.279C545.99 182.271 547.075 184.802 548.488 186.874C549.935 188.912 551.677 190.457 553.716 191.509C555.787 192.561 558.121 193.087 560.719 193.087C563.349 193.087 565.683 192.561 567.722 191.509C569.76 190.457 571.47 188.912 572.851 186.874C574.264 184.802 575.333 182.271 576.056 179.279C576.779 176.287 577.141 172.851 577.141 168.972ZM633.263 190.326V149.64H646.381V203H634.052L633.263 190.326ZM634.94 179.279L638.984 179.18C638.984 182.764 638.589 186.068 637.8 189.093C637.011 192.118 635.778 194.748 634.102 196.983C632.458 199.186 630.37 200.912 627.838 202.162C625.307 203.378 622.315 203.986 618.863 203.986C616.233 203.986 613.833 203.625 611.663 202.901C609.493 202.145 607.619 200.978 606.041 199.4C604.495 197.789 603.295 195.734 602.44 193.235C601.586 190.704 601.158 187.663 601.158 184.112V149.64H614.178V184.21C614.178 185.986 614.375 187.465 614.77 188.649C615.197 189.833 615.772 190.802 616.496 191.559C617.252 192.282 618.123 192.808 619.109 193.137C620.129 193.433 621.214 193.581 622.364 193.581C625.521 193.581 628.003 192.956 629.811 191.707C631.652 190.424 632.967 188.715 633.756 186.578C634.545 184.408 634.94 181.975 634.94 179.279ZM671.73 149.64V203H658.661V149.64H671.73ZM657.773 135.683C657.773 133.743 658.431 132.132 659.746 130.85C661.094 129.568 662.902 128.927 665.171 128.927C667.439 128.927 669.231 129.568 670.546 130.85C671.894 132.132 672.568 133.743 672.568 135.683C672.568 137.59 671.894 139.185 670.546 140.467C669.231 141.749 667.439 142.39 665.171 142.39C662.902 142.39 661.094 141.749 659.746 140.467C658.431 139.185 657.773 137.59 657.773 135.683ZM706.054 193.729C707.895 193.729 709.539 193.367 710.986 192.644C712.432 191.92 713.583 190.901 714.438 189.586C715.326 188.271 715.802 186.742 715.868 185H728.148C728.082 188.616 727.063 191.854 725.09 194.715C723.118 197.575 720.487 199.844 717.2 201.521C713.945 203.164 710.295 203.986 706.251 203.986C702.142 203.986 698.558 203.296 695.5 201.915C692.443 200.534 689.895 198.611 687.856 196.145C685.851 193.679 684.339 190.819 683.319 187.564C682.333 184.309 681.84 180.824 681.84 177.109V175.531C681.84 171.816 682.333 168.331 683.319 165.076C684.339 161.821 685.851 158.96 687.856 156.495C689.895 154.029 692.443 152.105 695.5 150.725C698.558 149.344 702.125 148.653 706.202 148.653C710.509 148.653 714.29 149.492 717.545 151.168C720.833 152.845 723.397 155.212 725.238 158.27C727.112 161.328 728.082 164.928 728.148 169.07H715.868C715.802 167.163 715.375 165.454 714.586 163.941C713.797 162.429 712.679 161.213 711.232 160.292C709.786 159.371 708.027 158.911 705.956 158.911C703.753 158.911 701.912 159.371 700.432 160.292C698.986 161.213 697.851 162.478 697.029 164.089C696.24 165.667 695.681 167.443 695.353 169.416C695.057 171.355 694.909 173.394 694.909 175.531V177.109C694.909 179.279 695.057 181.35 695.353 183.323C695.681 185.295 696.24 187.071 697.029 188.649C697.851 190.194 698.986 191.427 700.432 192.348C701.912 193.268 703.786 193.729 706.054 193.729ZM749.847 127.201V203H736.828V127.201H749.847ZM783.284 149.64L760.056 175.728L747.48 188.501L743.337 178.391L753.053 166.161L767.552 149.64H783.284ZM769.968 203L753.447 178.145L762.127 169.711L785.059 203H769.968ZM833.192 179.377H846.754C846.392 184.178 845.061 188.435 842.759 192.15C840.458 195.833 837.252 198.726 833.143 200.83C829.033 202.934 824.052 203.986 818.2 203.986C813.695 203.986 809.635 203.197 806.019 201.619C802.435 200.008 799.361 197.723 796.796 194.764C794.265 191.772 792.325 188.189 790.977 184.013C789.629 179.805 788.955 175.087 788.955 169.859V164.385C788.955 159.158 789.646 154.44 791.026 150.231C792.407 146.023 794.38 142.439 796.944 139.48C799.542 136.489 802.649 134.187 806.265 132.576C809.915 130.965 813.991 130.16 818.496 130.16C824.348 130.16 829.296 131.245 833.34 133.415C837.384 135.552 840.524 138.494 842.759 142.242C844.995 145.99 846.343 150.297 846.803 155.163H833.241C832.978 152.138 832.321 149.574 831.269 147.47C830.249 145.366 828.704 143.771 826.633 142.686C824.594 141.568 821.882 141.009 818.496 141.009C815.865 141.009 813.548 141.502 811.542 142.489C809.569 143.475 807.925 144.955 806.61 146.927C805.295 148.867 804.309 151.3 803.651 154.226C802.994 157.119 802.665 160.473 802.665 164.287V169.859C802.665 173.509 802.961 176.78 803.553 179.673C804.145 182.567 805.065 185.016 806.314 187.021C807.564 189.027 809.175 190.556 811.147 191.608C813.12 192.66 815.471 193.186 818.2 193.186C821.52 193.186 824.216 192.66 826.288 191.608C828.392 190.556 829.986 189.011 831.071 186.972C832.189 184.934 832.896 182.402 833.192 179.377ZM885.665 191.657V167.048C885.665 165.24 885.352 163.678 884.728 162.363C884.103 161.048 883.149 160.029 881.867 159.306C880.585 158.582 878.958 158.221 876.985 158.221C875.242 158.221 873.714 158.517 872.398 159.108C871.116 159.7 870.13 160.539 869.439 161.624C868.749 162.676 868.404 163.892 868.404 165.273H855.335C855.335 163.07 855.861 160.982 856.913 159.01C857.965 157.004 859.461 155.229 861.401 153.684C863.374 152.105 865.724 150.873 868.453 149.985C871.215 149.097 874.305 148.653 877.725 148.653C881.769 148.653 885.369 149.344 888.525 150.725C891.714 152.073 894.213 154.111 896.021 156.84C897.862 159.569 898.783 163.004 898.783 167.147V190.424C898.783 193.087 898.947 195.372 899.276 197.279C899.638 199.153 900.164 200.781 900.854 202.162V203H887.588C886.963 201.652 886.486 199.942 886.158 197.871C885.829 195.767 885.665 193.696 885.665 191.657ZM887.489 170.5L887.588 178.243H879.352C877.314 178.243 875.522 178.457 873.977 178.884C872.431 179.279 871.166 179.871 870.179 180.66C869.193 181.416 868.453 182.336 867.96 183.421C867.467 184.473 867.22 185.674 867.22 187.021C867.22 188.337 867.516 189.52 868.108 190.572C868.733 191.624 869.62 192.463 870.771 193.087C871.955 193.679 873.335 193.975 874.914 193.975C877.215 193.975 879.221 193.515 880.93 192.594C882.64 191.641 883.971 190.49 884.925 189.142C885.878 187.794 886.388 186.512 886.454 185.295L890.202 190.917C889.741 192.265 889.051 193.696 888.13 195.208C887.21 196.72 886.026 198.134 884.58 199.449C883.133 200.764 881.39 201.849 879.352 202.704C877.314 203.559 874.946 203.986 872.25 203.986C868.798 203.986 865.708 203.296 862.979 201.915C860.25 200.534 858.097 198.644 856.519 196.244C854.94 193.844 854.151 191.115 854.151 188.057C854.151 185.23 854.677 182.731 855.729 180.561C856.782 178.391 858.343 176.566 860.415 175.087C862.486 173.575 865.05 172.44 868.108 171.684C871.198 170.895 874.733 170.5 878.711 170.5H887.489ZM923.49 160.588V203H910.471V149.64H922.75L923.49 160.588ZM921.567 174.396H917.572C917.572 170.681 918.016 167.262 918.904 164.139C919.824 161.015 921.172 158.303 922.948 156.001C924.723 153.667 926.91 151.859 929.507 150.577C932.137 149.294 935.178 148.653 938.63 148.653C941.03 148.653 943.233 149.015 945.239 149.738C947.244 150.429 948.97 151.53 950.417 153.042C951.896 154.522 953.031 156.462 953.82 158.862C954.609 161.229 955.003 164.073 955.003 167.394V203H941.984V168.725C941.984 166.226 941.622 164.27 940.899 162.856C940.208 161.443 939.206 160.456 937.891 159.897C936.576 159.306 934.997 159.01 933.156 159.01C931.118 159.01 929.359 159.421 927.879 160.243C926.433 161.032 925.233 162.133 924.279 163.547C923.359 164.961 922.668 166.588 922.208 168.429C921.781 170.27 921.567 172.259 921.567 174.396ZM954.017 171.98L948.642 172.966C948.674 169.613 949.135 166.473 950.022 163.547C950.91 160.588 952.209 158.007 953.918 155.804C955.661 153.569 957.814 151.826 960.379 150.577C962.976 149.294 965.968 148.653 969.354 148.653C971.985 148.653 974.352 149.031 976.456 149.788C978.593 150.511 980.418 151.678 981.93 153.289C983.443 154.867 984.593 156.922 985.382 159.454C986.204 161.985 986.615 165.076 986.615 168.725V203H973.497V168.676C973.497 166.078 973.135 164.089 972.412 162.708C971.722 161.328 970.719 160.374 969.404 159.848C968.089 159.289 966.543 159.01 964.768 159.01C962.96 159.01 961.382 159.355 960.034 160.045C958.719 160.703 957.601 161.624 956.68 162.807C955.792 163.991 955.118 165.372 954.658 166.95C954.231 168.495 954.017 170.172 954.017 171.98Z" fill="white"/>
<path d="M1009.16 114.008V146H1002.59V114.008H1009.16ZM1019 114.008V119.171H992.901V114.008H1019ZM1025.77 114.008H1031.35L1039.57 137.497L1047.79 114.008H1053.37L1041.81 146H1037.33L1025.77 114.008ZM1022.76 114.008H1028.32L1029.33 136.903V146H1022.76V114.008ZM1050.82 114.008H1056.4V146H1049.81V136.903L1050.82 114.008Z" fill="white"/>
<path d="M386.979 271.826C409.696 254.16 424.899 228.554 429.539 200.143C434.179 171.731 427.913 142.615 411.998 118.632C396.083 94.6494 371.695 77.5741 343.725 70.8304C315.755 64.0866 286.271 68.173 261.186 82.2701C236.101 96.3672 217.27 119.433 208.468 146.841C199.666 174.249 201.546 203.974 213.729 230.054C225.912 256.134 247.498 276.641 274.158 287.462C300.819 298.284 330.582 298.62 357.48 288.403L390.531 331.917H166.317C154.918 331.75 143.812 328.274 134.349 321.913C124.885 315.552 117.471 306.578 113.007 296.081C104.584 267.767 100.458 238.346 100.769 208.805C98.979 176.247 96.4259 142.494 81.8705 116.142C68.106 91.0529 42.3392 73.8919 0.00504311 72.1148C-0.00107641 66.2093 1.32601 60.3787 3.88722 55.0583C6.44843 49.738 10.1776 45.0652 14.7963 41.3889C29.6277 31.8344 47.1527 27.3432 64.7481 28.5877C90.8757 28.3794 117.17 28.3516 143.353 28.3377H170.285C265.402 28.3377 357.882 28.8376 439.22 28.5877C449.537 29.7979 458.986 34.9534 465.591 42.9755C472.196 50.9975 475.445 61.2647 474.658 71.6288C474.769 87.2486 474.852 103.077 474.894 118.932V130.831V142.3C474.977 193.921 474.797 244.862 474.617 288.945C474.824 294.528 473.903 300.095 471.908 305.313C469.913 310.531 466.886 315.292 463.008 319.311C459.13 323.33 454.481 326.525 449.34 328.703C444.198 330.881 438.67 331.997 433.087 331.986H432.588L386.979 271.826ZM42.6028 331.917C36.9673 331.956 31.3807 330.869 26.171 328.718C20.9613 326.567 16.2336 323.396 12.2654 319.392C8.2972 315.388 5.16855 310.631 3.06315 305.4C0.957752 300.169 -0.0819685 294.57 0.00504311 288.931C0.254802 220.579 0.254802 149.867 0.00504311 86.4433C38.2598 87.9844 57.6577 102.063 69.3825 123.042C81.6485 145.576 84.6456 177.316 86.4772 209.819C88.2671 242.072 88.7666 275.075 99.4924 301.455C103.847 312.959 111.144 323.119 120.653 330.917L121.943 331.917H42.6028ZM242.299 182.786C242.326 170.216 245.534 157.857 251.622 146.863C257.711 135.868 266.483 126.594 277.12 119.908C287.758 113.221 299.914 109.338 312.456 108.621C324.997 107.904 337.516 110.376 348.845 115.807C360.175 121.238 369.945 129.451 377.246 139.681C384.546 149.91 389.139 161.823 390.597 174.308C392.055 186.793 390.329 199.445 385.582 211.083C380.834 222.72 373.219 232.966 363.446 240.864L333.933 201.988H291.862L332.629 255.651C321.747 258.029 310.471 257.934 299.631 255.373C288.791 252.812 278.664 247.85 269.995 240.852C261.325 233.855 254.336 225.001 249.54 214.942C244.744 204.883 242.265 193.875 242.285 182.731L242.299 182.786ZM56.1176 21.4095C56.1176 20.0211 56.6865 0.791402 69.8266 0H70.673H113.784C127.451 0 128.27 18.9936 128.326 21.2845V21.4928H56.1731L56.1176 21.4095Z" fill="url(#paint0_linear_11384_33361)"/>
<defs>
<linearGradient id="paint0_linear_11384_33361" x1="487.738" y1="331.986" x2="149.467" y2="-81.7128" gradientUnits="userSpaceOnUse">
<stop stop-color="#6A11CB"/>
<stop offset="1" stop-color="#2575FC"/>
</linearGradient>
</defs>
</svg>
