<?xml version="1.0" encoding="UTF-8"?>
<svg version="1.1" xmlns="http://www.w3.org/2000/svg" width="503" height="187">
<path d="M0 0 C2.40365601 1.88858687 4.54641589 3.82402481 6.625 6.0625 C6.955 3.0925 7.285 0.1225 7.625 -2.9375 C13.565 -2.9375 19.505 -2.9375 25.625 -2.9375 C25.625 29.0725 25.625 61.0825 25.625 94.0625 C19.685 94.0625 13.745 94.0625 7.625 94.0625 C7.295 83.5025 6.965 72.9425 6.625 62.0625 C3.655 64.7025 0.685 67.3425 -2.375 70.0625 C-11.04323314 74.08255015 -20.00459136 74.43065763 -29.125 71.5 C-38.03097902 67.84790788 -45.16131525 60.65306443 -49.375 52.01171875 C-53.61927465 40.85009263 -53.43200537 27.96787694 -49.1484375 16.890625 C-44.73347158 7.39962875 -39.26727053 0.84092963 -29.375 -2.9375 C-19.08187938 -6.44879846 -9.42942161 -5.41318648 0 0 Z M-29.05078125 17.7890625 C-33.45699251 24.10593173 -35.15877175 32.10398236 -33.875 39.6875 C-32.03452465 46.17575805 -28.58212928 52.20025361 -22.625 55.625 C-17.23499614 57.85711992 -11.70923855 58.09826695 -6.13671875 56.3671875 C-0.07340341 53.64954334 3.78277438 49.40853662 6.4375 43.3125 C8.71934101 36.48001606 8.44952338 29.48832899 5.60546875 22.87890625 C2.65118462 17.40583008 -1.31845461 13.60118963 -7.1875 11.375 C-15.6034571 10.17272041 -22.88178528 11.43312726 -29.05078125 17.7890625 Z " fill="#2372B5" transform="translate(390.375,49.9375)"/>
<path d="M0 0 C-1.38780795 3.89006773 -3.2152227 6.96558708 -5.625 10.3125 C-6.57246094 11.63701172 -6.57246094 11.63701172 -7.5390625 12.98828125 C-8.02117187 13.65214844 -8.50328125 14.31601562 -9 15 C-9.52464844 14.73316406 -10.04929688 14.46632813 -10.58984375 14.19140625 C-13.55862547 12.72385613 -16.55731746 11.32897815 -19.5625 9.9375 C-20.69816406 9.41027344 -21.83382812 8.88304688 -23.00390625 8.33984375 C-30.16758478 5.13626913 -38.13173098 4.73280843 -45.625 7.1875 C-48.41107107 9.31371213 -49.73178316 10.71755642 -51 14 C-51.16585191 17.58905085 -51.16585191 17.58905085 -50 21 C-46.39979772 24.47514955 -42.92405209 25.9544409 -38.1875 27.4375 C-37.54022949 27.64576416 -36.89295898 27.85402832 -36.22607422 28.06860352 C-32.75917877 29.176396 -29.27547645 30.21442387 -25.77734375 31.21875 C-14.96276059 34.36189226 -5.38593438 38.17215522 1 48 C4.56041631 56.57736657 3.68045375 65.01192114 0.25 73.45703125 C-3.92751902 81.9556715 -10.37988921 85.69317373 -19.15234375 88.75 C-35.39994299 93.10689812 -51.99561885 88.8214733 -66.23046875 80.78125 C-68.98083626 79.01232534 -71.4896736 77.09270354 -74 75 C-72.62815653 70.93501119 -70.77931541 68.32603439 -67.875 65.1875 C-67.15054688 64.39730469 -66.42609375 63.60710937 -65.6796875 62.79296875 C-65.12539062 62.20128906 -64.57109375 61.60960938 -64 61 C-60.51461573 62.2757361 -57.69673712 63.7754704 -54.6875 65.9375 C-46.31136671 71.58587936 -37.2980891 74.19495099 -27.11328125 72.52734375 C-22.33726376 71.25141499 -19.67361797 70.33338693 -17 66 C-15.93989859 62.44108812 -15.67423936 60.73724776 -17.1875 57.3125 C-20.68793888 52.84642281 -24.1793443 51.4439622 -29.6015625 49.94921875 C-30.91024395 49.57647965 -32.21883476 49.20342221 -33.52734375 48.83007812 C-35.56613516 48.25908981 -37.60601474 47.69270342 -39.64794922 47.13305664 C-61.37543932 41.13880998 -61.37543932 41.13880998 -66.5625 32.375 C-67.24505859 31.27285156 -67.24505859 31.27285156 -67.94140625 30.1484375 C-71.3112283 23.30931526 -70.98318468 14.46637232 -68.9375 7.25 C-65.85915545 -0.61688051 -60.27351258 -5.63897034 -52.65234375 -9.03125 C-33.90830218 -15.87738006 -16.15513636 -10.19721373 0 0 Z " fill="#2372B5" transform="translate(209,33)"/>
<path d="M0 0 C3.94800129 1.79251681 6.71302985 5.11712696 9.73632812 8.15185547 C10.43371094 8.82087891 11.13109375 9.48990234 11.84960938 10.17919922 C12.50832031 10.83533203 13.16703125 11.49146484 13.84570312 12.16748047 C14.44866211 12.76334961 15.05162109 13.35921875 15.67285156 13.97314453 C17.39285117 16.49879451 17.43825266 17.90159505 16.98632812 20.90185547 C15.79638672 22.73876953 15.79638672 22.73876953 14.13476562 24.41748047 C13.22791016 25.33400391 13.22791016 25.33400391 12.30273438 26.26904297 C11.66207031 26.89037109 11.02140625 27.51169922 10.36132812 28.15185547 C9.74386719 28.78865234 9.12640625 29.42544922 8.49023438 30.08154297 C5.6069489 32.93447807 3.60656126 34.69880295 -0.29492188 35.97607422 C-3.01367188 35.90185547 -3.01367188 35.90185547 -5.88867188 33.46435547 C-6.58992188 32.61873047 -7.29117188 31.77310547 -8.01367188 30.90185547 C-11.37282345 32.34149186 -13.72992126 34.02602136 -16.01367188 36.90185547 C-16.16274307 38.97639107 -16.16274307 38.97639107 -15.01367188 40.90185547 C-14.31242187 41.54123047 -13.61117187 42.18060547 -12.88867188 42.83935547 C-11.01367188 44.90185547 -11.01367188 44.90185547 -10.97460938 47.07763672 C-12.55429827 51.3713024 -15.52951127 53.99625747 -18.76367188 57.15185547 C-19.385 57.78865234 -20.00632813 58.42544922 -20.64648438 59.08154297 C-23.28505872 61.69785086 -25.31306443 63.6314112 -28.80664062 64.97998047 C-32.29571316 64.85647348 -33.66529388 62.31044828 -36.01367188 59.90185547 C-38.10428419 59.58925966 -38.10428419 59.58925966 -40.01367188 60.90185547 C-42.74323037 63.38092516 -42.74323037 63.38092516 -45.01367188 65.90185547 C-43.9967575 68.17035677 -43.27446734 69.68935546 -41.32617188 71.27685547 C-40.01367188 72.90185547 -40.01367188 72.90185547 -40.07617188 75.83935547 C-41.11559751 79.23481253 -42.32522734 80.64703102 -45.01367188 82.90185547 C-43.57403548 86.26100705 -41.88950599 88.61810485 -39.01367188 90.90185547 C-36.93913628 91.05092667 -36.93913628 91.05092667 -35.01367188 89.90185547 C-34.37429687 89.20060547 -33.73492187 88.49935547 -33.07617188 87.77685547 C-31.01367188 85.90185547 -31.01367188 85.90185547 -28.83789062 85.86279297 C-24.54422494 87.44248187 -21.91926987 90.41769487 -18.76367188 93.65185547 C-18.126875 94.27318359 -17.49007812 94.89451172 -16.83398438 95.53466797 C-14.21767648 98.17324231 -12.28411615 100.20124802 -10.93554688 103.69482422 C-11.05905387 107.18389675 -13.60507906 108.55347748 -16.01367188 110.90185547 C-16.32626768 112.99246778 -16.32626768 112.99246778 -15.01367188 114.90185547 C-12.53460219 117.63141397 -12.53460219 117.63141397 -10.01367188 119.90185547 C-7.78155115 118.90124962 -6.21112018 118.1250579 -4.57617188 116.27685547 C-3.01367187 114.90185547 -3.01367187 114.90185547 -0.65161133 114.62182617 C2.55942713 114.96269254 3.48717892 115.75988893 5.75585938 118.00732422 C6.41650391 118.66152344 7.07714844 119.31572266 7.7578125 119.98974609 C8.76811523 121.02905273 8.76811523 121.02905273 9.79882812 122.08935547 C10.49169922 122.76289062 11.18457031 123.43642578 11.8984375 124.13037109 C12.55263672 124.79101562 13.20683594 125.45166016 13.88085938 126.13232422 C14.47745361 126.73455811 15.07404785 127.33679199 15.6887207 127.95727539 C17.39339579 130.51188255 17.47100313 131.8839848 16.98632812 134.90185547 C15.58105469 136.95410156 15.58105469 136.95410156 13.62695312 138.92529297 C12.923125 139.63556641 12.21929687 140.34583984 11.49414062 141.07763672 C10.7490625 141.80337891 10.00398438 142.52912109 9.23632812 143.27685547 C8.50671875 144.02580078 7.77710937 144.77474609 7.02539062 145.54638672 C5.96191406 146.60019531 5.96191406 146.60019531 4.87695312 147.67529297 C4.22758789 148.31901855 3.57822266 148.96274414 2.90917969 149.62597656 C0.98632813 150.90185547 0.98632813 150.90185547 -1.02734375 150.80371094 C-4.97534504 149.01119413 -7.7403736 145.68658398 -10.76367188 142.65185547 C-11.46105469 141.98283203 -12.1584375 141.31380859 -12.87695312 140.62451172 C-13.53566406 139.96837891 -14.194375 139.31224609 -14.87304688 138.63623047 C-15.47600586 138.04036133 -16.07896484 137.44449219 -16.70019531 136.83056641 C-18.3850664 134.3564992 -18.34029127 132.83811565 -18.01367188 129.90185547 C-16.60534361 127.58314358 -14.8773263 125.90528397 -13.01367188 123.90185547 C-15.32367188 121.59185547 -17.63367187 119.28185547 -20.01367188 116.90185547 C-23.86078985 118.49968643 -23.86078985 118.49968643 -25.45117188 120.58935547 C-25.96679688 121.02248047 -26.48242188 121.45560547 -27.01367188 121.90185547 C-32.99719918 121.34968225 -35.84803586 117.73090057 -39.88867188 113.65185547 C-40.58992188 112.98283203 -41.29117188 112.31380859 -42.01367188 111.62451172 C-42.67109375 110.96837891 -43.32851563 110.31224609 -44.00585938 109.63623047 C-44.60769043 109.04036133 -45.20952148 108.44449219 -45.82958984 107.83056641 C-47.01367188 105.90185547 -47.01367188 105.90185547 -46.83056641 103.31298828 C-45.82920471 100.35738514 -44.34282025 98.93046857 -42.01367188 96.90185547 C-43.59672958 92.62759967 -46.51935591 90.63653752 -50.01367188 87.90185547 C-50.73554687 88.72685547 -51.45742188 89.55185547 -52.20117188 90.40185547 C-55.01367188 92.90185547 -55.01367188 92.90185547 -57.43798828 93.26806641 C-60.66800141 92.80882283 -61.73649893 91.82314507 -64.03710938 89.54248047 C-65.10251953 88.48673828 -65.10251953 88.48673828 -66.18945312 87.40966797 C-66.91519531 86.66458984 -67.6409375 85.91951172 -68.38867188 85.15185547 C-69.13761719 84.42224609 -69.8865625 83.69263672 -70.65820312 82.94091797 C-71.36074219 82.23193359 -72.06328125 81.52294922 -72.78710938 80.79248047 C-73.43083496 80.14311523 -74.07456055 79.49375 -74.73779297 78.82470703 C-76.01367188 76.90185547 -76.01367188 76.90185547 -75.91552734 74.88818359 C-74.12301053 70.9401823 -70.79840039 68.17515374 -67.76367188 65.15185547 C-67.09464844 64.45447266 -66.425625 63.75708984 -65.73632812 63.03857422 C-65.08019531 62.37986328 -64.4240625 61.72115234 -63.74804688 61.04248047 C-63.15217773 60.43952148 -62.55630859 59.8365625 -61.94238281 59.21533203 C-59.4683156 57.53046095 -57.94993206 57.57523607 -55.01367188 57.90185547 C-52.69495999 59.31018373 -51.01710038 61.03820105 -49.01367188 62.90185547 C-46.70367187 60.59185547 -44.39367187 58.28185547 -42.01367188 55.90185547 C-43.61150284 52.05473749 -43.61150284 52.05473749 -45.70117188 50.46435547 C-46.13429688 49.94873047 -46.56742188 49.43310547 -47.01367188 48.90185547 C-46.46149865 42.91832817 -42.84271697 40.06749148 -38.76367188 36.02685547 C-38.09464844 35.32560547 -37.425625 34.62435547 -36.73632812 33.90185547 C-35.75212891 32.91572266 -35.75212891 32.91572266 -34.74804688 31.90966797 C-34.15217773 31.30783691 -33.55630859 30.70600586 -32.94238281 30.0859375 C-31.01367188 28.90185547 -31.01367188 28.90185547 -28.42480469 29.08496094 C-25.46920155 30.08632263 -24.04228497 31.5727071 -22.01367188 33.90185547 C-17.73941608 32.31879777 -15.74835393 29.39617143 -13.01367188 25.90185547 C-13.83867188 25.17998047 -14.66367187 24.45810547 -15.51367188 23.71435547 C-18.01367188 20.90185547 -18.01367188 20.90185547 -18.37988281 18.47753906 C-17.92063924 15.24752594 -16.93496148 14.17902841 -14.65429688 11.87841797 C-13.59855469 10.81300781 -13.59855469 10.81300781 -12.52148438 9.72607422 C-11.77640625 9.00033203 -11.03132813 8.27458984 -10.26367188 7.52685547 C-9.5340625 6.77791016 -8.80445312 6.02896484 -8.05273438 5.25732422 C-7.34375 4.55478516 -6.63476562 3.85224609 -5.90429688 3.12841797 C-5.25493164 2.48469238 -4.60556641 1.8409668 -3.93652344 1.17773438 C-2.01367188 -0.09814453 -2.01367188 -0.09814453 0 0 Z " fill="#F07C00" transform="translate(76.013671875,0.09814453125)"/>
<path d="M0 0 C7.03022663 5.37173892 9.0792694 12.26680433 10.53436279 20.69155884 C11.16476164 25.40991255 11.18058568 30.06318446 11.12890625 34.81640625 C11.12607635 35.82185989 11.12324646 36.82731354 11.12033081 37.86323547 C11.10925862 41.03134771 11.08417932 44.19916271 11.05859375 47.3671875 C11.04854716 49.533199 11.03942427 51.699215 11.03125 53.86523438 C11.00936194 59.13683088 10.97492372 64.40820904 10.93359375 69.6796875 C4.99359375 69.6796875 -0.94640625 69.6796875 -7.06640625 69.6796875 C-7.39640625 67.6996875 -7.72640625 65.7196875 -8.06640625 63.6796875 C-8.63488281 64.08960937 -9.20335937 64.49953125 -9.7890625 64.921875 C-18.65279628 71.10725183 -26.29184888 72.65919272 -37.06640625 71.6796875 C-44.33745476 70.20304783 -49.0478614 67.53134535 -53.7265625 61.77734375 C-57.97459229 55.12663821 -57.74474552 48.35883587 -57.06640625 40.6796875 C-55.61830878 34.85980209 -52.2628706 31.52244137 -47.5546875 28.00390625 C-40.51698119 24.2585649 -33.96810441 23.21523177 -26.06640625 23.3671875 C-25.22851562 23.36396484 -24.390625 23.36074219 -23.52734375 23.35742188 C-17.77968415 23.40635706 -12.63737764 24.27009696 -7.06640625 25.6796875 C-9.13953533 17.90377428 -9.13953533 17.90377428 -15.06640625 12.6796875 C-23.27983808 9.96025146 -33.01544907 11.08752581 -40.98046875 14.0234375 C-43.06640625 14.6796875 -43.06640625 14.6796875 -47.06640625 14.6796875 C-47.76488889 12.74611968 -48.44985439 10.80766452 -49.12890625 8.8671875 C-49.51175781 7.78824219 -49.89460938 6.70929687 -50.2890625 5.59765625 C-51.06640625 2.6796875 -51.06640625 2.6796875 -50.06640625 -0.3203125 C-47.73828125 -1.453125 -47.73828125 -1.453125 -44.81640625 -2.4453125 C-43.8625 -2.77789062 -42.90859375 -3.11046875 -41.92578125 -3.453125 C-28.76698892 -7.44390628 -11.77724987 -7.52497251 0 0 Z M-37.87890625 41.6171875 C-39.54294682 44.47342206 -39.54294682 44.47342206 -40.06640625 47.6796875 C-38.87033228 51.69005316 -37.90263063 54.03161361 -34.56640625 56.6171875 C-28.16401743 58.56076982 -21.7745476 58.83594406 -15.62890625 55.9296875 C-11.50934056 53.54067707 -8.60569104 51.29754186 -7.06640625 46.6796875 C-6.99975249 45.28529086 -6.98102426 43.88798875 -7.00390625 42.4921875 C-7.02453125 41.2340625 -7.04515625 39.9759375 -7.06640625 38.6796875 C-16.62318178 35.55910773 -30.35460633 33.57397035 -37.87890625 41.6171875 Z " fill="#2372B5" transform="translate(321.06640625,51.3203125)"/>
<path d="M0 0 C7.68908081 7.70337278 12.09838299 17.8420784 12.1875 28.75 C12.01733418 39.222933 8.97940075 48.29403299 1.9921875 56.30078125 C-7.7933981 65.61287077 -18.69160229 68.52325075 -31.81640625 68.2734375 C-42.94298955 67.76274224 -51.56010741 62.89586799 -59.00390625 54.828125 C-65.87223441 46.51156899 -68.42317686 37.59069512 -68.27734375 26.84765625 C-67.01543186 13.89084266 -61.06386088 5.02783337 -51.43359375 -3.23828125 C-35.95479388 -14.44364038 -14.29049751 -11.6082117 0 0 Z M-46.3671875 15.66796875 C-50.02152171 20.88719727 -50.77636503 26.75324749 -50 33 C-48.31209545 39.54217021 -45.39956317 45.18808495 -39.9375 49.3125 C-33.75122791 52.86631588 -26.53443448 53.18060732 -19.64453125 51.38671875 C-13.18759392 48.55166116 -9.54699411 43.30494197 -6.625 37.0625 C-4.98697933 29.03619874 -5.779108 22.14486187 -10 15 C-15.11152814 9.10542925 -20.06740335 6.31714489 -27.875 5.6875 C-36.28411121 6.00723807 -41.0494315 9.21367274 -46.3671875 15.66796875 Z " fill="#2372B5" transform="translate(491,55)"/>
<path d="M0 0 C5.94 0 11.88 0 18 0 C18 6.6 18 13.2 18 20 C24.6 20 31.2 20 38 20 C38 24.95 38 29.9 38 35 C31.4 35 24.8 35 18 35 C18.0740806 40.32103084 18.15697972 45.64040518 18.26245117 50.96069336 C18.29565114 52.76952458 18.32369841 54.57845818 18.34643555 56.38745117 C18.38007258 58.99181633 18.43239195 61.5952476 18.48828125 64.19921875 C18.49467117 65.00461594 18.5010611 65.81001312 18.50764465 66.63981628 C18.62606447 71.18902309 18.97945513 74.35255795 22 78 C27.74288678 79.72286603 32.3609842 78.47481952 38 77 C38 81.95 38 86.9 38 92 C29.44958521 96.2752074 22.13324591 97.22557467 12.8125 94.9375 C7.80084416 93.26175194 4.39330249 90.77043402 2 86 C0.11803203 79.62951043 -0.27349719 73.54012392 -0.1953125 66.93359375 C-0.1924826 66.01409439 -0.18965271 65.09459503 -0.18673706 64.14723206 C-0.17564584 61.24384907 -0.15056263 58.34078791 -0.125 55.4375 C-0.11495588 53.45508262 -0.10583255 51.47266034 -0.09765625 49.49023438 C-0.07574286 44.66003445 -0.04129081 39.83007157 0 35 C-2.97 35 -5.94 35 -9 35 C-9 30.05 -9 25.1 -9 20 C-6.03 20 -3.06 20 0 20 C0 13.4 0 6.8 0 0 Z " fill="#2372B5" transform="translate(223,27)"/>
<path d="M0 0 C5.64612045 0.21550078 8.54151676 3.94918937 12.25 7.75 C12.88679688 8.37132813 13.52359375 8.99265625 14.1796875 9.6328125 C16.79599539 12.27138684 18.72955573 14.29939256 20.078125 17.79296875 C19.95461801 21.28204129 17.40859281 22.65162201 15 25 C14.68740419 27.09061231 14.68740419 27.09061231 16 29 C18.47906969 31.7295585 18.47906969 31.7295585 21 34 C23.23212073 32.99939416 24.80255169 32.22320243 26.4375 30.375 C28 29 28 29 30.36206055 28.7199707 C33.573099 29.06083707 34.50085079 29.85803346 36.76953125 32.10546875 C37.76049805 33.08676758 37.76049805 33.08676758 38.77148438 34.08789062 C39.44501953 34.78076172 40.11855469 35.47363281 40.8125 36.1875 C41.50537109 36.86103516 42.19824219 37.53457031 42.91210938 38.22851562 C43.56630859 38.88916016 44.22050781 39.54980469 44.89453125 40.23046875 C45.78942261 41.13381958 45.78942261 41.13381958 46.70239258 42.05541992 C48.40706767 44.61002709 48.48467501 45.98212933 48 49 C46.59472656 51.05224609 46.59472656 51.05224609 44.640625 53.0234375 C43.58488281 54.08884766 43.58488281 54.08884766 42.5078125 55.17578125 C41.76273438 55.90152344 41.01765625 56.62726563 40.25 57.375 C39.52039063 58.12394531 38.79078125 58.87289062 38.0390625 59.64453125 C37.33007812 60.34707031 36.62109375 61.04960937 35.890625 61.7734375 C35.24125977 62.41716309 34.59189453 63.06088867 33.92285156 63.72412109 C32 65 32 65 29.98632812 64.90185547 C26.03832683 63.10933866 23.27329827 59.78472851 20.25 56.75 C19.55261719 56.08097656 18.85523438 55.41195312 18.13671875 54.72265625 C17.47800781 54.06652344 16.81929687 53.41039062 16.140625 52.734375 C15.53766602 52.13850586 14.93470703 51.54263672 14.31347656 50.92871094 C12.62860548 48.45464373 12.6733806 46.93626018 13 44 C14.40832826 41.68128811 16.13634558 40.0034285 18 38 C15.69 35.69 13.38 33.38 11 31 C7.15288202 32.59783096 7.15288202 32.59783096 5.5625 34.6875 C5.046875 35.120625 4.53125 35.55375 4 36 C-1.9835273 35.44782678 -4.83436399 31.8290451 -8.875 27.75 C-9.57625 27.08097656 -10.2775 26.41195312 -11 25.72265625 C-11.65742187 25.06652344 -12.31484375 24.41039063 -12.9921875 23.734375 C-13.59401855 23.13850586 -14.19584961 22.54263672 -14.81591797 21.92871094 C-16 20 -16 20 -15.78808594 17.37524414 C-14.83205387 14.49382035 -13.75383197 13.5382129 -11.375 11.6875 C-7.08134733 8.16887489 -3.54178443 4.26120939 0 0 Z " fill="#F07C00" transform="translate(45,86)"/>
<path d="M0 0 C2.475 2.475 2.475 2.475 5 5 C3.88625 5.61875 3.88625 5.61875 2.75 6.25 C0.09828315 7.93745618 -1.86674014 9.70872089 -4 12 C-2.98308562 14.2685013 -2.26079546 15.78749999 -0.3125 17.375 C1 19 1 19 0.9375 21.9375 C-0.10192563 25.33295706 -1.31155547 26.74517555 -4 29 C-2.4169423 33.2742558 0.50568404 35.26531794 4 38 C2.25 41.875 2.25 41.875 0 43 C-0.47050781 42.4225 -0.94101562 41.845 -1.42578125 41.25 C-2.04839844 40.5075 -2.67101563 39.765 -3.3125 39 C-3.92738281 38.2575 -4.54226562 37.515 -5.17578125 36.75 C-6.93950063 34.65386277 -6.93950063 34.65386277 -10 35 C-10.61875 35.66 -11.2375 36.32 -11.875 37 C-14 39 -14 39 -16.38134766 39.33496094 C-19.65955717 38.91563375 -20.69515799 37.94871878 -23.0234375 35.640625 C-24.08884766 34.58488281 -24.08884766 34.58488281 -25.17578125 33.5078125 C-25.90152344 32.76273438 -26.62726562 32.01765625 -27.375 31.25 C-28.12394531 30.52039063 -28.87289063 29.79078125 -29.64453125 29.0390625 C-30.34707031 28.33007812 -31.04960937 27.62109375 -31.7734375 26.890625 C-32.73902588 25.91657715 -32.73902588 25.91657715 -33.72412109 24.92285156 C-35 23 -35 23 -34.90185547 20.98632812 C-33.10933866 17.03832683 -29.78472851 14.27329827 -26.75 11.25 C-26.08097656 10.55261719 -25.41195313 9.85523438 -24.72265625 9.13671875 C-24.06652344 8.47800781 -23.41039062 7.81929687 -22.734375 7.140625 C-22.13850586 6.53766602 -21.54263672 5.93470703 -20.92871094 5.31347656 C-18.45464373 3.62860548 -16.93626018 3.6733806 -14 4 C-11.68128811 5.40832826 -10.0034285 7.13634558 -8 9 C-6.85111717 7.87811441 -5.70598863 6.75238316 -4.5625 5.625 C-3.92441406 4.99851562 -3.28632813 4.37203125 -2.62890625 3.7265625 C-0.92117824 2.08276939 -0.92117824 2.08276939 0 0 Z " fill="#FAB800" transform="translate(35,54)"/>
<path d="M0 0 C3.21845627 0.33150843 4.13965364 1.12626848 6.41235352 3.37768555 C7.07299805 4.03188477 7.73364258 4.68608398 8.41430664 5.36010742 C9.0878418 6.05297852 9.76137695 6.74584961 10.45532227 7.4597168 C11.14819336 8.13325195 11.84106445 8.80678711 12.55493164 9.50073242 C13.20913086 10.16137695 13.86333008 10.82202148 14.53735352 11.50268555 C15.43224487 12.40603638 15.43224487 12.40603638 16.34521484 13.32763672 C18.04988993 15.88224388 18.12749727 17.25434612 17.64282227 20.2722168 C16.23754883 22.32446289 16.23754883 22.32446289 14.28344727 24.2956543 C13.57961914 25.00592773 12.87579102 25.71620117 12.15063477 26.44799805 C11.40555664 27.17374023 10.66047852 27.89948242 9.89282227 28.6472168 C8.7984082 29.77063477 8.7984082 29.77063477 7.68188477 30.91674805 C6.97290039 31.61928711 6.26391602 32.32182617 5.53344727 33.0456543 C4.88408203 33.68937988 4.2347168 34.33310547 3.56567383 34.99633789 C1.64282227 36.2722168 1.64282227 36.2722168 -0.37084961 36.17407227 C-4.3188509 34.38155545 -7.08387946 31.05694531 -10.10717773 28.0222168 C-10.80456055 27.35319336 -11.50194336 26.68416992 -12.22045898 25.99487305 C-12.87916992 25.33874023 -13.53788086 24.68260742 -14.21655273 24.0065918 C-14.81951172 23.41072266 -15.4224707 22.81485352 -16.04370117 22.20092773 C-17.73595653 19.71601744 -17.73474069 18.22106176 -17.35717773 15.2722168 C-15.59936523 13.2800293 -15.59936523 13.2800293 -13.23217773 11.3972168 C-9.56193154 8.37127715 -6.62551994 5.37165293 -3.84155273 1.5222168 C-2.35717773 0.2722168 -2.35717773 0.2722168 0 0 Z " fill="#E41C0D" transform="translate(75.357177734375,114.727783203125)"/>
<path d="M0 0 C3.94800129 1.79251681 6.71302985 5.11712696 9.73632812 8.15185547 C10.43371094 8.82087891 11.13109375 9.48990234 11.84960938 10.17919922 C12.50832031 10.83533203 13.16703125 11.49146484 13.84570312 12.16748047 C14.44866211 12.76334961 15.05162109 13.35921875 15.67285156 13.97314453 C17.39285117 16.49879451 17.43825266 17.90159505 16.98632812 20.90185547 C15.79638672 22.73876953 15.79638672 22.73876953 14.13476562 24.41748047 C13.53019531 25.02849609 12.925625 25.63951172 12.30273438 26.26904297 C11.66207031 26.89037109 11.02140625 27.51169922 10.36132812 28.15185547 C9.74386719 28.78865234 9.12640625 29.42544922 8.49023438 30.08154297 C5.65447494 32.88745231 3.55476655 34.69395758 -0.22851562 36.07763672 C-3.01367188 35.90185547 -3.01367188 35.90185547 -5.10351562 34.24169922 C-5.71324219 33.44892578 -6.32296875 32.65615234 -6.95117188 31.83935547 C-9.95205275 28.10993704 -12.89074571 25.187186 -16.76367188 22.38623047 C-18.01367188 20.90185547 -18.01367188 20.90185547 -18.30175781 18.56054688 C-17.9407881 15.22922468 -16.99154994 14.23611178 -14.65429688 11.87841797 C-13.95046875 11.16814453 -13.24664062 10.45787109 -12.52148438 9.72607422 C-11.77640625 9.00033203 -11.03132813 8.27458984 -10.26367188 7.52685547 C-9.16925781 6.4034375 -9.16925781 6.4034375 -8.05273438 5.25732422 C-7.34375 4.55478516 -6.63476562 3.85224609 -5.90429688 3.12841797 C-4.93024902 2.16282959 -4.93024902 2.16282959 -3.93652344 1.17773438 C-2.01367188 -0.09814453 -2.01367188 -0.09814453 0 0 Z " fill="#E41C0D" transform="translate(76.013671875,0.09814453125)"/>
<path d="M0 0 C3.81872335 1.08594945 6.13076858 3.61895159 8.8125 6.3984375 C9.63717773 7.19411133 9.63717773 7.19411133 10.47851562 8.00585938 C12.70914022 10.26419359 14.3345799 12.12924046 15.2109375 15.2109375 C14.12498805 19.02966085 11.59198591 21.34170608 8.8125 24.0234375 C8.01682617 24.84811523 8.01682617 24.84811523 7.20507812 25.68945312 C4.94674391 27.92007772 3.08169704 29.5455174 0 30.421875 C-3.81872335 29.33592555 -6.13076858 26.80292341 -8.8125 24.0234375 C-9.36228516 23.49298828 -9.91207031 22.96253906 -10.47851562 22.41601562 C-12.70914022 20.15768141 -14.3345799 18.29263454 -15.2109375 15.2109375 C-14.12498805 11.39221415 -11.59198591 9.08016892 -8.8125 6.3984375 C-8.28205078 5.84865234 -7.75160156 5.29886719 -7.20507812 4.73242188 C-4.94674391 2.50179728 -3.08169704 0.8763576 0 0 Z " fill="#954A97" transform="translate(75.5,60.2890625)"/>
<path d="M0 0 C2.7109375 2.109375 2.7109375 2.109375 5.375 4.75 C6.26960938 5.61109375 7.16421875 6.4721875 8.0859375 7.359375 C10 10 10 10 10.08203125 12.4921875 C8.66802218 15.76942152 6.81013607 17.8288299 4.3125 20.375 C3.46300781 21.26960938 2.61351563 22.16421875 1.73828125 23.0859375 C-1 25 -1 25 -4.02734375 25.05078125 C-7.48102576 23.82996593 -9.29775804 22.40275833 -11.875 19.8125 C-12.65617187 19.05582031 -13.43734375 18.29914063 -14.2421875 17.51953125 C-16.46196636 14.33784822 -16.67393002 12.80572249 -16 9 C-14.1015625 6.48046875 -14.1015625 6.48046875 -11.625 4.1875 C-10.81289062 3.41792969 -10.00078125 2.64835937 -9.1640625 1.85546875 C-5.74322416 -1.07756051 -4.29935643 -1.36290838 0 0 Z " fill="#2372B5" transform="translate(110,94)"/>
<path d="M0 0 C3.58740251 0.84079746 5.24509386 2.66799571 7.8125 5.2734375 C8.69550781 6.14355469 9.57851562 7.01367188 10.48828125 7.91015625 C12.5 10.5859375 12.5 10.5859375 13.0859375 13.0859375 C12.24514004 16.67334001 10.41794179 18.33103136 7.8125 20.8984375 C6.94238281 21.78144531 6.07226562 22.66445313 5.17578125 23.57421875 C2.5 25.5859375 2.5 25.5859375 0 26.171875 C-3.58740251 25.33107754 -5.24509386 23.50387929 -7.8125 20.8984375 C-8.69550781 20.02832031 -9.57851562 19.15820312 -10.48828125 18.26171875 C-12.5 15.5859375 -12.5 15.5859375 -13.0859375 13.0859375 C-12.24514004 9.49853499 -10.41794179 7.84084364 -7.8125 5.2734375 C-6.94238281 4.39042969 -6.07226562 3.50742187 -5.17578125 2.59765625 C-2.5 0.5859375 -2.5 0.5859375 0 0 Z " fill="#158DCE" transform="translate(106.5,31.4140625)"/>
<path d="M0 0 C0.763125 0.28875 1.52625 0.5775 2.3125 0.875 C3.3025 0.215 4.2925 -0.445 5.3125 -1.125 C8.1875 -1.5625 8.1875 -1.5625 11.3125 -1.125 C14.03216716 0.88398041 16.02750401 2.44810852 16.71289062 5.87963867 C16.80422492 8.16832394 16.74960172 10.40057923 16.625 12.6875 C16.60244141 13.47576172 16.57988281 14.26402344 16.55664062 15.07617188 C16.49804161 17.00993929 16.40836827 18.94272167 16.3125 20.875 C14.9925 20.875 13.6725 20.875 12.3125 20.875 C11.9825 15.265 11.6525 9.655 11.3125 3.875 C9.3325 3.875 7.3525 3.875 5.3125 3.875 C2.88770264 7.51219605 2.92587423 9.73203482 2.6875 14.0625 C2.61273438 15.33480469 2.53796875 16.60710937 2.4609375 17.91796875 C2.41195313 18.89378906 2.36296875 19.86960938 2.3125 20.875 C0.9925 20.875 -0.3275 20.875 -1.6875 20.875 C-2.0175 15.265 -2.3475 9.655 -2.6875 3.875 C-4.6675 3.875 -6.6475 3.875 -8.6875 3.875 C-11.11229736 7.51219605 -11.07412577 9.73203482 -11.3125 14.0625 C-11.42464844 15.97095703 -11.42464844 15.97095703 -11.5390625 17.91796875 C-11.58804687 18.89378906 -11.63703125 19.86960938 -11.6875 20.875 C-13.0075 20.875 -14.3275 20.875 -15.6875 20.875 C-15.6875 13.945 -15.6875 7.015 -15.6875 -0.125 C-4.21412722 -1.76405325 -4.21412722 -1.76405325 0 0 Z " fill="#2372B5" transform="translate(347.6875,159.125)"/>
<path d="M0 0 C3.0625 1.5 3.0625 1.5 5 3 C4.34 4.32 3.68 5.64 3 7 C2.34 6.67 1.68 6.34 1 6 C-2.86061033 4.71312989 -5.94150283 4.86242382 -10 5 C-10.0077693 7.43524962 -10.0077693 7.43524962 -9 10 C-6.08577063 11.59722513 -6.08577063 11.59722513 -2.5625 12.625 C3.80533458 14.70800187 3.80533458 14.70800187 6 18 C6.61133793 22.01736355 6.36718514 23.49929299 3.9375 26.8125 C0.36313882 29.47425833 -1.5508818 30 -6 30 C-10.59507752 28.90117712 -13.32707843 28.00938235 -16 24 C-15.67 23.34 -15.34 22.68 -15 22 C-12.69931502 22.51126333 -10.76574897 23.11096101 -8.625 24.125 C-5.39554082 25.20148639 -3.27528739 24.76169474 0 24 C0.33 22.68 0.66 21.36 1 20 C-0.010625 19.566875 -1.02125 19.13375 -2.0625 18.6875 C-2.69671875 18.41292969 -3.3309375 18.13835937 -3.984375 17.85546875 C-5.29937004 17.29736039 -6.62222887 16.75733074 -7.953125 16.23828125 C-11.44900139 14.85021268 -12.85509392 14.21735911 -15 11 C-15.375 8.0625 -15.375 8.0625 -15 5 C-10.6777402 -0.33078709 -6.5456115 -0.67713222 0 0 Z " fill="#2372B5" transform="translate(308,151)"/>
<path d="M0 0 C2.93087207 2.25451698 3.82814288 3.48442865 5 7 C5.36795288 11.96736392 5.2446074 15.10647112 2 19 C-1.38155377 21.25436918 -3.17292132 22.06362144 -7.25 21.75 C-10 21 -10 21 -12 20 C-12.33 22.31 -12.66 24.62 -13 27 C-14.32 27 -15.64 27 -17 27 C-17 18.09 -17 9.18 -17 0 C-14.525 0.495 -14.525 0.495 -12 1 C-11.401875 0.67 -10.80375 0.34 -10.1875 0 C-6.75036354 -1.57126238 -3.57675234 -1.02822449 0 0 Z M-10.8125 5.0625 C-13.350379 7.87431022 -13.350379 7.87431022 -13.0625 11.625 C-12.24932579 14.96529109 -12.24932579 14.96529109 -10.3125 17 C-7.0701741 18.40208688 -5.32361065 18.13144192 -2 17 C0.51029235 14.16579896 1.01329687 12.66484335 0.9375 8.875 C-0.14444205 5.55704439 -0.92316823 4.58237063 -4 3 C-8.04368027 2.60575756 -8.04368027 2.60575756 -10.8125 5.0625 Z " fill="#2372B5" transform="translate(388,159)"/>
<path d="M0 0 C2.41880375 1.8812918 3.33791905 2.84792427 4.25 5.75 C4.25 7.73 4.25 9.71 4.25 11.75 C-1.03 11.75 -6.31 11.75 -11.75 11.75 C-10.43 13.4 -9.11 15.05 -7.75 16.75 C-4.22105052 16.66256309 -4.22105052 16.66256309 -0.75 15.75 C0.57 15.75 1.89 15.75 3.25 15.75 C3.0625 17.625 3.0625 17.625 2.25 19.75 C-1.29413824 22.0053607 -4.69699552 22.09216741 -8.8125 21.40625 C-11.51365646 20.49134217 -13.25961284 18.93753605 -14.90625 16.62890625 C-16.51788742 13.04002848 -16.39913808 9.57426999 -15.75 5.75 C-14.48854888 2.78558987 -13.52685568 1.31255067 -10.9375 -0.5625 C-6.88938379 -1.83476509 -3.87012891 -1.75914951 0 0 Z M-10.125 4.5625 C-11.94877467 6.56340984 -11.94877467 6.56340984 -11.75 8.75 C-7.79 8.75 -3.83 8.75 0.25 8.75 C-0.41 7.1 -1.07 5.45 -1.75 3.75 C-5.48171908 2.37088643 -6.90948668 2.10855563 -10.125 4.5625 Z " fill="#2372B5" transform="translate(220.75,159.25)"/>
<path d="M0 0 C2.29296875 0.08984375 2.29296875 0.08984375 5 1 C6.80078125 3.94140625 6.80078125 3.94140625 8.3125 7.5625 C8.82425781 8.76003906 9.33601563 9.95757812 9.86328125 11.19140625 C10.23839844 12.11824219 10.61351562 13.04507813 11 14 C11.30292969 13.07316406 11.60585938 12.14632812 11.91796875 11.19140625 C12.33691406 9.99386719 12.75585938 8.79632813 13.1875 7.5625 C13.59355469 6.36753906 13.99960937 5.17257813 14.41796875 3.94140625 C16 1 16 1 18.67578125 0.08984375 C19.82626953 0.04537109 19.82626953 0.04537109 21 0 C19.38869332 6.38384359 17.12198684 12.44597316 14.5625 18.5 C14.27431396 19.20640625 13.98612793 19.9128125 13.68920898 20.640625 C12.46548362 23.46666042 11.50810384 25.61867256 9.01171875 27.4921875 C5.88632227 28.28112253 3.1219498 27.60037496 0 27 C0.33 25.68 0.66 24.36 1 23 C3.31 23 5.62 23 8 23 C7.26111358 17.60925119 4.81610116 13.16997221 2.43945312 8.3515625 C0 3.30093491 0 3.30093491 0 0 Z " fill="#2372B5" transform="translate(437,159)"/>
<path d="M0 0 C1.22589844 0.15275391 1.22589844 0.15275391 2.4765625 0.30859375 C3.41628906 0.43427734 3.41628906 0.43427734 4.375 0.5625 C4.705 1.8825 5.035 3.2025 5.375 4.5625 C2.0919902 6.2040049 -1.05045033 5.08138624 -4.625 4.5625 C-4.625 5.2225 -4.625 5.8825 -4.625 6.5625 C-3.91472656 6.91183594 -3.20445312 7.26117188 -2.47265625 7.62109375 C-1.55355469 8.07613281 -0.63445312 8.53117188 0.3125 9 C1.22902344 9.45246094 2.14554687 9.90492188 3.08984375 10.37109375 C5.375 11.5625 5.375 11.5625 6.375 12.5625 C6.83262712 17.82521186 6.83262712 17.82521186 5.25 20.375 C2.51140869 22.10944116 0.63174135 22.4396041 -2.625 22.5625 C-5.42709766 21.76983454 -7.93897466 20.72026954 -10.625 19.5625 C-9.965 18.2425 -9.305 16.9225 -8.625 15.5625 C-7.903125 15.913125 -7.18125 16.26375 -6.4375 16.625 C-3.3127295 17.66659017 -1.74338004 17.45346572 1.375 16.5625 C1.375 15.9025 1.375 15.2425 1.375 14.5625 C-3.575 12.5825 -3.575 12.5825 -8.625 10.5625 C-9.3125 7.25 -9.3125 7.25 -9.625 3.5625 C-6.95994873 -0.2447161 -4.38643617 -0.56397036 0 0 Z " fill="#2372B5" transform="translate(267.625,158.4375)"/>
<path d="M0 0 C1.32 0 2.64 0 4 0 C4 8.25 4 16.5 4 25 C9.28 25 14.56 25 20 25 C20 26.32 20 27.64 20 29 C13.4 29 6.8 29 0 29 C0 19.43 0 9.86 0 0 Z " fill="#2372B5" transform="translate(181,151)"/>
<path d="M0 0 C0 1.32 0 2.64 0 4 C-1.65 4.33 -3.3 4.66 -5 5 C-5.33 6.32 -5.66 7.64 -6 9 C-4.02 9 -2.04 9 0 9 C0 9.99 0 10.98 0 12 C-1.98 12 -3.96 12 -6 12 C-6 17.94 -6 23.88 -6 30 C-7.32 30 -8.64 30 -10 30 C-10 24.06 -10 18.12 -10 12 C-10.99 12 -11.98 12 -13 12 C-13 11.01 -13 10.02 -13 9 C-12.01 9 -11.02 9 -10 9 C-10.061875 8.071875 -10.12375 7.14375 -10.1875 6.1875 C-10 3 -10 3 -8.9375 1.125 C-5.99772876 -0.58196395 -3.32129197 -0.18799766 0 0 Z " fill="#2372B5" transform="translate(434,150)"/>
<path d="M0 0 C1.32 0 2.64 0 4 0 C4 2.31 4 4.62 4 7 C6.31 7 8.62 7 11 7 C11 7.99 11 8.98 11 10 C8.69 10 6.38 10 4 10 C4.33 14.29 4.66 18.58 5 23 C6.65 23.33 8.3 23.66 10 24 C10 25.32 10 26.64 10 28 C3.9453125 28.1953125 3.9453125 28.1953125 2 28 C0 26 0 26 -0.1953125 22.3046875 C-0.182009 20.82799892 -0.15814835 19.35137642 -0.125 17.875 C-0.11597656 17.12089844 -0.10695312 16.36679688 -0.09765625 15.58984375 C-0.0740687 13.72642746 -0.03819719 11.86317407 0 10 C-0.99 10 -1.98 10 -3 10 C-3 9.01 -3 8.02 -3 7 C-2.01 7 -1.02 7 0 7 C0 4.69 0 2.38 0 0 Z " fill="#2372B5" transform="translate(232,152)"/>
<path d="M0 0 C1.32 0 2.64 0 4 0 C4 9.9 4 19.8 4 30 C2.68 30 1.36 30 0 30 C0 20.1 0 10.2 0 0 Z " fill="#2372B5" transform="translate(399,150)"/>
<path d="M0 0 C1.32 0 2.64 0 4 0 C4 6.93 4 13.86 4 21 C2.68 21 1.36 21 0 21 C0 14.07 0 7.14 0 0 Z " fill="#2372B5" transform="translate(411,159)"/>
<path d="M0 0 C1.32 0 2.64 0 4 0 C4 6.93 4 13.86 4 21 C2.68 21 1.36 21 0 21 C0 14.07 0 7.14 0 0 Z " fill="#2372B5" transform="translate(320,159)"/>
<path d="M0 0 C1.32 0 2.64 0 4 0 C4.1953125 6.0546875 4.1953125 6.0546875 4 8 C3.34 8.66 2.68 9.32 2 10 C-0.125 9.625 -0.125 9.625 -2 9 C-1.34 8.01 -0.68 7.02 0 6 C0.16699232 2.87478167 0.16699232 2.87478167 0 0 Z " fill="#2372B5" transform="translate(249,151)"/>
<path d="M0 0 C0.66 0.33 1.32 0.66 2 1 C1.06027344 1.92232422 1.06027344 1.92232422 0.1015625 2.86328125 C-0.71570313 3.67152344 -1.53296875 4.47976562 -2.375 5.3125 C-3.18710937 6.11300781 -3.99921875 6.91351563 -4.8359375 7.73828125 C-7.12604842 10.00009937 -7.12604842 10.00009937 -9 13 C-9.28125 10.76953125 -9.28125 10.76953125 -9 8 C-7.03125 5.76171875 -7.03125 5.76171875 -4.5 3.6875 C-3.6646875 2.99011719 -2.829375 2.29273437 -1.96875 1.57421875 C-1.3190625 1.05472656 -0.669375 0.53523438 0 0 Z " fill="#E52A0C" transform="translate(67,122)"/>
<path d="M0 0 C1.65 0 3.3 0 5 0 C5 1.32 5 2.64 5 4 C3.35 4 1.7 4 0 4 C0 2.68 0 1.36 0 0 Z " fill="#2372B5" transform="translate(320,151)"/>
<path d="M0 0 C1.32 0 2.64 0 4 0 C4 1.32 4 2.64 4 4 C2.68 4 1.36 4 0 4 C0 2.68 0 1.36 0 0 Z " fill="#2372B5" transform="translate(411,151)"/>
</svg>
