<svg id="b" xmlns="http://www.w3.org/2000/svg" xmlns:xlink="http://www.w3.org/1999/xlink" width="237.479" height="41" viewBox="0 0 237.479 41">
  <defs>
    <linearGradient id="linear-gradient" y1="0.5" x2="1" y2="0.5" gradientUnits="objectBoundingBox">
      <stop offset="0" stop-color="#4a5298"/>
      <stop offset="0.44" stop-color="#973983"/>
      <stop offset="0.82" stop-color="#d42673"/>
      <stop offset="1" stop-color="#ed1f6d"/>
    </linearGradient>
    <linearGradient id="linear-gradient-2" y1="0.5" y2="0.5" xlink:href="#linear-gradient"/>
    <linearGradient id="linear-gradient-3" y1="0.5" y2="0.5" xlink:href="#linear-gradient"/>
    <linearGradient id="linear-gradient-4" y1="0.5" y2="0.5" xlink:href="#linear-gradient"/>
    <linearGradient id="linear-gradient-5" y1="0.5" y2="0.5" xlink:href="#linear-gradient"/>
    <linearGradient id="linear-gradient-6" y1="0.5" y2="0.5" xlink:href="#linear-gradient"/>
    <linearGradient id="linear-gradient-8" y1="0.5" y2="0.5" xlink:href="#linear-gradient"/>
    <linearGradient id="linear-gradient-9" y1="0.5" y2="0.5" xlink:href="#linear-gradient"/>
    <linearGradient id="linear-gradient-10" y1="0.5" y2="0.5" xlink:href="#linear-gradient"/>
  </defs>
  <g id="c">
    <g id="Group_1421" data-name="Group 1421">
      <g id="Group_1419" data-name="Group 1419">
        <path id="Path_837" data-name="Path 837" d="M25.839,3.873A36.441,36.441,0,0,1,29.621.98H0L8.779,13.748h9.136a36.74,36.74,0,0,1,7.925-9.879Z" transform="translate(0 -0.63)" fill="url(#linear-gradient)"/>
        <path id="Path_838" data-name="Path 838" d="M74.7,0c-.636.3-1.3.639-1.982,1.014h0q-.755.418-1.543.9a36.361,36.361,0,0,0-4.025,2.879c-.271.225-.543.457-.818.693-.329.289-.65.582-.964.875a36.494,36.494,0,0,0-5.389,6.407A44.547,44.547,0,0,0,54.06,25.736c2.082,3.261,4.568,6.325,6.65,9.589Q62.526,38.164,64.335,41c.343-4.218,1.771-14.254,9.579-22.546a33.824,33.824,0,0,1,7.018-5.686H93.6L102.564,0Z" transform="translate(-34.753)" fill="url(#linear-gradient-2)"/>
      </g>
      <g id="Group_1420" data-name="Group 1420" transform="translate(81.593 10.018)">
        <path id="Path_839" data-name="Path 839" d="M233.853,30.888H228.46V28.97h13.054v1.918h-5.393v15.9h-2.268v-15.9Z" transform="translate(-228.46 -28.641)" fill="url(#linear-gradient-3)"/>
        <path id="Path_840" data-name="Path 840" d="M287.63,28.97H297.9v1.918H289.9v5.586h6.754v1.918H289.9V44.87h8.279v1.918H287.63V28.97Z" transform="translate(-266.498 -28.641)" fill="url(#linear-gradient-4)"/>
        <path id="Path_841" data-name="Path 841" d="M338.5,37.3c0-5.746,3.389-9.254,7.911-9.254a6.662,6.662,0,0,1,4.9,2.2l-1.243,1.475a4.857,4.857,0,0,0-3.621-1.682c-3.368,0-5.607,2.757-5.607,7.2s2.139,7.286,5.518,7.286a5.352,5.352,0,0,0,4.132-2l1.243,1.421a6.87,6.87,0,0,1-5.468,2.571c-4.439,0-7.768-3.432-7.768-9.221Z" transform="translate(-299.2 -28.05)" fill="url(#linear-gradient-5)"/>
        <path id="Path_842" data-name="Path 842" d="M398.51,28.97h2.268v7.464h8.289V28.97h2.268V46.791h-2.268V38.413h-8.289v8.379H398.51Z" transform="translate(-337.778 -28.641)" fill="url(#linear-gradient-6)"/>
        <path id="Path_843" data-name="Path 843" d="M462.473,30.888H457.08V28.97h13.054v1.918h-5.393v15.9h-2.268Z" transform="translate(-375.43 -28.641)" fill="url(#linear-gradient-4)"/>
        <path id="Path_844" data-name="Path 844" d="M511.52,37.231c0-5.707,3.143-9.171,7.618-9.171s7.618,3.475,7.618,9.171-3.143,9.3-7.618,9.3S511.52,42.939,511.52,37.231Zm12.9,0c0-4.439-2.093-7.179-5.275-7.179s-5.275,2.739-5.275,7.179,2.093,7.307,5.275,7.307S524.416,41.671,524.416,37.231Z" transform="translate(-410.427 -28.056)" fill="url(#linear-gradient-8)"/>
        <path id="Path_845" data-name="Path 845" d="M578.61,28.97h5.582c3.632,0,6.239,1.3,6.239,5.014s-2.607,5.271-6.239,5.271h-3.314v7.532H578.61Zm5.257,8.45c2.775,0,4.3-1.125,4.3-3.432s-1.529-3.175-4.3-3.175h-2.989v6.611h2.989Zm-.121,1.218,1.779-1.175,5.439,9.325h-2.571l-4.646-8.154Z" transform="translate(-453.556 -28.641)" fill="url(#linear-gradient-9)"/>
        <path id="Path_846" data-name="Path 846" d="M633.947,39.884,628.59,28.97h2.421l2.3,5.032c.571,1.314,1.111,2.554,1.725,3.886h.107c.614-1.332,1.232-2.571,1.779-3.886l2.3-5.032h2.35l-5.357,10.914v6.907h-2.268Z" transform="translate(-485.686 -28.641)" fill="url(#linear-gradient-10)"/>
      </g>
    </g>
  </g>
</svg>
