<?xml version="1.0" encoding="UTF-8"?><svg id="a" xmlns="http://www.w3.org/2000/svg" viewBox="0 0 372.69 78.09"><defs><style>.b{fill:#fff;}</style></defs><path class="b" d="M85.79,22.57c-.59-2.18-1.78-5.07-2.59-6.81-.48-1.04-1.04-2.05-1.64-3.04,2.18,5.79,2.56,12.88,.57,20.04-1.61,5.81-4.53,10.78-8.17,14.5-1.46,1.54-3.14,2.9-5.02,4.04-.29,.18-.58,.36-.88,.53-.28,.15-.57,.3-.85,.44-.43,.22-.86,.42-1.3,.61-.17,.07-.32,.16-.49,.23-.25,.1-.5,.18-.76,.27-.08,.03-.16,.06-.24,.08-2.63,.95-5.2,1.43-7.66,1.5-.3,.02-.6,.03-.9,.03-.06,0-.13,0-.19,0h.01c-4.16,.02-8.44-1.42-11.97-4.41-7.33-6.21-8.68-16.71-3.18-23.74-1.48,.82-3.33,1.87-4.48,3.22-3.89,4.59-4.38,11.46-1.83,16.83,.15,.33,.29,.66,.43,.96,1.48,3.11,5.34,7.43,7.8,9.11,5.37,3.68,14.11,5.05,20.78,3.78,1.51-.29,3.17-.83,4.46-1.35,14.88-5.99,22.19-21.59,18.07-36.84h0Z"/><path class="b" d="M63.22,37.54c4.66-5.96,5.03-14.56,1.66-21.1-.19-.41-.39-.8-.57-1.17-1.95-3.79-6.9-8.94-10.02-10.89C47.48,.12,36.58-1.05,28.34,.95c-1.86,.45-3.9,1.23-5.49,1.96C4.58,11.29-3.93,31.19,1.74,49.96c.81,2.68,2.4,6.21,3.47,8.33,4.36,8.66,12.28,15.88,19.33,19.8-2.21-4.02-5.54-6.66-8.06-10.44-2.93-4.4-5.79-9.41-7.42-14.72C3.94,36.34,10.1,17.96,25.92,10.62c3.66-1.7,7.24-2.57,10.68-2.85,.37-.04,.75-.07,1.12-.09,.08,0,.16-.02,.24-.02h-.02c5.17-.28,10.54,1.26,15.03,4.77,9.34,7.29,11.39,20.3,4.81,29.41,1.81-1.12,4.07-2.54,5.44-4.3h0Z"/><path class="b" d="M51.52,20.41c-4.77-4.94-12.27-6.54-18.33-4.58-.38,.11-.74,.22-1.08,.33-3.51,1.13-8.5,4.68-10.51,7.11-4.4,5.3-6.48,14.61-5.53,22.09,.21,1.69,.7,3.58,1.18,5.07,5.57,17.15,22.18,27.51,39.18,25.36,2.42-.31,5.67-1.17,7.63-1.78,8.01-2.51,15.1-8.34,19.22-13.89-3.73,1.32-6.37,3.84-9.93,5.47-4.14,1.9-8.8,3.64-13.61,4.27-15.03,1.98-30.54-6.11-35.44-20.97-1.13-3.44-1.55-6.68-1.46-9.72,0-.33,.01-.66,.03-.99,0-.07,0-.14,0-.21h0c.25-4.53,2.12-8.98,5.63-12.37,7.3-7.05,18.89-6.9,26.24,.18-.8-1.74-1.83-3.92-3.24-5.38h0Z"/><g><path class="b" d="M116.85,63.48h-6.98l-1.38,3.23h-2.67l6.28-13.95h2.55l6.3,13.95h-2.71l-1.4-3.23Zm-.86-2.03l-2.63-6.1-2.61,6.1h5.24Z"/><path class="b" d="M133.48,60.63v-7.87h2.59v7.77c0,2.87,1.3,4.11,3.55,4.11s3.53-1.24,3.53-4.11v-7.77h2.55v7.87c0,4.07-2.29,6.28-6.1,6.28s-6.12-2.21-6.12-6.28Z"/><path class="b" d="M163.07,54.95h-4.63v-2.19h11.84v2.19h-4.62v11.76h-2.59v-11.76Z"/><path class="b" d="M182.21,59.74c0-4.13,3.19-7.18,7.51-7.18s7.52,3.03,7.52,7.18-3.19,7.18-7.52,7.18-7.51-3.05-7.51-7.18Zm12.42,0c0-2.85-2.09-4.9-4.9-4.9s-4.9,2.05-4.9,4.9,2.09,4.9,4.9,4.9,4.9-2.05,4.9-4.9Z"/><path class="b" d="M223.98,66.71l-.02-9.25-4.58,7.65h-1.16l-4.58-7.53v9.13h-2.47v-13.95h2.13l5.54,9.25,5.44-9.25h2.13l.02,13.95h-2.45Z"/><path class="b" d="M250.42,63.48h-6.98l-1.37,3.23h-2.67l6.28-13.95h2.55l6.3,13.95h-2.71l-1.4-3.23Zm-.86-2.03l-2.63-6.1-2.61,6.1h5.24Z"/><path class="b" d="M269.6,54.95h-4.63v-2.19h11.84v2.19h-4.63v11.76h-2.59v-11.76Z"/><path class="b" d="M289.94,52.76h2.59v13.95h-2.59v-13.95Z"/><path class="b" d="M306.48,59.74c0-4.13,3.19-7.18,7.52-7.18s7.51,3.03,7.51,7.18-3.19,7.18-7.51,7.18-7.52-3.05-7.52-7.18Zm12.42,0c0-2.85-2.09-4.9-4.9-4.9s-4.9,2.05-4.9,4.9,2.09,4.9,4.9,4.9,4.9-2.05,4.9-4.9Z"/><path class="b" d="M347.83,52.76v13.95h-2.13l-7.69-9.45v9.45h-2.57v-13.95h2.13l7.7,9.45v-9.45h2.57Z"/></g><path class="b" d="M352.11,40.93h-13.17c-6.27,0-8.71-2.36-8.71-8.41v-8.69c0-6.05,2.44-8.41,8.71-8.41h13.17c.55,0,.89,.34,.89,.89v1.8c0,.55-.34,.89-.89,.89h-13.14c-3.81,0-4.97,1.17-4.97,5v2.37h17.93c.55,0,.92,.36,.92,.89v1.5c0,.56-.36,.92-.92,.92h-17.93v2.64c0,3.83,1.16,5,4.97,5h13.14c.55,0,.89,.34,.89,.89v1.8c0,.55-.34,.89-.89,.89Zm-.2-12.1h0Zm-37.98,12.1h-1.14c-1.26,0-2.01-.48-2.75-1.77l-11.11-22.55c-.21-.42-.1-.71-.02-.85,.08-.13,.27-.34,.68-.34h2.31c.4,0,.68,.15,.9,.48l.03,.06,10.35,21.33h.11l10.32-21.33c.12-.25,.38-.54,.93-.54h2.38c.31,0,.57,.13,.7,.37,.14,.24,.12,.54-.05,.83l-11.06,22.51c-.75,1.3-1.47,1.8-2.59,1.8Zm-12.57,0h-1.86c-.55,0-.81-.29-.93-.53l-3.14-6.1h-15.45l-3.07,6.15c-.22,.33-.5,.48-.9,.48h-1.99c-.31,0-.57-.14-.7-.37-.14-.24-.12-.54,.05-.83l11.06-22.51c.75-1.3,1.47-1.8,2.59-1.8h1.11c1.3,0,2.03,.46,2.78,1.77l11.1,22.53c.17,.29,.19,.59,.05,.83-.13,.24-.39,.37-.7,.37Zm-.14-.7h0Zm-35.88,.7h-2.13c-1.22,0-1.68-.62-2.15-1.83l-6.19-19.91-6.24,19.89c-.49,1.27-.93,1.86-2.13,1.86h-2.1c-1.23,0-1.8-.47-2.25-1.86l-6.38-22.54c-.04-.12-.16-.52,.07-.83,.08-.1,.25-.27,.59-.27h2.41c.22,0,.61,.08,.78,.59l5.9,21.19,6.28-20.22c.43-1.12,1.04-1.56,2.1-1.56h1.8c1.17,0,1.78,.43,2.18,1.54l6.37,20.32h.02l5.85-21.31c.2-.46,.54-.55,.79-.55h2.44c.24,0,.44,.1,.58,.27,.11,.15,.21,.41,.08,.84l-6.49,22.52c-.39,1.16-.88,1.87-2.16,1.87Zm-28.92-25.04v.47h0v-.47Zm34.57,.42h0Zm2.13-.15h0Zm-59.95,24.76h-13.71c-.86,0-1.37-.51-1.37-1.37V16.8c0-.86,.51-1.37,1.37-1.37h13.71c6.56,0,9.49,2.76,9.49,8.95v7.61c0,6.19-2.93,8.95-9.49,8.95Zm-20.32,0h-2.38c-.47,0-.77-.15-.99-.48l-5.4-8.41h-11.39v8c0,.53-.36,.89-.89,.89h-2.04c-.53,0-.89-.36-.89-.89V16.8c0-.86,.51-1.37,1.37-1.37h15.81c4.52,0,6.72,2.15,6.72,6.57v3.32c0,3.68-1.51,5.77-4.6,6.37l5.32,7.96c.18,.23,.22,.57,.09,.84-.13,.28-.41,.45-.74,.45Zm-30.46,0h-2.04c-.53,0-.89-.36-.89-.89V16.32c0-.53,.36-.89,.89-.89h2.04c.53,0,.89,.36,.89,.89v23.73c0,.53-.36,.89-.89,.89Zm-2.07-24.56h0Zm-7.34,24.56h-2.01c-.55,0-.92-.36-.92-.89v-10.25h-16.02v10.25c0,.53-.36,.89-.89,.89h-2.04c-.53,0-.89-.36-.89-.89V16.32c0-.53,.36-.89,.89-.89h2.04c.53,0,.89,.36,.89,.89v10.04h16.02v-10.04c0-.53,.37-.89,.92-.89h2.01c.55,0,.89,.34,.89,.89v23.73c0,.55-.34,.89-.89,.89Zm-2.07-.94h0Zm0-23.62h0Zm-19.85,0h0Zm-16.81,24.56h-2.01c-.55,0-.89-.34-.89-.89V19.07h-9.81c-.55,0-.89-.34-.89-.89v-1.86c0-.55,.34-.89,.89-.89h23.45c.55,0,.89,.34,.89,.89v1.86c0,.55-.34,.89-.89,.89h-9.81v20.97c0,.53-.37,.89-.92,.89Zm87.66-3.58h11.2c4.23,0,5.72-1.47,5.72-5.6v-7.13c0-4.14-1.5-5.6-5.72-5.6h-11.2v18.34Zm79.73-6.24h12.13l-6.01-12.04h-.11l-6.01,12.04Zm5.61-12.3l.42,.21s.01-.01,.02-.02l-.43-.19Zm-114.56,9.95h12.85c2.45,0,3.41-.95,3.41-3.38v-3.02c0-2.43-.96-3.38-3.41-3.38h-12.85v9.78Z"/><path class="b" d="M359.54,15.43h5.38v1.02h-2.05v4.79h-1.29v-4.79h-2.04v-1.02Zm11.93,5.81v-3.67l-1.97,3.03h-.59l-1.98-2.96v3.6h-1.22v-5.81h1.04l2.46,3.73,2.42-3.73h1.04v5.81h-1.21Z"/></svg>