<?xml version="1.0" encoding="UTF-8"?>
<svg version="1.1" xmlns="http://www.w3.org/2000/svg" width="512" height="181">
<path d="M0 0 C7.92 0 15.84 0 24 0 C27.83773494 9.98192316 31.42392088 20.02765008 34.890625 30.14453125 C35.2147361 31.09008692 35.2147361 31.09008692 35.5453949 32.05474472 C37.58002933 37.99217043 39.60908922 43.931494 41.63378906 49.87231445 C42.53588388 52.51860519 43.44026871 55.16409263 44.34710693 57.8087616 C45.19441613 60.28041324 46.03817903 62.75328411 46.87799072 65.22749329 C47.25888855 66.33682724 47.63978638 67.44616119 48.03222656 68.58911133 C48.36498596 69.56455399 48.69774536 70.53999664 49.04058838 71.54499817 C49.97505042 74.19418189 49.97505042 74.19418189 52 77 C52.22248917 76.34283997 52.44497833 75.68567993 52.67420959 75.00860596 C54.80485524 68.71598093 56.93650428 62.42369673 59.06919193 56.13176346 C60.16473516 52.89954311 61.25993306 49.66720673 62.35424805 46.43457031 C66.55640371 34.02338423 70.75973306 21.61247265 75.05859375 9.234375 C75.34581802 8.40141907 75.6330423 7.56846313 75.92897034 6.71026611 C77.88253328 1.11746672 77.88253328 1.11746672 79 0 C80.70772358 -0.08713831 82.41898649 -0.10700007 84.12890625 -0.09765625 C85.68061523 -0.09282227 85.68061523 -0.09282227 87.26367188 -0.08789062 C88.35228516 -0.07951172 89.44089844 -0.07113281 90.5625 -0.0625 C92.2012207 -0.05573242 92.2012207 -0.05573242 93.87304688 -0.04882812 C96.58208495 -0.03699826 99.29101599 -0.02051543 102 0 C105.22212868 6.83993371 107.7564324 13.81454119 110.15234375 20.98046875 C110.72535973 22.67614738 110.72535973 22.67614738 111.30995178 24.40608215 C112.52317558 27.99854037 113.73060851 31.59291005 114.9375 35.1875 C120.15256643 57.37540092 120.15256643 57.37540092 130 77 C130.23501724 76.3155632 130.47003448 75.6311264 130.71217346 74.9259491 C132.9594576 68.38245718 135.20881729 61.83968185 137.46034336 55.29764843 C138.61698743 51.9366804 139.77290801 48.57546768 140.92700195 45.21362305 C146.12269987 30.08042052 151.39412171 14.98745788 157 0 C164.92 0 172.84 0 181 0 C178.75026931 10.12378812 178.75026931 10.12378812 177.33032227 13.87817383 C177.0107254 14.73257553 176.69112854 15.58697723 176.36184692 16.4672699 C176.0168515 17.37139114 175.67185608 18.27551239 175.31640625 19.20703125 C174.76483353 20.67578453 174.76483353 20.67578453 174.20211792 22.17420959 C173.40803889 24.28724614 172.61132261 26.39929313 171.81222534 28.51043701 C169.66719097 34.17811325 167.54164571 39.85309862 165.4140625 45.52734375 C164.97237228 46.70387512 164.53068207 47.88040649 164.0756073 49.09259033 C158.6876533 63.46395412 153.43822215 77.8857389 148.18777466 92.30776978 C147.39136941 94.49533667 146.59474786 96.68282483 145.79788208 98.870224 C145.07714078 100.84913884 144.35717831 102.82833758 143.63815308 104.80787659 C143.31855621 105.68580368 142.99895935 106.56373077 142.66967773 107.46826172 C142.39389389 108.22710663 142.11811005 108.98595154 141.83396912 109.76779175 C140.92779806 112.19325627 139.96160958 114.59597605 139 117 C132.73 117 126.46 117 120 117 C110.20974044 89.04154168 100.53148207 61.04775826 91 33 C87.3562028 41.41814114 84.21272045 49.92128063 81.3125 58.62109375 C80.88367441 59.89574745 80.45438341 61.17024465 80.0246582 62.44459534 C78.90514991 65.76732908 77.79024157 69.09158412 76.67687988 72.41638184 C74.8970385 77.73086945 73.11261428 83.04380289 71.32333374 88.35511971 C70.70891712 90.18239909 70.09816631 92.01090984 69.48754883 93.83946228 C66.86054473 101.65076799 64.00302219 109.32535158 61 117 C55.06 117 49.12 117 43 117 C40.10515052 110.64179931 37.50843354 104.23869183 35.0859375 97.6875 C34.71831802 96.70012848 34.35069855 95.71275696 33.97193909 94.69546509 C32.77006303 91.4647114 31.57244159 88.23239962 30.375 85 C29.53734545 82.74522247 28.6995339 80.49050327 27.86157227 78.23583984 C21.06503538 59.93365217 14.32551532 41.61042401 7.61279297 23.27734375 C7.24935287 22.2853598 6.88591278 21.29337585 6.51145935 20.27133179 C5.83553785 18.42606049 5.16025032 16.58055679 4.48573303 14.73477173 C4.18614182 13.91689178 3.8865506 13.09901184 3.57788086 12.25634766 C3.30370331 11.50750305 3.02952576 10.75865845 2.74703979 9.98712158 C2.12915157 8.34354244 1.46252168 6.71837901 0.78344727 5.09912109 C0 3 0 3 0 0 Z " fill="#C4C1C5" transform="translate(325,47)"/>
<path d="M0 0 C3.5487061 2.80245777 6.79602203 5.8122584 10 9 C10.639375 9.60457031 11.27875 10.20914063 11.9375 10.83203125 C25.0358441 24.25198648 26.89228017 43.2764828 28 61 C-4.01 61 -36.02 61 -69 61 C-64.54243025 73.25831681 -60.26626979 81.57199627 -48.44140625 87.22265625 C-35.90780415 92.4186072 -24.60320571 92.19143455 -12 87 C-8.78057002 85.2435098 -5.88530426 83.25831661 -3 81 C-2.39027344 80.52949219 -1.78054688 80.05898437 -1.15234375 79.57421875 C1.87471694 77.1711423 1.87471694 77.1711423 4 74 C9.28522873 74.39411839 12.38660168 77.32393712 16.3125 80.5625 C16.95767578 81.08263672 17.60285156 81.60277344 18.26757812 82.13867188 C19.85164465 83.41765892 21.42673406 84.70775044 23 86 C17.79377004 97.95005116 4.11526693 104.77322838 -7.1015625 109.95703125 C-23.86130358 115.98782757 -43.79627108 114.64892954 -60.00390625 107.71484375 C-66.97275039 104.23526788 -72.51229001 99.47803149 -78 94 C-78.86431641 93.15308594 -78.86431641 93.15308594 -79.74609375 92.2890625 C-88.42556492 83.0459893 -93.20427345 69.53872141 -94 57 C-94.05285156 56.2884375 -94.10570312 55.576875 -94.16015625 54.84375 C-94.80962608 37.90105888 -89.24672904 21.9109382 -78.3125 9 C-58.63721251 -11.0062174 -23.83612661 -15.94470948 0 0 Z M-60 22 C-64.66044302 27.80944625 -69 34.40916592 -69 42 C-45.57 42 -22.14 42 2 42 C-0.36588263 31.35352817 -3.94192275 24.22861496 -13 18 C-27.75564291 9.36255049 -47.06117625 10.55329761 -60 22 Z " fill="#C4C1C5" transform="translate(291,53)"/>
<path d="M0 0 C8.25 0 16.5 0 25 0 C29.49966309 8.99932617 29.49966309 8.99932617 30.91601562 12.48706055 C31.23775253 13.27472305 31.55948944 14.06238556 31.89097595 14.87391663 C32.39353661 16.11775368 32.39353661 16.11775368 32.90625 17.38671875 C33.26807877 18.27463608 33.62990753 19.16255341 34.00270081 20.07737732 C34.77360801 21.97007413 35.54311127 23.8633433 36.31130981 25.75714111 C37.91281214 29.70516443 39.52113522 33.65039625 41.12916565 37.59576416 C41.93536523 39.57393689 42.74122337 41.55224881 43.54673767 43.53070068 C47.02556235 52.07311765 50.53427416 60.60288503 54.0625 69.125 C54.80306641 70.91683716 54.80306641 70.91683716 55.55859375 72.74487305 C57.65875139 77.92681222 57.65875139 77.92681222 60 83 C62.16875658 77.8133715 64.33496179 72.62568168 66.5 67.4375 C66.83069489 66.64533081 67.16138977 65.85316162 67.50210571 65.0369873 C71.50675007 55.4402655 75.48685649 45.83413006 79.41796875 36.20703125 C79.77702301 35.32836899 80.13607727 34.44970673 80.50601196 33.54441833 C82.24782438 29.28058661 83.98593986 25.0153007 85.71875 20.74780273 C86.35796402 19.1807824 86.99728177 17.61380437 87.63671875 16.046875 C87.91847458 15.34927567 88.20023041 14.65167633 88.49052429 13.93293762 C90.45351181 9.13426945 92.66542291 4.66915417 95 0 C103.25 0 111.5 0 120 0 C116.62479904 10.12560289 116.62479904 10.12560289 115.09667969 13.67871094 C114.74987152 14.48989883 114.40306335 15.30108673 114.04574585 16.13685608 C113.67486847 16.99403732 113.30399109 17.85121857 112.921875 18.734375 C112.32217392 20.13223488 112.32217392 20.13223488 111.71035767 21.55833435 C110.39393927 24.62382921 109.07213036 27.68696482 107.75 30.75 C106.82482878 32.90005881 105.89986512 35.05020695 104.97509766 37.20043945 C101.9898813 44.13643025 98.99551499 51.06845208 96 58 C95.47071805 59.22531032 94.94146206 60.45063186 94.41223145 61.67596436 C90.73819761 70.18199604 87.05824896 78.68545381 83.375 87.1875 C82.87464233 88.34350708 82.37428467 89.49951416 81.85876465 90.69055176 C80.43632658 93.97549138 79.01152668 97.25939561 77.5859375 100.54296875 C77.16494781 101.51584335 76.74395813 102.48871796 76.31021118 103.49107361 C75.72038956 104.84743675 75.72038956 104.84743675 75.11865234 106.23120117 C74.78006195 107.01162277 74.44147156 107.79204437 74.09262085 108.59611511 C72.80333961 111.43267429 71.39343562 114.21312877 70 117 C63.4 117 56.8 117 50 117 C45.27120315 107.84534485 41.13021714 98.53637811 37.10992432 89.05490112 C35.16161795 84.46044437 33.20063414 79.87139108 31.2421875 75.28125 C30.82701874 74.30715683 30.41184998 73.33306366 29.98410034 72.32945251 C25.21773738 61.15134286 20.40621725 49.99274636 15.59130859 38.83547974 C14.14743432 35.48948862 12.70452809 32.14308129 11.26171875 28.79663086 C10.36464851 26.71725704 9.46751609 24.63791004 8.5703125 22.55859375 C7.96511276 21.15480469 7.96511276 21.15480469 7.34768677 19.72265625 C6.96498627 18.83634521 6.58228577 17.95003418 6.18798828 17.03686523 C5.8249762 16.19445282 5.46196411 15.35204041 5.08795166 14.48410034 C4.35010223 12.79938208 3.59605858 11.12168133 2.82757568 9.45071411 C2.46021301 8.65108246 2.09285034 7.85145081 1.71435547 7.02758789 C1.3843454 6.32235489 1.05433533 5.61712189 0.71432495 4.89051819 C0 3 0 3 0 0 Z " fill="#C3C3C3" transform="translate(14,47)"/>
<path d="M0 0 C0.91644287 0.00523682 1.83288574 0.01047363 2.77709961 0.01586914 C3.76645508 0.0190918 4.75581055 0.02231445 5.77514648 0.02563477 C6.81606445 0.03401367 7.85698242 0.04239258 8.92944336 0.05102539 C10.49662109 0.05779297 10.49662109 0.05779297 12.09545898 0.06469727 C14.68600996 0.07652627 17.27644895 0.0930085 19.86694336 0.11352539 C19.89027305 15.2207723 19.90792288 30.32801782 19.91875553 45.43527889 C19.92391834 52.44937173 19.93096075 59.46345339 19.94238281 66.47753906 C19.95339024 73.24020607 19.95921955 80.00285903 19.9618206 86.76553535 C19.96367539 89.3520482 19.96729703 91.93856036 19.97267342 94.52506828 C19.97987987 98.13391394 19.98093447 101.74271086 19.98046875 105.3515625 C19.98406403 106.43265289 19.9876593 107.51374329 19.99136353 108.62759399 C19.98998886 109.60501053 19.9886142 110.58242706 19.98719788 111.58946228 C19.98811967 112.44396438 19.98904146 113.29846647 19.98999119 114.17886257 C19.86694336 116.11352539 19.86694336 116.11352539 18.86694336 117.11352539 C17.31738777 117.21252062 15.76340663 117.24432063 14.21069336 117.24633789 C12.80110352 117.24827148 12.80110352 117.24827148 11.36303711 117.25024414 C9.8799707 117.24444336 9.8799707 117.24444336 8.36694336 117.23852539 C7.37823242 117.24239258 6.38952148 117.24625977 5.37084961 117.25024414 C4.43112305 117.24895508 3.49139648 117.24766602 2.52319336 117.24633789 C1.65500977 117.24520996 0.78682617 117.24408203 -0.10766602 117.24291992 C-2.13305664 117.11352539 -2.13305664 117.11352539 -3.13305664 116.11352539 C-3.23093928 114.62301271 -3.25937446 113.12787834 -3.26004028 111.63415527 C-3.26286011 110.66659805 -3.26567993 109.69904083 -3.26858521 108.7021637 C-3.26656097 107.63199509 -3.26453674 106.56182648 -3.26245117 105.45922852 C-3.26420349 104.33902817 -3.26595581 103.21882782 -3.26776123 102.06468201 C-3.27218241 98.3413643 -3.26924082 94.61809363 -3.26586914 90.89477539 C-3.2665421 88.32027172 -3.26751206 85.7457681 -3.26876831 83.17126465 C-3.27024565 77.76740864 -3.26818418 72.36357049 -3.26342773 66.9597168 C-3.25798514 60.70391067 -3.25974781 54.44813713 -3.26525414 48.19233179 C-3.27033098 42.18501489 -3.26980372 36.17771399 -3.26687241 30.1703949 C-3.26620287 27.60900366 -3.26703248 25.04761159 -3.26935196 22.48622131 C-3.27187691 18.91339886 -3.2680401 15.34063996 -3.26245117 11.76782227 C-3.2644754 10.69765366 -3.26649963 9.62748505 -3.26858521 8.52488708 C-3.26576538 7.55732986 -3.26294556 6.58977264 -3.26004028 5.59289551 C-3.25966326 4.74706657 -3.25928623 3.90123764 -3.25889778 3.02977753 C-3.07884017 0.28794138 -2.74280701 0.14597748 0 0 Z " fill="#C4C4C4" transform="translate(154.133056640625,46.886474609375)"/>
<path d="M0 0 C3.74440058 2.41305815 6.12041703 4.47727811 7.41796875 8.85546875 C8.31284185 14.00320413 7.69143161 17.64550112 5.02734375 22.1484375 C3.11861283 24.76296924 1.92051474 25.75445243 -1.1875 26.8125 C-5.8167204 27.50867733 -10.15575072 27.89513727 -14.38671875 25.640625 C-17.75215471 22.90312154 -20.3574102 20.17047145 -21.1875 15.8125 C-21.00157613 9.95589814 -20.11507357 6.3769774 -16.1875 1.8125 C-10.79831585 -1.78028944 -6.06769354 -2.26051328 0 0 Z " fill="#8CB8C8" transform="translate(170.1875,12.1875)"/>
</svg>
